<svg xmlns="http://www.w3.org/2000/svg" width="190" height="89" viewBox="0 0 190 89">
  <g id="Grupo_151991" data-name="Grupo 151991" transform="translate(-180 -383)">
    <rect id="Rect치ngulo_41430" data-name="Rect치ngulo 41430" width="85" height="28" rx="14" transform="translate(285 383)" fill="#feca2e" opacity="0.2"/>
    <rect id="Rect치ngulo_41431" data-name="Rect치ngulo 41431" width="85" height="28" rx="14" transform="translate(180 444)" fill="#4dd0e1" opacity="0.2"/>
    <g id="Google_Colaboratory_SVG_Logo" transform="translate(211.835 385.935)">
      <path id="Trazado_199074" data-name="Trazado 199074" d="M23.264,19.562,10.856,7.1a36.593,36.593,0,0,0,0,51.695L23.317,46.333a18.956,18.956,0,0,1-.053-26.771Z" transform="translate(0 8.708)" fill="#e8710a"/>
      <path id="Trazado_199075" data-name="Trazado 199075" d="M2.19,15.77,14.6,28.232a18.956,18.956,0,0,1,26.824,0L50.452,12.76h0l-.528-.422h0A36.593,36.593,0,0,0,2.19,15.77Z" transform="translate(8.666 0.038)" fill="#f9ab00"/>
      <path id="Trazado_199076" data-name="Trazado 199076" d="M50.505,29.959h0L41.423,14.54a18.956,18.956,0,0,1-26.824,0L2.19,27a36.593,36.593,0,0,0,47.523,3.432l.581-.475" transform="translate(8.666 40.554)" fill="#f9ab00"/>
      <path id="Trazado_199077" data-name="Trazado 199077" d="M20.666,15.808a36.593,36.593,0,0,0,0,51.695L33.127,55.041A18.968,18.968,0,0,1,59.951,28.217L72.466,15.808a36.593,36.593,0,0,0-51.8,0Z" transform="translate(41.99 0)" fill="#f9ab00"/>
      <path id="Trazado_199078" data-name="Trazado 199078" d="M63.8,7.1,51.391,19.562A18.968,18.968,0,0,1,24.567,46.386L12,58.847A36.61,36.61,0,1,0,63.8,7.1Z" transform="translate(50.656 8.708)" fill="#e8710a"/>
    </g>
  </g>
</svg>
