<svg xmlns="http://www.w3.org/2000/svg" width="242" height="58" viewBox="0 0 242 58">
  <g id="Grupo_151998" data-name="Grupo 151998" transform="translate(9802 9571)">
    <path id="Trazado_199097" data-name="Trazado 199097" d="M0,0H242V58H0Z" transform="translate(-9802 -9571)" fill="#f3f9ff"/>
    <path id="Trazado_199096" data-name="Trazado 199096" d="M10.008,9.68a7.026,7.026,0,0,1-.523,2.84,4.388,4.388,0,0,1-1.469,1.863l2.031,1.594-1.023.945-2.4-1.906a4.88,4.88,0,0,1-1.187.141,4.347,4.347,0,0,1-2.383-.66,4.363,4.363,0,0,1-1.613-1.883,6.752,6.752,0,0,1-.59-2.832v-.82a6.953,6.953,0,0,1,.57-2.9A4.347,4.347,0,0,1,3.035,4.137a4.329,4.329,0,0,1,2.387-.668,4.4,4.4,0,0,1,2.418.664,4.284,4.284,0,0,1,1.605,1.91,7.016,7.016,0,0,1,.563,2.91Zm-1.5-.734a5.162,5.162,0,0,0-.8-3.1,2.666,2.666,0,0,0-2.285-1.09A2.643,2.643,0,0,0,3.191,5.84a5,5,0,0,0-.84,3V9.68a5.147,5.147,0,0,0,.816,3.078,2.646,2.646,0,0,0,2.27,1.125,2.652,2.652,0,0,0,2.25-1.059,5.079,5.079,0,0,0,.82-3.035ZM15.9,20H11.551v-.606l2.3-2.552a5.456,5.456,0,0,0,.7-.941,1.571,1.571,0,0,0,.194-.75,1.19,1.19,0,0,0-.314-.852,1.1,1.1,0,0,0-.838-.333,1.3,1.3,0,0,0-.977.358,1.366,1.366,0,0,0-.349,1h-.843a1.957,1.957,0,0,1,.59-1.481,2.188,2.188,0,0,1,1.579-.565,2.1,2.1,0,0,1,1.463.485,1.655,1.655,0,0,1,.538,1.292,3.8,3.8,0,0,1-1.249,2.333l-1.777,1.928H15.9ZM27.9,8.641H21.389V7.383H27.9Zm0,3.242H21.389v-1.25H27.9Z" transform="translate(-9766 -9552)" fill="#12263f"/>
    <path id="Trazado_199105" data-name="Trazado 199105" d="M7.7,8.641H1.188V7.383H7.7Zm0,3.242H1.188v-1.25H7.7Zm8.086-3.273h1.086a2.387,2.387,0,0,0,1.609-.539,1.8,1.8,0,0,0,.586-1.414,1.764,1.764,0,0,0-1.992-2,2.072,2.072,0,0,0-1.5.535,1.873,1.873,0,0,0-.559,1.418H13.578a2.9,2.9,0,0,1,.988-2.246,3.6,3.6,0,0,1,2.512-.895A3.558,3.558,0,0,1,19.6,4.32a3.076,3.076,0,0,1,.914,2.367,2.5,2.5,0,0,1-.48,1.438,2.9,2.9,0,0,1-1.309,1.039,2.8,2.8,0,0,1,1.449.984,2.734,2.734,0,0,1,.512,1.68,3.1,3.1,0,0,1-1,2.43,3.745,3.745,0,0,1-2.6.9,3.844,3.844,0,0,1-2.605-.867,2.877,2.877,0,0,1-1-2.289H14.93a1.859,1.859,0,0,0,.586,1.438,2.229,2.229,0,0,0,1.57.539,2.187,2.187,0,0,0,1.6-.547,2.108,2.108,0,0,0,.555-1.57,1.912,1.912,0,0,0-.609-1.523,2.655,2.655,0,0,0-1.758-.547H15.789Z" transform="translate(-9600 -9552)" fill="#12263f"/>
    <path id="Trazado_199101" data-name="Trazado 199101" d="M21.813,8.641H15.3V7.383h6.516Zm0,3.242H15.3v-1.25h6.516Z" transform="translate(-9670 -9551)" fill="#12263f"/>
    <path id="Trazado_199100" data-name="Trazado 199100" d="M8.4,15H.945V13.961L4.883,9.586A9.355,9.355,0,0,0,6.09,7.973a2.693,2.693,0,0,0,.332-1.285,2.041,2.041,0,0,0-.539-1.461,1.885,1.885,0,0,0-1.437-.57A2.232,2.232,0,0,0,2.77,5.27a2.343,2.343,0,0,0-.6,1.707H.727A3.355,3.355,0,0,1,1.738,4.438a3.751,3.751,0,0,1,2.707-.969A3.6,3.6,0,0,1,6.953,4.3a2.838,2.838,0,0,1,.922,2.215q0,1.68-2.141,4l-3.047,3.3H8.4Zm8.477-5.367L18.75,6.547h1.688l-2.766,4.18L20.523,15H18.852L16.9,11.836,14.945,15h-1.68l2.852-4.273-2.766-4.18h1.672Zm9,.75a12.079,12.079,0,0,1,.473-3.391,9.85,9.85,0,0,1,1.41-2.953A6,6,0,0,1,29.7,2.164l.3.953a6.222,6.222,0,0,0-1.871,2.672,11.583,11.583,0,0,0-.8,4.023l-.008.664a11.643,11.643,0,0,0,1.1,5.234A6.252,6.252,0,0,0,30,17.789l-.3.883a6.192,6.192,0,0,1-1.984-1.937A10.859,10.859,0,0,1,25.875,10.383Zm10-1.086.578-5.672h5.828V4.961h-4.6l-.344,3.1a3.671,3.671,0,0,1,1.9-.492A3.138,3.138,0,0,1,41.7,8.6a4.026,4.026,0,0,1,.914,2.777,3.886,3.886,0,0,1-.949,2.77,3.46,3.46,0,0,1-2.652,1.012,3.6,3.6,0,0,1-2.461-.836,3.337,3.337,0,0,1-1.086-2.312h1.367a2.3,2.3,0,0,0,.7,1.473,2.162,2.162,0,0,0,1.484.5,1.95,1.95,0,0,0,1.582-.687,2.874,2.874,0,0,0,.574-1.9,2.638,2.638,0,0,0-.621-1.832A2.113,2.113,0,0,0,38.9,8.867a2.383,2.383,0,0,0-1.484.414l-.383.313Zm16.57-.4h3.172v1.367H52.445v3.594H50.992V10.266H47.82V8.9h3.172V5.578h1.453ZM5.7,39H4.242V29.367l-2.914,1.07V29.125L5.469,27.57H5.7Zm7.719-4.539a12.085,12.085,0,0,1-.457,3.34,9.876,9.876,0,0,1-1.4,2.949,6.127,6.127,0,0,1-1.973,1.922l-.3-.883a6.281,6.281,0,0,0,1.934-2.863,12.387,12.387,0,0,0,.746-4.309v-.25a12.861,12.861,0,0,0-.344-3.051,10.3,10.3,0,0,0-.957-2.527,5.838,5.838,0,0,0-1.379-1.742l.3-.883a6.1,6.1,0,0,1,1.965,1.906,9.9,9.9,0,0,1,1.4,2.945A12.363,12.363,0,0,1,13.414,34.461Z" transform="translate(-9730 -9563)" fill="#12263f"/>
    <path id="Trazado_199104" data-name="Trazado 199104" d="M8.4,15H.945V13.961L4.883,9.586A9.355,9.355,0,0,0,6.09,7.973a2.693,2.693,0,0,0,.332-1.285,2.041,2.041,0,0,0-.539-1.461,1.885,1.885,0,0,0-1.437-.57A2.232,2.232,0,0,0,2.77,5.27a2.343,2.343,0,0,0-.6,1.707H.727A3.355,3.355,0,0,1,1.738,4.438a3.751,3.751,0,0,1,2.707-.969A3.6,3.6,0,0,1,6.953,4.3a2.838,2.838,0,0,1,.922,2.215q0,1.68-2.141,4l-3.047,3.3H8.4Zm8.477-5.367L18.75,6.547h1.688l-2.766,4.18L20.523,15H18.852L16.9,11.836,14.945,15h-1.68l2.852-4.273-2.766-4.18h1.672ZM31.453,3.617V4.844h-.266a3.805,3.805,0,0,0-2.687,1A4.161,4.161,0,0,0,27.344,8.57,3.085,3.085,0,0,1,29.8,7.539a2.95,2.95,0,0,1,2.371,1.047,4.038,4.038,0,0,1,.887,2.7A4.025,4.025,0,0,1,32.1,14.1a3.3,3.3,0,0,1-2.566,1.055A3.247,3.247,0,0,1,26.883,13.9a4.97,4.97,0,0,1-1.016-3.23v-.555a7.488,7.488,0,0,1,1.34-4.8,4.921,4.921,0,0,1,3.988-1.7Zm-1.9,5.125A2.429,2.429,0,0,0,27.32,10.3v.531a3.731,3.731,0,0,0,.633,2.266,1.9,1.9,0,0,0,1.578.859,1.838,1.838,0,0,0,1.535-.719,2.982,2.982,0,0,0,.559-1.883,2.983,2.983,0,0,0-.566-1.895A1.816,1.816,0,0,0,29.555,8.742Z" transform="translate(-9639 -9563)" fill="#12263f"/>
    <path id="Trazado_199099" data-name="Trazado 199099" d="M24.055,11.18h1.578v1.18H24.055V15H22.6V12.359h-5.18v-.852l5.094-7.883h1.539Zm-4.992,0H22.6V5.6l-.172.313Z" transform="translate(-9718 -9540)" fill="#12263f"/>
    <path id="Trazado_199103" data-name="Trazado 199103" d="M24.055,11.18h1.578v1.18H24.055V15H22.6V12.359h-5.18v-.852l5.094-7.883h1.539Zm-4.992,0H22.6V5.6l-.172.313Z" transform="translate(-9644 -9540)" fill="#12263f"/>
    <path id="Trazado_199098" data-name="Trazado 199098" d="M0,0H72" transform="translate(-9732.5 -9541.5)" fill="none" stroke="#12263f" stroke-width="1"/>
    <path id="Trazado_199102" data-name="Trazado 199102" d="M0,0H37.5" transform="translate(-9642 -9541.5)" fill="none" stroke="#12263f" stroke-width="1"/>
  </g>
</svg>
