<svg xmlns="http://www.w3.org/2000/svg" width="406" height="58" viewBox="0 0 406 58">
  <g id="Grupo_151996" data-name="Grupo 151996" transform="translate(-824 -2326)">
    <rect id="Rectángulo_44235" data-name="Rectángulo 44235" width="196" height="58" transform="translate(824 2326)" fill="#f3f9ff"/>
    <g id="Grupo_151995" data-name="Grupo 151995">
      <path id="Trazado_199079" data-name="Trazado 199079" d="M10.008,9.68a7.026,7.026,0,0,1-.523,2.84,4.388,4.388,0,0,1-1.469,1.863l2.031,1.594-1.023.945-2.4-1.906a4.88,4.88,0,0,1-1.187.141,4.347,4.347,0,0,1-2.383-.66,4.363,4.363,0,0,1-1.613-1.883,6.752,6.752,0,0,1-.59-2.832v-.82a6.953,6.953,0,0,1,.57-2.9A4.347,4.347,0,0,1,3.035,4.137a4.329,4.329,0,0,1,2.387-.668,4.4,4.4,0,0,1,2.418.664,4.284,4.284,0,0,1,1.605,1.91,7.016,7.016,0,0,1,.563,2.91Zm-1.5-.734a5.162,5.162,0,0,0-.8-3.1,2.666,2.666,0,0,0-2.285-1.09A2.643,2.643,0,0,0,3.191,5.84a5,5,0,0,0-.84,3V9.68a5.147,5.147,0,0,0,.816,3.078,2.646,2.646,0,0,0,2.27,1.125,2.652,2.652,0,0,0,2.25-1.059,5.079,5.079,0,0,0,.82-3.035ZM14.322,20h-.848V14.381l-1.7.624V14.24l2.415-.907h.132ZM27.9,8.641H21.389V7.383H27.9Zm0,3.242H21.389v-1.25H27.9Z" transform="translate(835 2345)" fill="#12263f"/>
      <path id="Trazado_199086" data-name="Trazado 199086" d="M21.813,8.641H15.3V7.383h6.516Zm0,3.242H15.3v-1.25h6.516Z" transform="translate(926 2345)" fill="#12263f"/>
      <path id="Trazado_199087" data-name="Trazado 199087" d="M8.742,8.641H2.227V7.383H8.742Zm0,3.242H2.227v-1.25H8.742ZM19.477,15H18.023V5.367l-2.914,1.07V5.125L19.25,3.57h.227Zm4.414-.758a.905.905,0,0,1,.223-.625.848.848,0,0,1,.668-.25.874.874,0,0,1,.676.25.887.887,0,0,1,.23.625.839.839,0,0,1-.23.6.89.89,0,0,1-.676.242.8.8,0,0,1-.891-.844Zm4.7-4.945.578-5.672h5.828V4.961h-4.6l-.344,3.1a3.671,3.671,0,0,1,1.9-.492A3.138,3.138,0,0,1,34.414,8.6a4.026,4.026,0,0,1,.914,2.777,3.886,3.886,0,0,1-.949,2.77,3.46,3.46,0,0,1-2.652,1.012,3.6,3.6,0,0,1-2.461-.836,3.337,3.337,0,0,1-1.086-2.312h1.367a2.3,2.3,0,0,0,.7,1.473,2.162,2.162,0,0,0,1.484.5,1.95,1.95,0,0,0,1.582-.687,2.874,2.874,0,0,0,.574-1.9,2.638,2.638,0,0,0-.621-1.832,2.113,2.113,0,0,0-1.652-.691,2.383,2.383,0,0,0-1.484.414l-.383.313Z" transform="translate(972 2345)" fill="#12263f"/>
      <path id="Trazado_199080" data-name="Trazado 199080" d="M5.7,15H4.242V5.367L1.328,6.438V5.125L5.469,3.57H5.7Zm11.18-5.367L18.75,6.547h1.688l-2.766,4.18L20.523,15H18.852L16.9,11.836,14.945,15h-1.68l2.852-4.273-2.766-4.18h1.672Zm9,.75a12.079,12.079,0,0,1,.473-3.391,9.85,9.85,0,0,1,1.41-2.953A6,6,0,0,1,29.7,2.164l.3.953a6.222,6.222,0,0,0-1.871,2.672,11.583,11.583,0,0,0-.8,4.023l-.008.664a11.643,11.643,0,0,0,1.1,5.234A6.252,6.252,0,0,0,30,17.789l-.3.883a6.192,6.192,0,0,1-1.984-1.937A10.859,10.859,0,0,1,25.875,10.383Zm10-1.086.578-5.672h5.828V4.961h-4.6l-.344,3.1a3.671,3.671,0,0,1,1.9-.492A3.138,3.138,0,0,1,41.7,8.6a4.026,4.026,0,0,1,.914,2.777,3.886,3.886,0,0,1-.949,2.77,3.46,3.46,0,0,1-2.652,1.012,3.6,3.6,0,0,1-2.461-.836,3.337,3.337,0,0,1-1.086-2.312h1.367a2.3,2.3,0,0,0,.7,1.473,2.162,2.162,0,0,0,1.484.5,1.95,1.95,0,0,0,1.582-.687,2.874,2.874,0,0,0,.574-1.9,2.638,2.638,0,0,0-.621-1.832A2.113,2.113,0,0,0,38.9,8.867a2.383,2.383,0,0,0-1.484.414l-.383.313Zm16.57-.4h3.172v1.367H52.445v3.594H50.992V10.266H47.82V8.9h3.172V5.578h1.453ZM5.7,39H4.242V29.367l-2.914,1.07V29.125L5.469,27.57H5.7Zm7.719-4.539a12.085,12.085,0,0,1-.457,3.34,9.876,9.876,0,0,1-1.4,2.949,6.127,6.127,0,0,1-1.973,1.922l-.3-.883a6.281,6.281,0,0,0,1.934-2.863,12.387,12.387,0,0,0,.746-4.309v-.25a12.861,12.861,0,0,0-.344-3.051,10.3,10.3,0,0,0-.957-2.527,5.838,5.838,0,0,0-1.379-1.742l.3-.883a6.1,6.1,0,0,1,1.965,1.906,9.9,9.9,0,0,1,1.4,2.945A12.363,12.363,0,0,1,13.414,34.461Z" transform="translate(868 2334)" fill="#12263f"/>
      <path id="Trazado_199085" data-name="Trazado 199085" d="M6.617,3.617V4.844H6.352a3.805,3.805,0,0,0-2.687,1A4.161,4.161,0,0,0,2.508,8.57,3.085,3.085,0,0,1,4.961,7.539,2.95,2.95,0,0,1,7.332,8.586a4.038,4.038,0,0,1,.887,2.7A4.025,4.025,0,0,1,7.262,14.1,3.3,3.3,0,0,1,4.7,15.156,3.247,3.247,0,0,1,2.047,13.9a4.97,4.97,0,0,1-1.016-3.23v-.555a7.488,7.488,0,0,1,1.34-4.8,4.921,4.921,0,0,1,3.988-1.7Zm-1.9,5.125a2.306,2.306,0,0,0-1.367.445A2.32,2.32,0,0,0,2.484,10.3v.531A3.731,3.731,0,0,0,3.117,13.1a1.9,1.9,0,0,0,1.578.859,1.838,1.838,0,0,0,1.535-.719,2.982,2.982,0,0,0,.559-1.883,2.983,2.983,0,0,0-.566-1.895A1.816,1.816,0,0,0,4.719,8.742Z" transform="translate(956 2334)" fill="#12263f"/>
      <path id="Trazado_199082" data-name="Trazado 199082" d="M37.055,11.18h1.578v1.18H37.055V15H35.6V12.359h-5.18v-.852l5.094-7.883h1.539Zm-4.992,0H35.6V5.6l-.172.313Z" transform="translate(868 2357)" fill="#12263f"/>
      <path id="Trazado_199083" data-name="Trazado 199083" d="M15.555,11.18h1.578v1.18H15.555V15H14.1V12.359H8.922v-.852l5.094-7.883h1.539Zm-4.992,0H14.1V5.6l-.172.313Z" transform="translate(947 2357)" fill="#12263f"/>
      <path id="Trazado_199081" data-name="Trazado 199081" d="M0,0H71" transform="translate(868.5 2355.5)" fill="none" stroke="#12263f" stroke-width="1"/>
      <path id="Trazado_199084" data-name="Trazado 199084" d="M0,0H20.5" transform="translate(951 2355.5)" fill="none" stroke="#12263f" stroke-width="1"/>
      <path id="Trazado_199095" data-name="Trazado 199095" d="M0,0H196V58H0Z" transform="translate(1034 2326)" fill="#f3f9ff"/>
      <path id="Trazado_199094" data-name="Trazado 199094" d="M10.008,9.68a7.026,7.026,0,0,1-.523,2.84,4.388,4.388,0,0,1-1.469,1.863l2.031,1.594-1.023.945-2.4-1.906a4.88,4.88,0,0,1-1.187.141,4.347,4.347,0,0,1-2.383-.66,4.363,4.363,0,0,1-1.613-1.883,6.752,6.752,0,0,1-.59-2.832v-.82a6.953,6.953,0,0,1,.57-2.9A4.347,4.347,0,0,1,3.035,4.137a4.329,4.329,0,0,1,2.387-.668,4.4,4.4,0,0,1,2.418.664,4.284,4.284,0,0,1,1.605,1.91,7.016,7.016,0,0,1,.563,2.91Zm-1.5-.734a5.162,5.162,0,0,0-.8-3.1,2.666,2.666,0,0,0-2.285-1.09A2.643,2.643,0,0,0,3.191,5.84a5,5,0,0,0-.84,3V9.68a5.147,5.147,0,0,0,.816,3.078,2.646,2.646,0,0,0,2.27,1.125,2.652,2.652,0,0,0,2.25-1.059,5.079,5.079,0,0,0,.82-3.035ZM14.322,20h-.848V14.381l-1.7.624V14.24l2.415-.907h.132ZM27.9,8.641H21.389V7.383H27.9Zm0,3.242H21.389v-1.25H27.9Z" transform="translate(1045 2345)" fill="#12263f"/>
      <path id="Trazado_199091" data-name="Trazado 199091" d="M21.813,8.641H15.3V7.383h6.516Zm0,3.242H15.3v-1.25h6.516Z" transform="translate(1136 2345)" fill="#12263f"/>
      <path id="Trazado_199088" data-name="Trazado 199088" d="M8.742,8.641H2.227V7.383H8.742Zm0,3.242H2.227v-1.25H8.742ZM19.477,15H18.023V5.367l-2.914,1.07V5.125L19.25,3.57h.227Zm4.414-.758a.905.905,0,0,1,.223-.625.848.848,0,0,1,.668-.25.874.874,0,0,1,.676.25.887.887,0,0,1,.23.625.839.839,0,0,1-.23.6.89.89,0,0,1-.676.242.8.8,0,0,1-.891-.844Zm4.7-4.945.578-5.672h5.828V4.961h-4.6l-.344,3.1a3.671,3.671,0,0,1,1.9-.492A3.138,3.138,0,0,1,34.414,8.6a4.026,4.026,0,0,1,.914,2.777,3.886,3.886,0,0,1-.949,2.77,3.46,3.46,0,0,1-2.652,1.012,3.6,3.6,0,0,1-2.461-.836,3.337,3.337,0,0,1-1.086-2.312h1.367a2.3,2.3,0,0,0,.7,1.473,2.162,2.162,0,0,0,1.484.5,1.95,1.95,0,0,0,1.582-.687,2.874,2.874,0,0,0,.574-1.9,2.638,2.638,0,0,0-.621-1.832,2.113,2.113,0,0,0-1.652-.691,2.383,2.383,0,0,0-1.484.414l-.383.313Z" transform="translate(1182 2345)" fill="#12263f"/>
      <path id="Trazado_199092" data-name="Trazado 199092" d="M5.7,15H4.242V5.367L1.328,6.438V5.125L5.469,3.57H5.7Zm11.18-5.367L18.75,6.547h1.688l-2.766,4.18L20.523,15H18.852L16.9,11.836,14.945,15h-1.68l2.852-4.273-2.766-4.18h1.672Zm9,.75a12.079,12.079,0,0,1,.473-3.391,9.85,9.85,0,0,1,1.41-2.953A6,6,0,0,1,29.7,2.164l.3.953a6.222,6.222,0,0,0-1.871,2.672,11.583,11.583,0,0,0-.8,4.023l-.008.664a11.643,11.643,0,0,0,1.1,5.234A6.252,6.252,0,0,0,30,17.789l-.3.883a6.192,6.192,0,0,1-1.984-1.937A10.859,10.859,0,0,1,25.875,10.383Zm10-1.086.578-5.672h5.828V4.961h-4.6l-.344,3.1a3.671,3.671,0,0,1,1.9-.492A3.138,3.138,0,0,1,41.7,8.6a4.026,4.026,0,0,1,.914,2.777,3.886,3.886,0,0,1-.949,2.77,3.46,3.46,0,0,1-2.652,1.012,3.6,3.6,0,0,1-2.461-.836,3.337,3.337,0,0,1-1.086-2.312h1.367a2.3,2.3,0,0,0,.7,1.473,2.162,2.162,0,0,0,1.484.5,1.95,1.95,0,0,0,1.582-.687,2.874,2.874,0,0,0,.574-1.9,2.638,2.638,0,0,0-.621-1.832A2.113,2.113,0,0,0,38.9,8.867a2.383,2.383,0,0,0-1.484.414l-.383.313Zm16.57-.4h3.172v1.367H52.445v3.594H50.992V10.266H47.82V8.9h3.172V5.578h1.453ZM5.7,39H4.242V29.367l-2.914,1.07V29.125L5.469,27.57H5.7Zm7.719-4.539a12.085,12.085,0,0,1-.457,3.34,9.876,9.876,0,0,1-1.4,2.949,6.127,6.127,0,0,1-1.973,1.922l-.3-.883a6.281,6.281,0,0,0,1.934-2.863,12.387,12.387,0,0,0,.746-4.309v-.25a12.861,12.861,0,0,0-.344-3.051,10.3,10.3,0,0,0-.957-2.527,5.838,5.838,0,0,0-1.379-1.742l.3-.883a6.1,6.1,0,0,1,1.965,1.906,9.9,9.9,0,0,1,1.4,2.945A12.363,12.363,0,0,1,13.414,34.461Z" transform="translate(1078 2334)" fill="#12263f"/>
      <path id="Trazado_199089" data-name="Trazado 199089" d="M6.617,3.617V4.844H6.352a3.805,3.805,0,0,0-2.687,1A4.161,4.161,0,0,0,2.508,8.57,3.085,3.085,0,0,1,4.961,7.539,2.95,2.95,0,0,1,7.332,8.586a4.038,4.038,0,0,1,.887,2.7A4.025,4.025,0,0,1,7.262,14.1,3.3,3.3,0,0,1,4.7,15.156,3.247,3.247,0,0,1,2.047,13.9a4.97,4.97,0,0,1-1.016-3.23v-.555a7.488,7.488,0,0,1,1.34-4.8,4.921,4.921,0,0,1,3.988-1.7Zm-1.9,5.125a2.306,2.306,0,0,0-1.367.445A2.32,2.32,0,0,0,2.484,10.3v.531A3.731,3.731,0,0,0,3.117,13.1a1.9,1.9,0,0,0,1.578.859,1.838,1.838,0,0,0,1.535-.719,2.982,2.982,0,0,0,.559-1.883,2.983,2.983,0,0,0-.566-1.895A1.816,1.816,0,0,0,4.719,8.742Z" transform="translate(1166 2334)" fill="#12263f"/>
      <path id="Trazado_199090" data-name="Trazado 199090" d="M15.555,11.18h1.578v1.18H15.555V15H14.1V12.359H8.922v-.852l5.094-7.883h1.539Zm-4.992,0H14.1V5.6l-.172.313Z" transform="translate(1157 2357)" fill="#12263f"/>
      <path id="Trazado_199093" data-name="Trazado 199093" d="M0,0H71" transform="translate(1078.5 2355.5)" fill="none" stroke="#12263f" stroke-width="1"/>
    </g>
  </g>
</svg>
