<svg xmlns="http://www.w3.org/2000/svg" width="275" height="78" viewBox="0 0 275 78">
  <g id="Grupo_151993" data-name="Grupo 151993" transform="translate(-285 -3582)">
    <path id="Trazado_199082" data-name="Trazado 199082" d="M0,0H275V78H0Z" transform="translate(285 3582)" fill="#091743"/>
    <path id="Trazado_199081" data-name="Trazado 199081" d="M6.732,19.211a5.563,5.563,0,0,1-4.3-1.767,6.563,6.563,0,0,1-1.608-4.6A6.923,6.923,0,0,1,2.47,8,5.757,5.757,0,0,1,6.943,6.186a5.411,5.411,0,0,1,4.2,1.758,6.565,6.565,0,0,1,1.6,4.6,6.965,6.965,0,0,1-1.635,4.878,4.851,4.851,0,0,1-.826.738l3.542,2.54H11.145L8.771,18.921A6.832,6.832,0,0,1,6.732,19.211ZM6.838,7.521A4.063,4.063,0,0,0,3.612,8.954a5.546,5.546,0,0,0-1.239,3.762,5.637,5.637,0,0,0,1.2,3.753,3.959,3.959,0,0,0,3.155,1.415A4.138,4.138,0,0,0,10,16.53a5.532,5.532,0,0,0,1.2-3.788,5.759,5.759,0,0,0-1.16-3.858A3.978,3.978,0,0,0,6.838,7.521ZM19.651,25h-1.2l-2.84-3.363a2.05,2.05,0,0,1-.195-.256H15.4V25h-.861V17.648H15.4V21.1h.021a2.027,2.027,0,0,1,.195-.251l2.748-3.2H19.43l-3.153,3.527ZM34.892,12.461H26.631V11.3h8.262Zm0,3.744H26.631v-1.16h8.262Z" transform="translate(353 3612)" fill="#fff"/>
    <path id="Trazado_199080" data-name="Trazado 199080" d="M26.465,19H24.444l-3.973-4.324h-.035V19H18.995V5.676h1.441v8.446h.035L24.25,10h1.89l-4.175,4.342Zm12.981-9-3.023,4.553L39.394,19H37.715l-1.767-2.918q-.167-.272-.4-.686h-.035q-.044.079-.413.686L33.3,19H31.642l3.067-4.412L31.774,10h1.679l1.74,3.076q.193.343.378.7h.035L37.856,10Zm10.4,11.865H48.561a11.232,11.232,0,0,1-2.725-7.673,11.658,11.658,0,0,1,2.725-7.8h1.3a11.845,11.845,0,0,0-2.76,7.778A11.638,11.638,0,0,0,49.844,21.865ZM63.9,19H62.457V13.867Q62.457,11,60.365,11a2.269,2.269,0,0,0-1.789.813,3.013,3.013,0,0,0-.708,2.052V19H56.427V10h1.441v1.494H57.9a3.248,3.248,0,0,1,2.953-1.705,2.753,2.753,0,0,1,2.259.954A4.248,4.248,0,0,1,63.9,13.5Zm16.488-4.658H76.835v3.542H75.667V14.342H72.125V13.164h3.542V9.622h1.169v3.542h3.551ZM93.693,19H92.251V8.11a3.336,3.336,0,0,1-.488.382,7.951,7.951,0,0,1-.721.426q-.4.211-.844.4a6.132,6.132,0,0,1-.866.29V8.146A8.379,8.379,0,0,0,90.34,7.79q.532-.224,1.046-.5t.971-.58a7.71,7.71,0,0,0,.791-.593h.545Zm4.834,2.865H97.244a11.638,11.638,0,0,0,2.742-7.69A11.845,11.845,0,0,0,97.226,6.4h1.3a11.611,11.611,0,0,1,2.742,7.8A11.188,11.188,0,0,1,98.527,21.865ZM62.619,31.4V39.72h1.617v1.318H62.619V44H61.2V41.038H55.271V39.79q.826-.932,1.67-1.991t1.613-2.149q.769-1.09,1.424-2.175a19.88,19.88,0,0,0,1.1-2.079ZM56.9,39.72h4.3V33.55q-.659,1.151-1.248,2.057T58.827,37.25q-.532.738-1.015,1.336T56.9,39.72Z" transform="translate(373 3601)" fill="#fff"/>
    <path id="Trazado_199079" data-name="Trazado 199079" d="M0,0H88" transform="translate(390.5 3624)" fill="none" stroke="#4dd0e1" stroke-width="1.578"/>
  </g>
</svg>
