<svg xmlns="http://www.w3.org/2000/svg" width="242" height="58" viewBox="0 0 242 58">
  <g id="Grupo_151993" data-name="Grupo 151993" transform="translate(9814 9571)">
    <g id="Grupo_148823" data-name="Grupo 148823" transform="translate(-10584 -10713)">
      <rect id="Rectángulo_44235" data-name="Rectángulo 44235" width="242" height="58" transform="translate(770 1142)" fill="#f3f9ff"/>
    </g>
    <path id="Trazado_199079" data-name="Trazado 199079" d="M10.008,11.68a7.026,7.026,0,0,1-.523,2.84,4.388,4.388,0,0,1-1.469,1.863l2.031,1.594-1.023.945-2.4-1.906a4.88,4.88,0,0,1-1.187.141,4.348,4.348,0,0,1-2.383-.66,4.363,4.363,0,0,1-1.613-1.883,6.752,6.752,0,0,1-.59-2.832v-.82a6.953,6.953,0,0,1,.57-2.9A4.347,4.347,0,0,1,3.035,6.137a4.329,4.329,0,0,1,2.387-.668,4.4,4.4,0,0,1,2.418.664,4.284,4.284,0,0,1,1.605,1.91,7.016,7.016,0,0,1,.563,2.91Zm-1.5-.734a5.162,5.162,0,0,0-.8-3.1,2.666,2.666,0,0,0-2.285-1.09A2.643,2.643,0,0,0,3.191,7.84a5,5,0,0,0-.84,3v.836a5.147,5.147,0,0,0,.816,3.078,2.646,2.646,0,0,0,2.27,1.125,2.652,2.652,0,0,0,2.25-1.059,5.079,5.079,0,0,0,.82-3.035ZM15.9,22H11.551v-.606l2.3-2.552a5.456,5.456,0,0,0,.7-.941,1.571,1.571,0,0,0,.194-.75,1.19,1.19,0,0,0-.314-.852,1.1,1.1,0,0,0-.838-.333,1.3,1.3,0,0,0-.977.358,1.366,1.366,0,0,0-.349,1h-.843a1.957,1.957,0,0,1,.59-1.481,2.188,2.188,0,0,1,1.579-.565,2.1,2.1,0,0,1,1.463.485,1.655,1.655,0,0,1,.538,1.292,3.8,3.8,0,0,1-1.249,2.333l-1.777,1.928H15.9ZM27.9,10.641H21.389V9.383H27.9Zm0,3.242H21.389v-1.25H27.9Z" transform="translate(-9778 -9552)" fill="#12263f"/>
    <path id="Trazado_199080" data-name="Trazado 199080" d="M7.7,10.641H1.188V9.383H7.7Zm0,3.242H1.188v-1.25H7.7Zm8.086-3.273h1.086a2.387,2.387,0,0,0,1.609-.539,1.8,1.8,0,0,0,.586-1.414,1.764,1.764,0,0,0-1.992-2,2.072,2.072,0,0,0-1.5.535,1.873,1.873,0,0,0-.559,1.418H13.578a2.9,2.9,0,0,1,.988-2.246,3.6,3.6,0,0,1,2.512-.895A3.558,3.558,0,0,1,19.6,6.32a3.076,3.076,0,0,1,.914,2.367,2.5,2.5,0,0,1-.48,1.438,2.9,2.9,0,0,1-1.309,1.039,2.8,2.8,0,0,1,1.449.984,2.734,2.734,0,0,1,.512,1.68,3.1,3.1,0,0,1-1,2.43,3.745,3.745,0,0,1-2.6.9,3.844,3.844,0,0,1-2.605-.867,2.877,2.877,0,0,1-1-2.289H14.93a1.859,1.859,0,0,0,.586,1.438,2.229,2.229,0,0,0,1.57.539,2.187,2.187,0,0,0,1.6-.547,2.108,2.108,0,0,0,.555-1.57,1.912,1.912,0,0,0-.609-1.523,2.655,2.655,0,0,0-1.758-.547H15.789Z" transform="translate(-9612 -9552)" fill="#12263f"/>
    <path id="Trazado_199081" data-name="Trazado 199081" d="M21.813,10.641H15.3V9.383h6.516Zm0,3.242H15.3v-1.25h6.516Z" transform="translate(-9682 -9551)" fill="#12263f"/>
    <path id="Trazado_199082" data-name="Trazado 199082" d="M7.273,17H.914V15.961l3.242-4.3a9.443,9.443,0,0,0,1.02-1.629,3.26,3.26,0,0,0,.285-1.348,2.385,2.385,0,0,0-.422-1.469A1.322,1.322,0,0,0,3.93,6.656a1.609,1.609,0,0,0-1.34.6,2.725,2.725,0,0,0-.473,1.723H.734a3.684,3.684,0,0,1,.859-2.539A2.964,2.964,0,0,1,3.93,5.469,2.794,2.794,0,0,1,6.07,6.3a3.1,3.1,0,0,1,.781,2.215,7.023,7.023,0,0,1-1.758,3.992L2.563,15.82H7.273Zm7.766-5.367,1.445-3.086h1.6l-2.3,4.18L18.141,17H16.555l-1.492-3.164L13.563,17H11.969l2.352-4.273-2.289-4.18h1.586Zm8.219.75a13.042,13.042,0,0,1,.555-3.852,10.282,10.282,0,0,1,1.57-3.164,5.2,5.2,0,0,1,1.188-1.2l.273.953A6.564,6.564,0,0,0,25.3,7.824a13.775,13.775,0,0,0-.656,4.02l-.008.633a14.074,14.074,0,0,0,.773,4.859,6.917,6.917,0,0,0,1.43,2.453l-.273.883a5.752,5.752,0,0,1-1.461-1.594A11.828,11.828,0,0,1,23.258,12.383ZM32.414,11.3l.492-5.672h4.945V6.961H34.07l-.266,3.1A2.592,2.592,0,0,1,35.32,9.57,2.447,2.447,0,0,1,37.406,10.6a4.585,4.585,0,0,1,.758,2.773,4.258,4.258,0,0,1-.824,2.773,3.032,3.032,0,0,1-4.348.172,3.632,3.632,0,0,1-.922-2.312h1.3a2.65,2.65,0,0,0,.559,1.473,1.47,1.47,0,0,0,1.152.5,1.422,1.422,0,0,0,1.258-.7,3.434,3.434,0,0,0,.453-1.887,3.125,3.125,0,0,0-.488-1.82,1.525,1.525,0,0,0-1.316-.7,1.621,1.621,0,0,0-1.1.359l-.367.367Zm14.742-.4h2.57v1.367h-2.57v3.594H45.766V12.266H43.172V10.9h2.594V7.578h1.391ZM59.141,17H57.75V7.367l-2.391,1.07V7.125L58.922,5.57h.219Zm6.875-4.539a12.011,12.011,0,0,1-1.562,6.164,6.193,6.193,0,0,1-1.75,2.047l-.273-.883A6.686,6.686,0,0,0,64.016,16.9a14.655,14.655,0,0,0,.617-4.254v-.281a13.7,13.7,0,0,0-.977-5.312A6.662,6.662,0,0,0,62.43,5.047l.273-.883a6.012,6.012,0,0,1,1.664,1.9A12.1,12.1,0,0,1,66.016,12.461Z" transform="translate(-9742 -9563)" fill="#12263f"/>
    <path id="Trazado_199083" data-name="Trazado 199083" d="M7.273,17H.914V15.961l3.242-4.3a9.443,9.443,0,0,0,1.02-1.629,3.26,3.26,0,0,0,.285-1.348,2.385,2.385,0,0,0-.422-1.469A1.322,1.322,0,0,0,3.93,6.656a1.609,1.609,0,0,0-1.34.6,2.725,2.725,0,0,0-.473,1.723H.734a3.684,3.684,0,0,1,.859-2.539A2.964,2.964,0,0,1,3.93,5.469,2.794,2.794,0,0,1,6.07,6.3a3.1,3.1,0,0,1,.781,2.215,7.023,7.023,0,0,1-1.758,3.992L2.563,15.82H7.273Zm7.766-5.367,1.445-3.086h1.6l-2.3,4.18L18.141,17H16.555l-1.492-3.164L13.563,17H11.969l2.352-4.273-2.289-4.18h1.586ZM27.977,5.617V6.844H27.75a2.8,2.8,0,0,0-2.164.934,4.521,4.521,0,0,0-.9,2.715,2.368,2.368,0,0,1,1.938-.953,2.328,2.328,0,0,1,2,1.035,4.575,4.575,0,0,1,.738,2.715,4.461,4.461,0,0,1-.816,2.828,2.643,2.643,0,0,1-2.191,1.039,2.587,2.587,0,0,1-2.227-1.227,5.649,5.649,0,0,1-.844-3.258v-.555a11.173,11.173,0,0,1,.508-3.734,4.114,4.114,0,0,1,1.5-2.066,4.382,4.382,0,0,1,2.457-.7Zm-1.586,5.125a1.522,1.522,0,0,0-1.039.43,2.429,2.429,0,0,0-.687,1.094v.57a4.582,4.582,0,0,0,.488,2.254,1.4,1.4,0,0,0,1.2.871,1.355,1.355,0,0,0,1.211-.715A3.581,3.581,0,0,0,28,13.359a3.633,3.633,0,0,0-.437-1.887A1.322,1.322,0,0,0,26.391,10.742Z" transform="translate(-9651 -9563)" fill="#12263f"/>
    <path id="Trazado_199084" data-name="Trazado 199084" d="M23.7,13.18h1.266v1.18H23.7V17H22.316V14.359h-4.3v-.852l4.227-7.883H23.7Zm-4.148,0h2.766V7.773Z" transform="translate(-9730 -9540)" fill="#12263f"/>
    <path id="Trazado_199085" data-name="Trazado 199085" d="M23.7,13.18h1.266v1.18H23.7V17H22.316V14.359h-4.3v-.852l4.227-7.883H23.7Zm-4.148,0h2.766V7.773Z" transform="translate(-9656 -9540)" fill="#12263f"/>
    <path id="Trazado_199086" data-name="Trazado 199086" d="M0,0H72" transform="translate(-9744.5 -9541.5)" fill="none" stroke="#12263f" stroke-width="1"/>
    <path id="Trazado_199087" data-name="Trazado 199087" d="M0,0H37.5" transform="translate(-9654 -9541.5)" fill="none" stroke="#12263f" stroke-width="1"/>
  </g>
</svg>
