<svg xmlns="http://www.w3.org/2000/svg" xmlns:xlink="http://www.w3.org/1999/xlink" width="402" height="119" viewBox="0 0 402 119">
  <defs>
    <clipPath id="clip-path">
      <rect id="Rectángulo_373369" data-name="Rectángulo 373369" width="834" height="1194" transform="translate(-14182 -11687)" fill="#fff" stroke="#707070" stroke-width="1"/>
    </clipPath>
    <clipPath id="clip-Mesa_de_trabajo_1">
      <rect width="402" height="119"/>
    </clipPath>
  </defs>
  <g id="Mesa_de_trabajo_1" data-name="Mesa de trabajo – 1" clip-path="url(#clip-Mesa_de_trabajo_1)">
    <rect width="402" height="119" fill="#fff"/>
    <g id="Enmascarar_grupo_1059000" data-name="Enmascarar grupo 1059000" transform="translate(14182 11149)" clip-path="url(#clip-path)">
      <g id="Grupo_151996" data-name="Grupo 151996" transform="translate(-15874.65 -15927.611)">
        <rect id="Rectángulo_44235" data-name="Rectángulo 44235" width="402.621" height="119.143" transform="translate(1692.65 4778.04)" fill="#f3f9ff"/>
        <g id="Grupo_151995" data-name="Grupo 151995">
          <path id="Trazado_199079" data-name="Trazado 199079" d="M20.558,19.885a14.433,14.433,0,0,1-1.074,5.834,9.014,9.014,0,0,1-3.018,3.827l4.172,3.274-2.1,1.941-4.93-3.915a10.024,10.024,0,0,1-2.438.29,8.93,8.93,0,0,1-4.9-1.356A8.962,8.962,0,0,1,2.96,25.912a13.87,13.87,0,0,1-1.212-5.817V18.41a14.283,14.283,0,0,1,1.171-5.957A8.93,8.93,0,0,1,6.234,8.5a8.893,8.893,0,0,1,4.9-1.372A9.038,9.038,0,0,1,16.1,8.49a8.8,8.8,0,0,1,3.3,3.923,14.412,14.412,0,0,1,1.157,5.978Zm-3.081-1.508a10.6,10.6,0,0,0-1.643-6.368A5.476,5.476,0,0,0,11.14,9.77,5.429,5.429,0,0,0,6.555,12a10.271,10.271,0,0,0-1.726,6.163v1.726a10.573,10.573,0,0,0,1.676,6.323,5.435,5.435,0,0,0,4.663,2.311,5.448,5.448,0,0,0,4.622-2.175,10.433,10.433,0,0,0,1.684-6.234ZM29.42,41.084H27.678V29.541l-3.492,1.282V29.252l4.961-1.863h.271ZM57.312,17.75H43.937V15.166H57.312Zm0,6.66H43.937V21.842H57.312Z" transform="translate(1715.246 4817.069)" fill="#12263f"/>
          <path id="Trazado_199086" data-name="Trazado 199086" d="M44.808,17.75H31.429V15.166H44.814Zm0,6.66H31.429V21.842H44.814Z" transform="translate(1902.177 4817.069)" fill="#12263f"/>
          <path id="Trazado_199087" data-name="Trazado 199087" d="M17.958,17.75H4.575V15.166H17.958Zm0,6.66H4.575V21.842H17.958Zm22.052,6.4H37.023V11.025l-5.986,2.2v-2.7l8.506-3.194h.466Zm9.067-1.557a1.859,1.859,0,0,1,.458-1.284,1.742,1.742,0,0,1,1.372-.514,1.8,1.8,0,0,1,1.389.514,1.822,1.822,0,0,1,.472,1.284,1.723,1.723,0,0,1-.472,1.233,1.828,1.828,0,0,1-1.389.5,1.643,1.643,0,0,1-1.83-1.734ZM58.731,19.1,59.919,7.446H71.89v2.744H62.441l-.707,6.368a7.541,7.541,0,0,1,3.9-1.011,6.446,6.446,0,0,1,5.055,2.118,8.27,8.27,0,0,1,1.878,5.7,7.983,7.983,0,0,1-1.949,5.69,7.107,7.107,0,0,1-5.448,2.079,7.4,7.4,0,0,1-5.055-1.717,6.855,6.855,0,0,1-2.231-4.749H60.7A4.725,4.725,0,0,0,62.133,27.7a4.441,4.441,0,0,0,3.048,1.027,4.006,4.006,0,0,0,3.25-1.411,5.9,5.9,0,0,0,1.179-3.9,5.419,5.419,0,0,0-1.276-3.763,4.341,4.341,0,0,0-3.394-1.419,4.9,4.9,0,0,0-3.048.85l-.787.643Z" transform="translate(1996.67 4817.069)" fill="#12263f"/>
          <path id="Trazado_199080" data-name="Trazado 199080" d="M11.709,30.813h-3V11.025l-5.986,2.2v-2.7l8.506-3.194h.475ZM34.675,19.788l3.841-6.339h3.467L36.3,22.035l5.856,8.778H38.726l-4.01-6.5-4.016,6.5H27.249l5.859-8.778-5.682-8.587H30.86Zm18.488,1.541a24.812,24.812,0,0,1,.972-6.966A20.234,20.234,0,0,1,57.03,8.3a12.325,12.325,0,0,1,3.979-3.852L61.626,6.4a12.781,12.781,0,0,0-3.843,5.489,23.794,23.794,0,0,0-1.643,8.264l-.016,1.364a23.917,23.917,0,0,0,2.26,10.752,12.843,12.843,0,0,0,3.244,4.271l-.616,1.814a12.72,12.72,0,0,1-4.076-3.979,22.306,22.306,0,0,1-3.782-13.048ZM73.7,19.1,74.892,7.446H86.863v2.744H77.414l-.707,6.368a7.541,7.541,0,0,1,3.9-1.011,6.446,6.446,0,0,1,5.049,2.118,8.27,8.27,0,0,1,1.878,5.7,7.983,7.983,0,0,1-1.949,5.69,7.107,7.107,0,0,1-5.448,2.079,7.4,7.4,0,0,1-5.055-1.717,6.855,6.855,0,0,1-2.231-4.749h2.808A4.725,4.725,0,0,0,77.1,27.7a4.441,4.441,0,0,0,3.048,1.027,4.006,4.006,0,0,0,3.25-1.411,5.9,5.9,0,0,0,1.179-3.9A5.419,5.419,0,0,0,83.3,19.648a4.341,4.341,0,0,0-3.394-1.434,4.9,4.9,0,0,0-3.048.85l-.787.643Zm34.038-.822h6.516v2.808h-6.526v7.383h-2.985V21.088H98.231V18.282h6.516V11.458h2.985ZM11.709,80.113h-3V60.325l-5.986,2.2v-2.7l8.506-3.194h.475Zm15.856-9.324a24.825,24.825,0,0,1-.939,6.861,20.287,20.287,0,0,1-2.876,6.058A12.586,12.586,0,0,1,19.7,87.656l-.616-1.814a12.9,12.9,0,0,0,3.973-5.881,25.445,25.445,0,0,0,1.532-8.851V70.6a26.419,26.419,0,0,0-.707-6.267,21.158,21.158,0,0,0-1.966-5.191,11.992,11.992,0,0,0-2.833-3.578l.616-1.814a12.53,12.53,0,0,1,4.036,3.915,20.336,20.336,0,0,1,2.876,6.05,25.4,25.4,0,0,1,.945,7.079Z" transform="translate(1783.034 4794.473)" fill="#12263f"/>
          <path id="Trazado_199085" data-name="Trazado 199085" d="M13.593,7.43V9.95h-.544A7.816,7.816,0,0,0,7.529,12a8.547,8.547,0,0,0-2.377,5.6,6.337,6.337,0,0,1,5.039-2.118,6.06,6.06,0,0,1,4.87,2.151,8.3,8.3,0,0,1,1.822,5.546,8.268,8.268,0,0,1-1.966,5.78,6.779,6.779,0,0,1-5.263,2.169,6.67,6.67,0,0,1-5.45-2.58,10.209,10.209,0,0,1-2.087-6.635v-1.14a15.382,15.382,0,0,1,2.753-9.86,10.109,10.109,0,0,1,8.192-3.492ZM9.69,17.958a4.737,4.737,0,0,0-2.808.914A4.766,4.766,0,0,0,5.1,21.158v1.091A7.664,7.664,0,0,0,6.4,26.91a3.9,3.9,0,0,0,3.242,1.765A3.776,3.776,0,0,0,12.8,27.2a6.126,6.126,0,0,0,1.148-3.868,6.128,6.128,0,0,0-1.163-3.893,3.73,3.73,0,0,0-3.089-1.479Z" transform="translate(1963.803 4794.473)" fill="#12263f"/>
          <path id="Trazado_199082" data-name="Trazado 199082" d="M76.118,22.966h3.242V25.39H76.118v5.423H73.129V25.388H62.488v-1.75L72.952,7.444h3.161Zm-10.255,0h7.266V11.5l-.353.643Z" transform="translate(1783.034 4841.719)" fill="#12263f"/>
          <path id="Trazado_199083" data-name="Trazado 199083" d="M31.953,22.966h3.242V25.39H31.953v5.423H28.964V25.388H18.327v-1.75L28.791,7.444h3.161Zm-10.255,0h7.266V11.5l-.353.643Z" transform="translate(1945.315 4841.719)" fill="#12263f"/>
          <path id="Trazado_199081" data-name="Trazado 199081" d="M0,0H145.847" transform="translate(1784.062 4838.638)" fill="none" stroke="#12263f" stroke-width="2.054"/>
          <path id="Trazado_199084" data-name="Trazado 199084" d="M0,0H42.111" transform="translate(1953.532 4838.638)" fill="none" stroke="#12263f" stroke-width="2.054"/>
          <path id="Trazado_199095" data-name="Trazado 199095" d="M0,0H402.621V119.143H0Z" transform="translate(2124.03 4778.04)" fill="#f3f9ff"/>
          <path id="Trazado_199094" data-name="Trazado 199094" d="M20.558,19.885a14.433,14.433,0,0,1-1.074,5.834,9.014,9.014,0,0,1-3.018,3.827l4.172,3.274-2.1,1.941-4.93-3.915a10.024,10.024,0,0,1-2.438.29,8.93,8.93,0,0,1-4.9-1.356A8.962,8.962,0,0,1,2.96,25.912a13.87,13.87,0,0,1-1.212-5.817V18.41a14.283,14.283,0,0,1,1.171-5.957A8.93,8.93,0,0,1,6.234,8.5a8.893,8.893,0,0,1,4.9-1.372A9.038,9.038,0,0,1,16.1,8.49a8.8,8.8,0,0,1,3.3,3.923,14.412,14.412,0,0,1,1.157,5.978Zm-3.081-1.508a10.6,10.6,0,0,0-1.643-6.368A5.476,5.476,0,0,0,11.14,9.77,5.429,5.429,0,0,0,6.555,12a10.271,10.271,0,0,0-1.726,6.163v1.726a10.573,10.573,0,0,0,1.676,6.323,5.435,5.435,0,0,0,4.663,2.311,5.448,5.448,0,0,0,4.622-2.175,10.433,10.433,0,0,0,1.684-6.234ZM29.42,41.084H27.678V29.541l-3.492,1.282V29.252l4.961-1.863h.271ZM57.312,17.75H43.937V15.166H57.312Zm0,6.66H43.937V21.842H57.312Z" transform="translate(2146.626 4817.069)" fill="#12263f"/>
          <path id="Trazado_199091" data-name="Trazado 199091" d="M44.808,17.75H31.429V15.166H44.814Zm0,6.66H31.429V21.842H44.814Z" transform="translate(2333.557 4817.069)" fill="#12263f"/>
          <path id="Trazado_199088" data-name="Trazado 199088" d="M17.958,17.75H4.575V15.166H17.958Zm0,6.66H4.575V21.842H17.958Zm22.052,6.4H37.023V11.025l-5.986,2.2v-2.7l8.506-3.194h.466Zm9.067-1.557a1.859,1.859,0,0,1,.458-1.284,1.742,1.742,0,0,1,1.372-.514,1.8,1.8,0,0,1,1.389.514,1.822,1.822,0,0,1,.472,1.284,1.723,1.723,0,0,1-.472,1.233,1.828,1.828,0,0,1-1.389.5,1.643,1.643,0,0,1-1.83-1.734ZM58.731,19.1,59.919,7.446H71.89v2.744H62.441l-.707,6.368a7.541,7.541,0,0,1,3.9-1.011,6.446,6.446,0,0,1,5.055,2.118,8.27,8.27,0,0,1,1.878,5.7,7.983,7.983,0,0,1-1.949,5.69,7.107,7.107,0,0,1-5.448,2.079,7.4,7.4,0,0,1-5.055-1.717,6.855,6.855,0,0,1-2.231-4.749H60.7A4.725,4.725,0,0,0,62.133,27.7a4.441,4.441,0,0,0,3.048,1.027,4.006,4.006,0,0,0,3.25-1.411,5.9,5.9,0,0,0,1.179-3.9,5.419,5.419,0,0,0-1.276-3.763,4.341,4.341,0,0,0-3.394-1.419,4.9,4.9,0,0,0-3.048.85l-.787.643Z" transform="translate(2428.049 4817.069)" fill="#12263f"/>
          <path id="Trazado_199092" data-name="Trazado 199092" d="M11.709,30.813h-3V11.025l-5.986,2.2v-2.7l8.506-3.194h.475ZM34.675,19.788l3.841-6.339h3.467L36.3,22.035l5.856,8.778H38.726l-4.01-6.5-4.016,6.5H27.249l5.859-8.778-5.682-8.587H30.86Zm18.488,1.541a24.812,24.812,0,0,1,.972-6.966A20.234,20.234,0,0,1,57.03,8.3a12.325,12.325,0,0,1,3.979-3.852L61.626,6.4a12.781,12.781,0,0,0-3.843,5.489,23.794,23.794,0,0,0-1.643,8.264l-.016,1.364a23.917,23.917,0,0,0,2.26,10.752,12.843,12.843,0,0,0,3.244,4.271l-.616,1.814a12.72,12.72,0,0,1-4.076-3.979,22.306,22.306,0,0,1-3.782-13.048ZM73.7,19.1,74.892,7.446H86.863v2.744H77.414l-.707,6.368a7.541,7.541,0,0,1,3.9-1.011,6.446,6.446,0,0,1,5.049,2.118,8.27,8.27,0,0,1,1.878,5.7,7.983,7.983,0,0,1-1.949,5.69,7.107,7.107,0,0,1-5.448,2.079,7.4,7.4,0,0,1-5.055-1.717,6.855,6.855,0,0,1-2.231-4.749h2.808A4.725,4.725,0,0,0,77.1,27.7a4.441,4.441,0,0,0,3.048,1.027,4.006,4.006,0,0,0,3.25-1.411,5.9,5.9,0,0,0,1.179-3.9A5.419,5.419,0,0,0,83.3,19.648a4.341,4.341,0,0,0-3.394-1.434,4.9,4.9,0,0,0-3.048.85l-.787.643Zm34.038-.822h6.516v2.808h-6.526v7.383h-2.985V21.088H98.231V18.282h6.516V11.458h2.985ZM11.709,80.113h-3V60.325l-5.986,2.2v-2.7l8.506-3.194h.475Zm15.856-9.324a24.825,24.825,0,0,1-.939,6.861,20.287,20.287,0,0,1-2.876,6.058A12.586,12.586,0,0,1,19.7,87.656l-.616-1.814a12.9,12.9,0,0,0,3.973-5.881,25.445,25.445,0,0,0,1.532-8.851V70.6a26.419,26.419,0,0,0-.707-6.267,21.158,21.158,0,0,0-1.966-5.191,11.992,11.992,0,0,0-2.833-3.578l.616-1.814a12.53,12.53,0,0,1,4.036,3.915,20.336,20.336,0,0,1,2.876,6.05,25.4,25.4,0,0,1,.945,7.079Z" transform="translate(2214.414 4794.473)" fill="#12263f"/>
          <path id="Trazado_199089" data-name="Trazado 199089" d="M13.593,7.43V9.95h-.544A7.816,7.816,0,0,0,7.529,12a8.547,8.547,0,0,0-2.377,5.6,6.337,6.337,0,0,1,5.039-2.118,6.06,6.06,0,0,1,4.87,2.151,8.3,8.3,0,0,1,1.822,5.546,8.268,8.268,0,0,1-1.966,5.78,6.779,6.779,0,0,1-5.263,2.169,6.67,6.67,0,0,1-5.45-2.58,10.209,10.209,0,0,1-2.087-6.635v-1.14a15.382,15.382,0,0,1,2.753-9.86,10.109,10.109,0,0,1,8.192-3.492ZM9.69,17.958a4.737,4.737,0,0,0-2.808.914A4.766,4.766,0,0,0,5.1,21.158v1.091A7.664,7.664,0,0,0,6.4,26.91a3.9,3.9,0,0,0,3.242,1.765A3.776,3.776,0,0,0,12.8,27.2a6.126,6.126,0,0,0,1.148-3.868,6.128,6.128,0,0,0-1.163-3.893,3.73,3.73,0,0,0-3.089-1.479Z" transform="translate(2395.182 4794.473)" fill="#12263f"/>
          <path id="Trazado_199090" data-name="Trazado 199090" d="M31.953,22.966h3.242V25.39H31.953v5.423H28.964V25.388H18.327v-1.75L28.791,7.444h3.161Zm-10.255,0h7.266V11.5l-.353.643Z" transform="translate(2376.695 4841.719)" fill="#12263f"/>
          <path id="Trazado_199093" data-name="Trazado 199093" d="M0,0H145.847" transform="translate(2215.441 4838.638)" fill="none" stroke="#12263f" stroke-width="2.054"/>
        </g>
      </g>
    </g>
  </g>
</svg>
