<svg xmlns="http://www.w3.org/2000/svg" xmlns:xlink="http://www.w3.org/1999/xlink" width="373.813" height="378.845" viewBox="0 0 373.813 378.845">
  <defs>
    <clipPath id="clip-path">
      <circle id="Elipse_4711" data-name="Elipse 4711" cx="178.742" cy="178.742" r="178.742" transform="translate(701.484 83.742)" fill="none"/>
    </clipPath>
    <linearGradient id="linear-gradient" x1="0.5" y1="1.194" x2="0.5" gradientUnits="objectBoundingBox">
      <stop offset="0" stop-color="#122e7f"/>
      <stop offset="1" stop-color="#5a98c9"/>
    </linearGradient>
    <linearGradient id="linear-gradient-2" x1="0.5" y1="1" x2="0.5" gradientUnits="objectBoundingBox">
      <stop offset="0.016" stop-color="#f7b198"/>
      <stop offset="0.373" stop-color="#f6ae96"/>
      <stop offset="0.632" stop-color="#f4a493"/>
      <stop offset="0.86" stop-color="#f0948c"/>
      <stop offset="1" stop-color="#ee8787"/>
    </linearGradient>
    <linearGradient id="linear-gradient-3" x1="0.5" y1="1" x2="0.5" gradientUnits="objectBoundingBox">
      <stop offset="0" stop-color="#fee3d3"/>
      <stop offset="0.12" stop-color="#f7dbcf"/>
      <stop offset="0.296" stop-color="#e5c8c7"/>
      <stop offset="0.507" stop-color="#c8a7b9"/>
      <stop offset="0.745" stop-color="#9f7aa5"/>
      <stop offset="0.994" stop-color="#6d438e"/>
    </linearGradient>
    <linearGradient id="linear-gradient-4" y1="0.5" x2="1" y2="0.5" gradientUnits="objectBoundingBox">
      <stop offset="0.011" stop-color="#c3829b"/>
      <stop offset="1" stop-color="#6369ad"/>
    </linearGradient>
    <linearGradient id="linear-gradient-7" x1="0.5" y1="1" x2="0.5" gradientUnits="objectBoundingBox">
      <stop offset="0" stop-color="#122e7f"/>
      <stop offset="1" stop-color="#005497"/>
    </linearGradient>
    <linearGradient id="linear-gradient-8" x1="3.519" y1="6.411" x2="3.519" y2="5.525" xlink:href="#linear-gradient-2"/>
    <linearGradient id="linear-gradient-9" x1="0.5" y1="1" x2="0.5" gradientUnits="objectBoundingBox">
      <stop offset="0" stop-color="#122e7f"/>
      <stop offset="1" stop-color="#1964a1"/>
    </linearGradient>
    <linearGradient id="linear-gradient-10" x1="0.5" y1="1" x2="0.5" gradientUnits="objectBoundingBox">
      <stop offset="0" stop-color="#0062ad"/>
      <stop offset="1" stop-color="#0075be"/>
    </linearGradient>
    <linearGradient id="linear-gradient-11" x1="0.5" y1="1" x2="0.5" gradientUnits="objectBoundingBox">
      <stop offset="0" stop-color="#b6b3da"/>
      <stop offset="1" stop-color="#fff"/>
    </linearGradient>
    <linearGradient id="linear-gradient-13" x1="0.5" y1="1" x2="0.5" gradientUnits="objectBoundingBox">
      <stop offset="0" stop-color="#f07309"/>
      <stop offset="1" stop-color="#f5860f"/>
    </linearGradient>
    <linearGradient id="linear-gradient-14" x1="0.5" y1="1" x2="0.5" gradientUnits="objectBoundingBox">
      <stop offset="0" stop-color="#ffa600"/>
      <stop offset="1" stop-color="#ffdb10"/>
    </linearGradient>
    <linearGradient id="linear-gradient-15" x1="0" y1="0.5" x2="1" y2="0.5" xlink:href="#linear-gradient-14"/>
    <linearGradient id="linear-gradient-19" x1="0.5" y1="1" x2="0.5" gradientUnits="objectBoundingBox">
      <stop offset="0" stop-color="#4c4c1c"/>
      <stop offset="0.978" stop-color="#6f321d"/>
    </linearGradient>
    <linearGradient id="linear-gradient-21" x1="-22.91" y1="34.204" x2="-22.91" y2="32.92" gradientUnits="objectBoundingBox">
      <stop offset="0" stop-color="#e55157"/>
      <stop offset="1" stop-color="#e7716a"/>
    </linearGradient>
    <linearGradient id="linear-gradient-22" y1="0.5" x2="1" y2="0.5" gradientUnits="objectBoundingBox">
      <stop offset="0" stop-color="#e7716a"/>
      <stop offset="1" stop-color="#e55157"/>
    </linearGradient>
    <linearGradient id="linear-gradient-23" x1="0.5" y1="1" x2="0.5" gradientUnits="objectBoundingBox">
      <stop offset="0.011" stop-color="#bcbed1"/>
      <stop offset="0.983" stop-color="#9f5b70"/>
    </linearGradient>
    <linearGradient id="linear-gradient-24" x1="0.5" y1="1" x2="0.5" y2="0" xlink:href="#linear-gradient-4"/>
    <linearGradient id="linear-gradient-26" x1="0.5" y1="1" x2="0.5" gradientUnits="objectBoundingBox">
      <stop offset="0" stop-color="#e6dcee"/>
      <stop offset="1" stop-color="#fff"/>
    </linearGradient>
    <linearGradient id="linear-gradient-28" y1="0.5" x2="1" y2="0.5" gradientUnits="objectBoundingBox">
      <stop offset="0.006" stop-color="#6b539b"/>
      <stop offset="1" stop-color="#fee3d3"/>
    </linearGradient>
  </defs>
  <g id="Grupo_151993" data-name="Grupo 151993" transform="translate(11728.261 12512.337)">
    <circle id="Elipse_4711-2" data-name="Elipse 4711" cx="178.742" cy="178.742" r="178.742" transform="translate(-11728.261 -12512.337)" fill="#0f2771"/>
    <g id="Grupo_78300" data-name="Grupo 78300" transform="translate(-12429.745 -12596.079)">
      <path id="Trazado_113504" data-name="Trazado 113504" d="M1053.911,317.146a162.122,162.122,0,0,1-150.08,123.747,10.816,10.816,0,0,0-10.273,9.938v.008a10.826,10.826,0,0,0,11.2,11.74c81.6-3.56,151.3-61.331,170.26-140.4a10.822,10.822,0,0,0-8.1-12.988,10.711,10.711,0,0,0-1.594-.246h0A10.807,10.807,0,0,0,1053.911,317.146Z" fill="#4dd0e1"/>
    </g>
    <g id="Grupo_137219" data-name="Grupo 137219" transform="translate(-12429.745 -12596.079)">
      <g id="Grupo_137218" data-name="Grupo 137218" clip-path="url(#clip-path)">
        <g id="Grupo_137217" data-name="Grupo 137217">
          <path id="Trazado_194539" data-name="Trazado 194539" d="M892.231,486.069c2.184-25.2,4.259-48.335,4.259-48.335l8.94,1s3.018,20.027,8.328,47.334H962.59c1.141-19.473,1.976-40.411.162-57.48-1.569-14.876-9.827-33.711-18.311-49.793l-.637-1.183c-1.933-3.639-3.867-7.119-5.733-10.349v-.023c-7.665-13.284-14.1-22.656-14.1-22.656s-39.079-.66-53.159,1.706c0,0-11.487,31-19.4,55.912-1,3.162-1.934,6.21-2.8,9.076a141.953,141.953,0,0,0-4.368,17.31c-1.348,9.087,1,32.342,4.234,57.48Z" fill="#0c1d30" fill-rule="evenodd"/>
          <path id="Trazado_194540" data-name="Trazado 194540" d="M854.724,192.355s8.477,11.637,21.263,15.659,29.738,6.322,41.376,3.592,21.568-18.533,21.568-18.533-6.117,12.355-17,20.688h3.623s28.159-20.8,23.633-40.032-19.925-33.268-19.925-33.268l-31.39-20.372-32.944-3.949s-3.017-1.939-11.422,8.189S850.564,184.065,854.724,192.355Z" fill-rule="evenodd" fill="url(#linear-gradient)"/>
          <path id="Trazado_194541" data-name="Trazado 194541" d="M893.945,209.6s.575,11.493,0,14.079-12.5,11.349-12.5,11.349,1.831,10.344,11.632,10.775,24.716-14.223,24.716-14.223-5.6-7.183-6.465-10.774,1.149-22.125,1.149-22.125Z" fill-rule="evenodd" fill="url(#linear-gradient-2)"/>
          <path id="Trazado_194542" data-name="Trazado 194542" d="M894.13,212.779l.069,6.154s11.315,2.96,17.1-6.386l1.255-11.931Z" fill-rule="evenodd" opacity="0.39" fill="url(#linear-gradient-3)" style="mix-blend-mode: multiply;isolation: isolate"/>
          <path id="Trazado_194543" data-name="Trazado 194543" d="M954.995,411.916l-23.27-21.61a107.114,107.114,0,0,1-10.759,16.31c-6.437,7.961-15.536,32.119-15.536,32.119l-8.94-1-25.681-18.016,16.787,5.459L851.406,402.2c7.916-24.908,19.4-55.912,19.4-55.912,14.08-2.366,53.159-1.706,53.159-1.706s6.438,9.372,14.1,22.656v.023l5.733,10.349.637,1.183Z" fill-rule="evenodd" opacity="0.86" fill="url(#linear-gradient-4)" style="mix-blend-mode: multiply;isolation: isolate"/>
          <path id="Trazado_194544" data-name="Trazado 194544" d="M927.267,167s-5.846,21.337-13.762,32.346a.071.071,0,0,0-.023.046c-.318.432-.614.841-.932,1.228-8.394,10.555-26.364,16.2-32.62,13.375-4.3-1.933-19.971-24.02-19.744-30.845.136-4.458,2.343-7.37,2.8-13.17v-.023c.068-.682.091-1.387.091-2.161,0-7.324-4.185-21.063-4.185-22.769,0-1.729,0-12.511,5.595-21.132a24.98,24.98,0,0,1,6.756-6.62,57.576,57.576,0,0,1,13.512-6.733c5.869.25,11.328,3.481,16.241,8.3C917.008,134.562,927.267,167,927.267,167Z" fill-rule="evenodd" fill="url(#linear-gradient-2)"/>
          <path id="Trazado_194545" data-name="Trazado 194545" d="M913.505,199.345c.113-.5,1.524-6.187.546-16.218-1-10.532-5.739-21.66-5.739-21.66s-4.526,7.453-11.35,8.476-9.474-3.694-9.474-3.694a64.15,64.15,0,0,1-2.462-23.885l16.491,2.5c-.182-8.211-5.982-19.562-17.765-17.2-11.76,2.365-18.744,14.694-18.744,14.694a41.207,41.207,0,0,1,3.662,5.846c1.274,2.684,4.368,11.965,3.8,18.039-.546,6.073-4.323,7.438-6.643,7.506-2.206.091-2.8-3.435-2.843-3.776v-.023c.068-.682.091-1.387.091-2.161,0-7.324-4.185-21.063-4.185-22.769,0-1.729,0-12.511,5.595-21.132a24.98,24.98,0,0,1,6.756-6.62H891.6l9.394,1.57C917.008,134.562,927.267,167,927.267,167S921.421,188.336,913.505,199.345Z" fill-rule="evenodd" opacity="0.39" fill="url(#linear-gradient-3)" style="mix-blend-mode: multiply;isolation: isolate"/>
          <path id="Trazado_194546" data-name="Trazado 194546" d="M916,158.163l3.876,16.422,5.606-9.708Z" fill-rule="evenodd" fill="url(#linear-gradient-7)"/>
          <g id="Grupo_137214" data-name="Grupo 137214">
            <path id="Trazado_194547" data-name="Trazado 194547" d="M920.9,170.566s6.69-10.342,14.763-5.079-.551,22.854-7.076,24.29-9.675-5.408-9.675-5.408A46.159,46.159,0,0,1,920.9,170.566Z" fill-rule="evenodd" fill="url(#linear-gradient-8)"/>
            <path id="Trazado_194548" data-name="Trazado 194548" d="M931.338,173.729s1.442,5.742-4.073,12.539c0,0,2.845-7.176,1.052-11.479Z" fill="#d24e55" fill-rule="evenodd"/>
            <path id="Trazado_194549" data-name="Trazado 194549" d="M921.928,179.287s4.717-10.482,14.662-6.59C936.59,172.7,926.58,173.51,921.928,179.287Z" fill="#d24e55" fill-rule="evenodd"/>
          </g>
          <path id="Trazado_194550" data-name="Trazado 194550" d="M950.7,179.988s-2.365,3.594-11.76,3.161c-9.3-.409-23.088-15.649-27.979-28.478-.045-.137-.091-.251-.136-.387-3.458-9.418-5.664-19.426-8.189-25.068a13.443,13.443,0,0,0-1.388-2.57.07.07,0,0,1-.023-.045,4.886,4.886,0,0,0-1.592-1.615,55.179,55.179,0,0,0-7.8-3.754s.683-2.934-3.708-10.213c-4.412-7.279-16.605-12.807-20.608-10.168-9.486,6.233-21.542,47.61-19.4,63.146,2.161,15.536,13.148,38.556,13.148,38.556-12.01-8.621-17.015-27-17.015-27a63.578,63.578,0,0,0,10.555,28.729h-2.161c-14.649-20.472-11.192-37.509-9.258-48.928s-5.823-23.27-4.322-29.3c1.524-6.028,23.293-28.025,31.05-27.592s14.217,5.823,28.434,14.671c14.216,8.826,32.118,15.082,40.4,23.043,3.458,3.344,5.823,10.418,7.37,17.538.5,2.161.91,4.345,1.251,6.415v.068c1.229,7.416,1.638,13.534,1.638,13.534a46.921,46.921,0,0,1-26.023-7.37.231.231,0,0,0-.09-.045c-.365-.25-.592-.432-.729-.524a2.128,2.128,0,0,0,.228.228c15.354,14.081,27.251,10.964,27.251,10.964Z" fill-rule="evenodd" fill="url(#linear-gradient-9)"/>
          <path id="Trazado_194551" data-name="Trazado 194551" d="M892.508,119.589s-3.879-3.089-18.245,1.221-17.527,16.012-20.4,30.561-1.216,29.989-1.216,29.989-9.127-19.749-5.392-43.023,13.253-40.19,25.428-38.682S891.646,113.986,892.508,119.589Z" fill-rule="evenodd" fill="url(#linear-gradient-10)"/>
          <path id="Trazado_194552" data-name="Trazado 194552" d="M927.267,312.966c-2.434,14.718-2.434,19.267-2.434,19.267s3,.046,4.094,2.343c1.069,2.3-1.66,4.891-1.66,4.891a143.27,143.27,0,0,1-20.176,5.914,128.05,128.05,0,0,1-14.013,2.275c-18.243,1.865-22.269-1.365-22.269-1.365s2.934-2.593,4.64-8.257a27.981,27.981,0,0,0,1.115-5.8c.864-9.713-7.143-33.574-7.143-33.574a12.243,12.243,0,0,1-1.524-.364h-.068c-2.98-.819-9.053-3.162-8.939-8.689.136-7.325-16.515-10.191-16.515-10.191l8.667-29.708s26.523-14.262,30.412-18.129l2.434,1.433s1.3,9.485,10.054,10.486,20.041-11.692,21.087-15.763H917.8s2.616,3.707,9.463,9.735c6.824,6.028,23.429,9.479,23.429,9.479s2.87,30.457-16.719,38.267C930.929,296.475,928.2,307.325,927.267,312.966Z" fill-rule="evenodd" fill="url(#linear-gradient-11)"/>
          <path id="Trazado_194553" data-name="Trazado 194553" d="M916,236.776l-20.451,14.769,2.133,27.6-14.223,11.192H871.044s8.712-38.758,5.881-47.051c-2.366-6.932-17.28,1.7-17.28,1.7l17.28-10.119,13.569,10.555Z" fill-rule="evenodd" opacity="0.5" fill="url(#linear-gradient-4)" style="mix-blend-mode: multiply;isolation: isolate"/>
          <g id="Grupo_137215" data-name="Grupo 137215">
            <path id="Trazado_194554" data-name="Trazado 194554" d="M887.6,282.131s3.611.374,12.016-3.936l-4.839-31.247-4.212,3.663Z" fill-rule="evenodd" fill="url(#linear-gradient-13)"/>
            <path id="Trazado_194555" data-name="Trazado 194555" d="M915.022,227.737h2.772l3.18,3.691s-8.405,12.072-26.193,16.6l-.98,4.813-7.9.718-2.586-7.748s-5.594-6.211-6.389-10.94c0,0,4.013-5.3,10.157-4.225l-2.332,1.794s3.161,7.225,6.178,8.21S908.659,234.818,915.022,227.737Z" fill-rule="evenodd" fill="url(#linear-gradient-14)"/>
            <path id="Trazado_194556" data-name="Trazado 194556" d="M886.618,251.545s-13.936,20.461-15.8,40.8c0,0,8.045.862,12.642-2.011l10.344-37.5Z" fill-rule="evenodd" fill="url(#linear-gradient-15)"/>
          </g>
          <path id="Trazado_194557" data-name="Trazado 194557" d="M928.927,334.576c1.069,2.3-1.66,4.891-1.66,4.891a143.27,143.27,0,0,1-20.176,5.914l-27.161-.887-4.481-6.46-4.276-6.165L867.829,298.3h.068c1.684.2,33.241,2.8,46.313-4.231,13.468-7.249,19.44-21.657,19.44-21.657l.327,12.808c-3.048,11.26-5.777,22.11-6.71,27.751-2.434,14.718-2.434,19.267-2.434,19.267S927.835,332.279,928.927,334.576Z" fill-rule="evenodd" opacity="0.3" fill="url(#linear-gradient-4)" style="mix-blend-mode: multiply;isolation: isolate"/>
          <path id="Trazado_194558" data-name="Trazado 194558" d="M784.037,265.387s45.38-14.575,83.34-15.482l13.077,73.821L820.361,265.7Z" fill="#b37b0e" fill-rule="evenodd"/>
          <path id="Trazado_194559" data-name="Trazado 194559" d="M784.037,265.387S814.5,350.9,831.163,382.343c0,0,39.652,5.727,66.086-1.091L860.615,251.545S815.648,256.43,784.037,265.387Z" fill="#feca2e" fill-rule="evenodd"/>
          <path id="Trazado_194560" data-name="Trazado 194560" d="M800.436,309.678,816.689,333l5.337-1.119,12.209,28.173,6.571-3.093,2.342-15.4,38.261-9.677,7.7,20.534,8.145,28.839s-35.638,6.791-66.086,1.091C831.163,382.343,803.2,316.965,800.436,309.678Z" fill-rule="evenodd" opacity="0.5" fill="url(#linear-gradient-4)" style="mix-blend-mode: multiply;isolation: isolate"/>
          <path id="Trazado_194561" data-name="Trazado 194561" d="M805.7,315.763s-7.112-2.8-8.944-1.616-1.185,4.418,0,5.711,8.513,4.633,8.513,4.633-2.371,3.663-2.048,5.711,2.479,3.878,2.479,3.878.323,4.849,1.185,6.9,5.172,2.048,5.172,2.048-2.478,2.909-2.047,5.064,6.9,2.37,9.482.754-.108-3.771-1.94-3.771-2.37-.853-2.37-.853l-.755-1.733s5.927-1.078,7-2.586-2.047-3.125-4.741-3.34c0,0,5.28.323,6.788-.431,0,0,.431-3.879-2.8-5.064s-11.122-2.263-11.122-2.263l-1.485-3.987s4.31-.121,5.064-1.353S812.595,318.349,805.7,315.763Z" fill-rule="evenodd" fill="url(#linear-gradient-2)"/>
          <path id="Trazado_194562" data-name="Trazado 194562" d="M883.348,137.537a13.622,13.622,0,0,0,2.069,5.421s3.828.368,8.986,1.034a25.652,25.652,0,0,1,9.2,3.178S898.1,138.85,883.348,137.537Z" fill="#192b7c" fill-rule="evenodd"/>
          <path id="Trazado_194563" data-name="Trazado 194563" d="M887.444,163.994a8.922,8.922,0,0,0,6.034,4.944c4.418.969,9.913-3.125,10.344-9.267,0,0-4.633-7.758-11.314-7.435S887.444,163.994,887.444,163.994Z" fill="#fff" fill-rule="evenodd"/>
          <path id="Trazado_194564" data-name="Trazado 194564" d="M872.477,166.646a9.8,9.8,0,0,1-3.335,4.4,4.867,4.867,0,0,1-2.255.778c-3.285.219-3.7-5.881-3.7-5.881a18.441,18.441,0,0,1,2.646-10.482,4.485,4.485,0,0,1,2.55,2.066,18.36,18.36,0,0,1,1.421,2.359,48.455,48.455,0,0,1,2.207,5.276C872.3,166.063,872.477,166.646,872.477,166.646Z" fill="#fff" fill-rule="evenodd"/>
          <path id="Trazado_194565" data-name="Trazado 194565" d="M903.532,159.674c0,3.631-2.62,6.575-5.852,6.575s-5.852-2.944-5.852-6.575,2.621-6.576,5.852-6.576S903.532,156.042,903.532,159.674Z" fill-rule="evenodd" fill="url(#linear-gradient-19)"/>
          <path id="Trazado_194566" data-name="Trazado 194566" d="M901.23,159.674a3.574,3.574,0,1,1-3.55-3.989A3.789,3.789,0,0,1,901.23,159.674Z" fill="#2a171a" fill-rule="evenodd"/>
          <path id="Trazado_194567" data-name="Trazado 194567" d="M872.477,166.646a9.8,9.8,0,0,1-3.335,4.4c-1.887-.486-3.309-3.4-3.309-6.93,0-3.039,1.054-5.616,2.55-6.589a18.36,18.36,0,0,1,1.421,2.359,48.455,48.455,0,0,1,2.207,5.276C872.3,166.063,872.477,166.646,872.477,166.646Z" fill-rule="evenodd" fill="url(#linear-gradient-19)"/>
          <path id="Trazado_194568" data-name="Trazado 194568" d="M872.011,165.163c-.245,1.848-1.177,3.21-2.28,3.21-1.3,0-2.354-1.9-2.354-4.256s1.055-4.254,2.354-4.254a.09.09,0,0,1,.073.024A48.455,48.455,0,0,1,872.011,165.163Z" fill="#2a171a" fill-rule="evenodd"/>
          <path id="Trazado_194569" data-name="Trazado 194569" d="M872.478,166.658s-2.338-12.557-6.637-12.923c-3.829-.325-4.477,7.9-4.557,11.323l1.9.886s.093-8.607,2.654-9.56C868.936,155.232,872.478,166.658,872.478,166.658Z" fill="#2e161e" fill-rule="evenodd"/>
          <path id="Trazado_194570" data-name="Trazado 194570" d="M887.444,163.994s-1.006-9.117,3.34-12.189c4.763-3.365,12.068,1.617,14.546,4.526l-1.508,3.34s-5.6-8.3-11.314-6.357C886.521,155.351,887.444,163.994,887.444,163.994Z" fill="#2e161e" fill-rule="evenodd"/>
          <g id="Grupo_137216" data-name="Grupo 137216">
            <path id="Trazado_194571" data-name="Trazado 194571" d="M867.377,179.917s9.8-3.925,15.453-1.861c0,0-3.255,3.888-6.683,4.991C876.147,183.047,870.308,183.872,867.377,179.917Z" fill-rule="evenodd" fill="url(#linear-gradient-21)"/>
            <path id="Trazado_194572" data-name="Trazado 194572" d="M878.349,181.986s1.651-4.219,4.481-3.93A16.673,16.673,0,0,1,878.349,181.986Z" fill="#a94141" fill-rule="evenodd"/>
            <path id="Trazado_194573" data-name="Trazado 194573" d="M882.83,178.056c.545.089-.873-4.247-2.256-4.984a9.316,9.316,0,0,0-8.774.114c-3.533,2.121-4.423,6.731-4.423,6.731S879.2,177.829,882.83,178.056Z" fill="#ef8577" fill-rule="evenodd"/>
            <path id="Trazado_194574" data-name="Trazado 194574" d="M866.659,147.17s6.19,13.426,5.505,20.244c-.295,2.928-3.949,10.042-3.949,10.042s4.216-5.524,4.976-10.006-1.927-12.787-1.927-12.787Z" fill="#d56354" fill-rule="evenodd"/>
            <path id="Trazado_194575" data-name="Trazado 194575" d="M881.68,173.759a6.8,6.8,0,0,1,1.15,4.3S885.553,176.489,881.68,173.759Z" fill="#d56354" fill-rule="evenodd"/>
          </g>
          <path id="Trazado_194576" data-name="Trazado 194576" d="M874.559,196.978v4.5a11.916,11.916,0,0,0,12.713-2.289c5.991-5.469,4.369-16.07,4.369-16.07Z" fill-rule="evenodd" fill="url(#linear-gradient-22)"/>
          <path id="Trazado_194577" data-name="Trazado 194577" d="M859.619,149.435s-.944-3.34,2.181-4.2,9.374,9.589,9.374,9.589-3.879-12.506-8.081-14.845-4.2,5.04-4.2,5.04S858.623,148.465,859.619,149.435Z" fill="#192b7c" fill-rule="evenodd"/>
          <path id="Trazado_194578" data-name="Trazado 194578" d="M871.148,190.616l4.185,7.807A15.837,15.837,0,0,0,891.6,181.675l-1.722-.076s-1.963,2.688-7.879,5.578A39.734,39.734,0,0,1,871.148,190.616Z" fill="#fff" fill-rule="evenodd"/>
          <path id="Trazado_194579" data-name="Trazado 194579" d="M871.148,190.616l-1.155-1.422s3.174-1.077,10.124-2.855,9.765-4.74,9.765-4.74-3.067,3.8-9.945,6.507S871.148,190.616,871.148,190.616Z" fill="#a94141" fill-rule="evenodd"/>
          <path id="Trazado_194580" data-name="Trazado 194580" d="M887.767,181.765a45.605,45.605,0,0,1,5.639.238s-1.949-1.8-3.524-1.844A2.325,2.325,0,0,0,887.767,181.765Z" fill="#ed7356" fill-rule="evenodd"/>
          <path id="Trazado_194581" data-name="Trazado 194581" d="M889.882,181.6l-.5,4.51,2.163-1.439.057-3Z" fill="#a94141" fill-rule="evenodd"/>
          <path id="Trazado_194582" data-name="Trazado 194582" d="M947.557,160.13v.068a68.994,68.994,0,0,1-29.753-4.5s2.707,6.96,5.368,10.668a.231.231,0,0,0-.09-.045c-.091-.046-.251-.159-.5-.3a41.469,41.469,0,0,1-11.624-11.35c-.045-.137-.091-.251-.136-.387-3.458-9.418-5.664-19.426-8.189-25.068,2.434,4.368,7.757,13.239,13.375,18.608,7.666,7.324,30.3,5.891,30.3,5.891Z" fill-rule="evenodd" fill="url(#linear-gradient-23)" style="mix-blend-mode: multiply;isolation: isolate"/>
          <path id="Trazado_194583" data-name="Trazado 194583" d="M906.444,333c-2.62.059,2.586,20.257,2.586,20.257h5.244v-9.632l-3.376-7.7S912.837,332.859,906.444,333Z" fill-rule="evenodd" fill="url(#linear-gradient-24)"/>
          <path id="Trazado_194584" data-name="Trazado 194584" d="M917.645,352.387s-13.216-6.892-16.082-6.733c-2.662.136-22.292,13.762-28.343,16.742a11.861,11.861,0,0,1-1.183.5c-3.98,1.183-10.873,2.571-11.851,2.457a1.93,1.93,0,0,1-1.41-1.183c1.092-3.116,9.053-4.3,9.053-4.3a58.766,58.766,0,0,0,7.12-4.754,87.49,87.49,0,0,1-14.763,3.025c-7.871.864-13.785,1.3-14.649.546a2.482,2.482,0,0,1-.864-1.729,23.709,23.709,0,0,1-3.867,0c-.865-.205-.546-2.161.955-4.094s4.527-3.458,12.829-6.46a52.966,52.966,0,0,0,13.353-7.007s-9.258,1.82-16.492,3.026c-7.211,1.183-10.122,2.252-10.555,1.615-.431-.66.319-4.436,7.507-6.438s10.782-.864,17.538-3.889a54.8,54.8,0,0,0,14.513-9.986c.272-.319.409-.5.409-.5a1.975,1.975,0,0,0,.591-1.137c-.159-1.592-2-4.019-2-4.019l-1.187-6.7s11.515,2.668,13.517,4.26c2.024,1.569,3.889,10.191,9.053,15.65,5.186,5.459,12.943,6.323,12.943,6.323C916.781,341.332,917.645,352.387,917.645,352.387Z" fill-rule="evenodd" fill="url(#linear-gradient-2)"/>
          <path id="Trazado_194585" data-name="Trazado 194585" d="M983.884,364.466c0,.614-1.069,1.979-3.276,3.525-2.979,2.116-8.1,4.5-15.558,5.664-12.921,2.025-38.488-2-39.921-4.458-1.456-2.434-5.619-13.216-5.619-13.216a20.136,20.136,0,0,1-5.892-.683.178.178,0,0,0-.068-.022,13.622,13.622,0,0,1-4.526-2.025h1.728c4.027-9.9-.568-19.107-.568-19.107l-3.731-1.137a20.845,20.845,0,0,1,8.462,0l1.729,2.3.614-1,.546-.864s4.595,3.594,13.785,4.822c4.913.66,9.963.956,13.58,1.092,3.139.114,5.232.114,5.232.114s-2-5.164-1-5.755c1-.569,5.027,1.729,5.027,1.729-6.824-19.381-22.178-38.375-24.749-41.536a1.945,1.945,0,0,0-.2-.228,1.014,1.014,0,0,0-.159-.159.3.3,0,0,0-.045-.069c.318-27.068,21.427-46.5,21.427-46.5,4.754,2.343,14.536,37.926,22.087,57.1C983.884,332.233,983.884,363.033,983.884,364.466Z" fill-rule="evenodd" fill="url(#linear-gradient-26)"/>
          <path id="Trazado_194586" data-name="Trazado 194586" d="M983.884,364.466l-3.276,3.525c-2.979,2.116-8.1,4.5-15.558,5.664-12.921,2.025-38.488-2-39.921-4.458-1.456-2.434-5.619-13.216-5.619-13.216a23.363,23.363,0,0,1-2.889-.114,4.141,4.141,0,0,0,2.753-1.023c2.161-2.025-2.116-20.541-2.116-20.541s4.845,8.8,6.71,15.6,4.163,9.394,4.163,9.394,19.54,2.866,26.864-1.16l-9.826-18.789c3.139.114,5.232.114,5.232.114s-2-5.164-1-5.755c1-.569,5.027,1.729,5.027,1.729-6.824-19.381-22.178-38.375-24.749-41.536,2.571,2.615,16.975,22.881,25.756,36.916C965.147,346.335,983.884,364.466,983.884,364.466Z" fill-rule="evenodd" opacity="0.3" fill="url(#linear-gradient-4)" style="mix-blend-mode: multiply;isolation: isolate"/>
          <path id="Trazado_194587" data-name="Trazado 194587" d="M844.668,356.959s15.516-4.417,18.1-5.423,9.05-3.3,9.05-3.3a57.877,57.877,0,0,1-9.05,4.361C857.6,354.553,844.668,356.959,844.668,356.959Z" fill="#d24e55" fill-rule="evenodd"/>
          <path id="Trazado_194588" data-name="Trazado 194588" d="M868.375,333.007s-1.524,2.957-.546,5.254c.978,2.32.523,5.8,1.843,8.03,1.319,2.252,2.138,1.933,2.138,1.933a22.144,22.144,0,0,0,2.366,5.027l1.318,1.775s-3.57,3.776-3.138,5.049c.227.683.568,1.615.864,2.321a11.861,11.861,0,0,1-1.183.5c-3.98,1.183-10.873,2.571-11.851,2.457a1.93,1.93,0,0,1-1.41-1.183c1.092-3.116,9.053-4.3,9.053-4.3a58.766,58.766,0,0,0,7.12-4.754,87.49,87.49,0,0,1-14.763,3.025c-7.871.864-13.785,1.3-14.649.546a2.482,2.482,0,0,1-.864-1.729,23.709,23.709,0,0,1-3.867,0c-.865-.205-.546-2.161.955-4.094s4.527-3.458,12.829-6.46a52.966,52.966,0,0,0,13.353-7.007s-9.258,1.82-16.492,3.026c-7.211,1.183-10.122,2.252-10.555,1.615-.431-.66.319-4.436,7.507-6.438s10.782-.864,17.538-3.889a54.8,54.8,0,0,0,14.513-9.986A40.042,40.042,0,0,1,868.375,333.007Z" fill-rule="evenodd" opacity="0.5" fill="url(#linear-gradient-28)" style="mix-blend-mode: multiply;isolation: isolate"/>
          <path id="Trazado_194589" data-name="Trazado 194589" d="M805.268,324.491l2.8.323,1.485,3.987-6.334,1.4A10.822,10.822,0,0,1,805.268,324.491Z" fill="#d24e55" fill-rule="evenodd"/>
          <path id="Trazado_194590" data-name="Trazado 194590" d="M805.7,334.813l10.99,1.746s-10.092-.481-10.882-.873S805.7,334.813,805.7,334.813Z" fill="#d24e55" fill-rule="evenodd"/>
          <path id="Trazado_194591" data-name="Trazado 194591" d="M814.426,342.485l-2.371.539-1.509,2.357,4.634-1.162Z" fill="#d24e55" fill-rule="evenodd"/>
        </g>
      </g>
    </g>
  </g>
</svg>
