<svg xmlns="http://www.w3.org/2000/svg" xmlns:xlink="http://www.w3.org/1999/xlink" width="97.074" height="119.821" viewBox="0 0 97.074 119.821">
  <defs>
    <linearGradient id="linear-gradient" x1="1.138" y1="1.288" x2="-0.34" y2="-0.537" gradientUnits="objectBoundingBox">
      <stop offset="0.106" stop-color="#8bc08a"/>
      <stop offset="0.397" stop-color="#77bea8"/>
      <stop offset="0.732" stop-color="#65bdc5"/>
      <stop offset="0.924" stop-color="#5fbdd0"/>
    </linearGradient>
    <linearGradient id="linear-gradient-2" x1="1.029" y1="0.168" x2="0.003" y2="0.989" gradientUnits="objectBoundingBox">
      <stop offset="0" stop-color="#34acae"/>
      <stop offset="0.382" stop-color="#347fa9"/>
      <stop offset="0.737" stop-color="#355ba6"/>
      <stop offset="0.796" stop-color="#3d5ba5"/>
      <stop offset="0.89" stop-color="#555ba4"/>
      <stop offset="1" stop-color="#7a5da2"/>
    </linearGradient>
    <radialGradient id="radial-gradient" cx="0.76" cy="-0.83" r="2.142" gradientTransform="translate(0.311) scale(0.378 1)" gradientUnits="objectBoundingBox">
      <stop offset="0" stop-color="#fff"/>
      <stop offset="1"/>
    </radialGradient>
    <radialGradient id="radial-gradient-2" cx="0.46" cy="0.703" r="1.07" gradientTransform="translate(0.325) scale(0.349 1)" xlink:href="#radial-gradient"/>
    <linearGradient id="linear-gradient-3" x1="41.42" y1="11.819" x2="41.812" y2="11.819" gradientUnits="objectBoundingBox">
      <stop offset="0" stop-color="#1f3787"/>
      <stop offset="0.079" stop-color="#273c8b"/>
      <stop offset="0.227" stop-color="#334391"/>
      <stop offset="0.399" stop-color="#223484"/>
      <stop offset="0.509" stop-color="#222675"/>
      <stop offset="0.626" stop-color="#231d6b"/>
      <stop offset="0.869" stop-color="#3a277a"/>
      <stop offset="1" stop-color="#2b1c71"/>
    </linearGradient>
    <linearGradient id="linear-gradient-4" x1="0.685" y1="-0.502" x2="0.41" y2="0.986" gradientUnits="objectBoundingBox">
      <stop offset="0" stop-color="#1f3787"/>
      <stop offset="0.571" stop-color="#223484"/>
      <stop offset="0.702" stop-color="#283988"/>
      <stop offset="1" stop-color="#334391"/>
    </linearGradient>
    <linearGradient id="linear-gradient-5" x1="124.306" y1="44.493" x2="125.001" y2="44.493" gradientUnits="objectBoundingBox">
      <stop offset="0" stop-color="#a6b1dc"/>
      <stop offset="0.106" stop-color="#dee4f5"/>
      <stop offset="0.172" stop-color="#fff"/>
      <stop offset="0.404" stop-color="#d5daf0"/>
      <stop offset="0.702" stop-color="#9ba7d6"/>
      <stop offset="0.912" stop-color="#a5b0db"/>
      <stop offset="1" stop-color="#acb6de"/>
    </linearGradient>
    <clipPath id="clip-path">
      <ellipse id="Elipse_5052" data-name="Elipse 5052" cx="19.762" cy="34.231" rx="19.762" ry="34.231" transform="translate(683.257 319.906) rotate(-30.311)" fill="none"/>
    </clipPath>
    <linearGradient id="linear-gradient-6" x1="1.138" y1="1.288" x2="-0.34" y2="-0.537" gradientUnits="objectBoundingBox">
      <stop offset="0.01" stop-color="#5fbdd0"/>
      <stop offset="0.522" stop-color="#5f90be"/>
      <stop offset="1" stop-color="#5f6cb0"/>
    </linearGradient>
    <linearGradient id="linear-gradient-7" x1="1.035" y1="0.201" x2="0.002" y2="0.991" gradientUnits="objectBoundingBox">
      <stop offset="0" stop-color="#34acae"/>
      <stop offset="0.34" stop-color="#347fa9"/>
      <stop offset="0.657" stop-color="#355ba6"/>
      <stop offset="0.733" stop-color="#3d5ba5"/>
      <stop offset="0.856" stop-color="#555ba4"/>
      <stop offset="1" stop-color="#7a5da2"/>
    </linearGradient>
    <radialGradient id="radial-gradient-3" cx="0.76" cy="-0.83" r="2.142" xlink:href="#radial-gradient"/>
    <radialGradient id="radial-gradient-4" cx="0.46" cy="0.703" r="1.048" gradientTransform="translate(0.322) scale(0.357 1)" xlink:href="#radial-gradient"/>
    <linearGradient id="linear-gradient-8" x1="0.127" y1="0.062" x2="0.704" y2="1.009" gradientUnits="objectBoundingBox">
      <stop offset="0" stop-color="#8594ca"/>
      <stop offset="0.106" stop-color="#dee4f5"/>
      <stop offset="0.404" stop-color="#d5daf0"/>
      <stop offset="0.702" stop-color="#9ba7d6"/>
      <stop offset="0.912" stop-color="#a5b0db"/>
      <stop offset="1" stop-color="#acb6de"/>
    </linearGradient>
    <radialGradient id="radial-gradient-5" cx="0.502" cy="0.359" r="0.508" gradientTransform="matrix(1.495, 0.505, -0.874, 0.863, 0.142, -0.139)" gradientUnits="objectBoundingBox">
      <stop offset="0.005" stop-color="#55bef0"/>
      <stop offset="1" stop-color="#355ba6"/>
    </radialGradient>
    <radialGradient id="radial-gradient-6" cx="0.496" cy="0.361" r="0.508" gradientTransform="matrix(1.495, 0.505, -0.874, 0.863, 0.147, -0.137)" gradientUnits="objectBoundingBox">
      <stop offset="0.485" stop-color="#fff"/>
      <stop offset="1" stop-color="#9ba7d6"/>
    </radialGradient>
    <linearGradient id="linear-gradient-9" x1="0.273" y1="-0.011" x2="0.914" y2="0.908" gradientUnits="objectBoundingBox">
      <stop offset="0" stop-color="#8594ca"/>
      <stop offset="0.106" stop-color="#dee4f5"/>
      <stop offset="0.172" stop-color="#fff"/>
      <stop offset="0.404" stop-color="#d5daf0"/>
      <stop offset="0.702" stop-color="#9ba7d6"/>
      <stop offset="0.912" stop-color="#a5b0db"/>
      <stop offset="1" stop-color="#acb6de"/>
    </linearGradient>
    <linearGradient id="linear-gradient-10" x1="0.065" y1="0.609" x2="0.725" y2="0.444" gradientUnits="objectBoundingBox">
      <stop offset="0" stop-color="#9ba7d6"/>
      <stop offset="0.126" stop-color="#a1acd9"/>
      <stop offset="0.302" stop-color="#b3bde1"/>
      <stop offset="0.509" stop-color="#d1d8ef"/>
      <stop offset="0.581" stop-color="#dee4f5"/>
      <stop offset="0.885" stop-color="#edeef9"/>
      <stop offset="1" stop-color="#f5f4fb"/>
    </linearGradient>
    <radialGradient id="radial-gradient-7" cx="0.65" cy="0.194" r="0.424" gradientTransform="translate(-0.257) scale(1.514 1)" xlink:href="#radial-gradient"/>
    <radialGradient id="radial-gradient-8" cx="0.531" cy="0.419" r="0.462" gradientTransform="translate(-0.096) scale(1.192 1)" xlink:href="#radial-gradient"/>
  </defs>
  <g id="Grupo_151995" data-name="Grupo 151995" transform="translate(-676.88 -299.958)">
    <g id="Grupo_135709" data-name="Grupo 135709">
      <path id="Trazado_194166" data-name="Trazado 194166" d="M693.136,393.3c16.357,18.219,34.15,13.077,50.341,8.485s36.128.059,28.984-27.07-34.17-58.664-60.308-52.3-11.6,27.977-10.068,48.1S685.894,385.228,693.136,393.3Z" fill="#feca2e"/>
      <path id="Trazado_194167" data-name="Trazado 194167" d="M696.572,380.667c2.827,1.887-4.273,7.6-9.016,6.182s-9.213-5.952-7.672-9.551,8.488-.952,11.527.983S695.52,379.963,696.572,380.667Z" fill="#feca2e"/>
      <path id="Trazado_194168" data-name="Trazado 194168" d="M720.6,408.7c-5.545,2.88,6.1,12.638,18.253,10.868s17.772-9.124,15.412-14.327-8.443-2.829-17.2-.1S723.718,407.08,720.6,408.7Z" fill="#feca2e"/>
    </g>
    <g id="Grupo_137228" data-name="Grupo 137228">
      <g id="Grupo_137220" data-name="Grupo 137220">
        <path id="Trazado_194592" data-name="Trazado 194592" d="M727.887,353.743l6.051-3.458,23.007-19.1-6.051,3.458Z" fill="#00608f"/>
        <path id="Trazado_194593" data-name="Trazado 194593" d="M684.038,355.736l6.051-3.458,25.394-18.272-6.051,3.458Z" fill="#0f3f8e"/>
        <path id="Trazado_194594" data-name="Trazado 194594" d="M709.8,327.7l6.051-3.458,18.249,16.1-6.051,3.458Z" fill="url(#linear-gradient)"/>
        <path id="Trazado_194595" data-name="Trazado 194595" d="M741.109,324.744l6.051-3.458L771,313.8l-6.051,3.458Z" fill="#49b4bf"/>
        <path id="Trazado_194596" data-name="Trazado 194596" d="M755.182,339.049l6.051-3.458L771,313.8l-6.051,3.458Z" fill="#00738e"/>
        <path id="Trazado_194597" data-name="Trazado 194597" d="M741.109,324.744l4.334,4.344.149.152-17.545,14.567L709.8,327.7,676.88,351.43l7.157,4.306,25.394-18.272,18.465,16.3,23.007-19.1.089.091,4.189,4.289,9.77-21.788Z" fill="url(#linear-gradient-2)"/>
        <path id="Trazado_194598" data-name="Trazado 194598" d="M764.781,317.629l5.874-3.6-6.107,3.36-23.44,7.356.439.44Z" fill="url(#radial-gradient)" style="mix-blend-mode: color-dodge;isolation: isolate"/>
        <path id="Trazado_194599" data-name="Trazado 194599" d="M709.8,328.281l18.249,16.1,17.545-14.567-.149-.152-.165-.166-17.231,14.306L709.8,327.7,676.88,351.43l.438.264Z" fill="url(#radial-gradient-2)" style="mix-blend-mode: color-dodge;isolation: isolate"/>
      </g>
      <g id="Grupo_137221" data-name="Grupo 137221">
        <path id="Trazado_194600" data-name="Trazado 194600" d="M760.969,404.963a4.166,4.166,0,1,1-5.643-1.691A4.166,4.166,0,0,1,760.969,404.963Z" fill="#21163b"/>
        <path id="Trazado_194601" data-name="Trazado 194601" d="M744.448,372.7l-9.018,4.859,16.792,30.882h0a.411.411,0,0,0,.018.037c.781,1.45,3.433,1.538,5.924.2s3.875-3.605,3.094-5.055c-.007-.012-.015-.023-.021-.035h0Z" fill="url(#linear-gradient-3)"/>
        <path id="Trazado_194602" data-name="Trazado 194602" d="M744.458,372.723c.781,1.45-.6,3.714-3.094,5.056s-5.142,1.254-5.924-.2.6-3.714,3.094-5.056S743.677,371.273,744.458,372.723Z" fill="url(#linear-gradient-4)"/>
        <path id="Trazado_194603" data-name="Trazado 194603" d="M739.154,367.362l-5.364,2.891,3.2,5.837h0l.011.022c.465.862,2.042.914,3.523.116s2.306-2.144,1.841-3.007l-.013-.021h0Z" fill="url(#linear-gradient-5)"/>
      </g>
      <g id="Grupo_137227" data-name="Grupo 137227">
        <g id="Grupo_137225" data-name="Grupo 137225">
          <g id="Grupo_137224" data-name="Grupo 137224" clip-path="url(#clip-path)">
            <rect id="Rectángulo_42771" data-name="Rectángulo 42771" width="55.953" height="75.537" transform="translate(689.426 304.662)" fill="#fff"/>
            <g id="Grupo_137223" data-name="Grupo 137223">
              <g id="Grupo_137222" data-name="Grupo 137222" opacity="0.2">
                <path id="Trazado_194604" data-name="Trazado 194604" d="M684.077,367.566a4.411,4.411,0,0,0,2.2-.529l4.15-3.006a2.325,2.325,0,0,0,1.261-2.009,2.706,2.706,0,0,0-1.518-2.281l-14.129-8.635a5.408,5.408,0,0,0-2.669-.679,4.4,4.4,0,0,0-2.2.53l-4.324,2.9a2.326,2.326,0,0,0-1.261,2.009,2.7,2.7,0,0,0,1.519,2.28l14.3,8.738A5.409,5.409,0,0,0,684.077,367.566Z" fill="#9ba7d6" opacity="0"/>
                <path id="Trazado_194605" data-name="Trazado 194605" d="M667.05,353.8a2.327,2.327,0,0,0-1.256,1.948,2.564,2.564,0,0,0,1.385,2.212c-.042.024,7.029,4.384,7.078,4.413l5.1,3.106c.008.005,1.55.946,1.559.949a5.286,5.286,0,0,0,2.582.656,4.3,4.3,0,0,0,2.128-.5c.025,0,4-2.868,4.02-2.878a2.33,2.33,0,0,0,1.256-1.949,2.564,2.564,0,0,0-1.385-2.212c.042-.024-7-4.371-7.054-4.4l-5.095-3.1c-.007,0-1.414-.863-1.422-.866a5.276,5.276,0,0,0-2.582-.657,4.3,4.3,0,0,0-2.128.5C671.211,351.016,667.069,353.787,667.05,353.8Z" fill="#95a2d3" opacity="0.048"/>
                <path id="Trazado_194606" data-name="Trazado 194606" d="M667.253,353.735A2.331,2.331,0,0,0,666,355.623a2.425,2.425,0,0,0,1.251,2.142c-.086.049,6.638,4.236,6.736,4.293l4.93,2.993c.016.008,1.49.906,1.507.913a5.161,5.161,0,0,0,2.5.634,4.2,4.2,0,0,0,2.057-.476c.05,0,3.853-2.731,3.889-2.752a2.336,2.336,0,0,0,1.251-1.888,2.426,2.426,0,0,0-1.251-2.142c.085-.05-6.615-4.224-6.713-4.281l-4.925-2.991c-.014-.008-1.359-.828-1.374-.834a5.177,5.177,0,0,0-2.5-.635,4.219,4.219,0,0,0-2.057.475C671.25,351.075,667.29,353.713,667.253,353.735Z" fill="#909dcf" opacity="0.095"/>
                <path id="Trazado_194607" data-name="Trazado 194607" d="M667.455,353.672a2.345,2.345,0,0,0-1.246,1.827,2.3,2.3,0,0,0,1.117,2.073c-.128.074,6.248,4.088,6.4,4.174l4.759,2.878c.024.013,1.429.868,1.455.878a5.023,5.023,0,0,0,2.41.611,4.112,4.112,0,0,0,1.986-.448c.076,0,3.7-2.594,3.759-2.626a2.342,2.342,0,0,0,1.245-1.827,2.3,2.3,0,0,0-1.117-2.073c.128-.074-6.225-4.077-6.373-4.162l-4.754-2.876c-.021-.013-1.3-.793-1.327-.8a5.024,5.024,0,0,0-2.41-.613,4.108,4.108,0,0,0-1.987.447C671.29,351.134,667.51,353.639,667.455,353.672Z" fill="#8b97cc" opacity="0.143"/>
                <path id="Trazado_194608" data-name="Trazado 194608" d="M667.657,353.608a2.365,2.365,0,0,0-1.241,1.768,2.175,2.175,0,0,0,.984,2c-.171.1,5.857,3.94,6.053,4.053l4.589,2.764c.031.018,1.368.83,1.4.843a4.911,4.911,0,0,0,2.323.589,4.026,4.026,0,0,0,1.916-.421c.1,0,3.556-2.457,3.628-2.5a2.365,2.365,0,0,0,1.241-1.767,2.174,2.174,0,0,0-.984-2c.171-.1-5.836-3.929-6.033-4.043l-4.583-2.762c-.028-.016-1.248-.758-1.28-.77a4.9,4.9,0,0,0-2.323-.591,4.019,4.019,0,0,0-1.917.42C671.329,351.193,667.731,353.566,667.657,353.608Z" fill="#8692c9" opacity="0.19"/>
                <path id="Trazado_194609" data-name="Trazado 194609" d="M667.859,353.545a2.392,2.392,0,0,0-1.236,1.707,2.065,2.065,0,0,0,.85,1.935c-.213.123,5.466,3.792,5.713,3.934l4.417,2.65c.038.022,1.307.791,1.351.807a4.78,4.78,0,0,0,2.236.567,3.929,3.929,0,0,0,1.845-.394c.126,0,3.407-2.321,3.5-2.373a2.386,2.386,0,0,0,1.236-1.707,2.062,2.062,0,0,0-.849-1.934c.213-.123-5.447-3.781-5.693-3.923l-4.413-2.649c-.036-.02-1.193-.722-1.233-.737a4.782,4.782,0,0,0-2.236-.57,3.934,3.934,0,0,0-1.847.392C671.368,351.252,667.952,353.492,667.859,353.545Z" fill="#828dc6" opacity="0.238"/>
                <path id="Trazado_194610" data-name="Trazado 194610" d="M668.061,353.482a2.423,2.423,0,0,0-1.23,1.647,1.961,1.961,0,0,0,.715,1.865c-.255.148,5.076,3.644,5.372,3.814l4.246,2.536c.046.027,1.247.752,1.3.772a4.66,4.66,0,0,0,2.149.544,3.845,3.845,0,0,0,1.775-.366c.151,0,3.258-2.184,3.367-2.246a2.425,2.425,0,0,0,1.231-1.647,1.962,1.962,0,0,0-.716-1.865c.255-.148-5.058-3.634-5.353-3.8l-4.242-2.535c-.043-.024-1.138-.687-1.185-.7a4.666,4.666,0,0,0-2.15-.548,3.856,3.856,0,0,0-1.777.365C671.407,351.312,668.172,353.418,668.061,353.482Z" fill="#7d88c3" opacity="0.286"/>
                <path id="Trazado_194611" data-name="Trazado 194611" d="M668.264,353.419c-.535.309-1.226,1.044-1.226,1.586,0,.6-.062,1.425.582,1.8-.3.172,4.685,3.495,5.03,3.694l4.076,2.421c.053.031,1.185.714,1.246.737a4.555,4.555,0,0,0,2.063.522,3.765,3.765,0,0,0,1.7-.339c.176-.005,3.11-2.047,3.236-2.12.535-.308,1.226-1.043,1.226-1.586,0-.6.061-1.425-.582-1.8.3-.172-4.668-3.486-5.013-3.685l-4.072-2.42c-.049-.029-1.082-.652-1.137-.674a4.545,4.545,0,0,0-2.063-.526,3.765,3.765,0,0,0-1.707.338C671.447,351.371,668.393,353.345,668.264,353.419Z" fill="#7883bf" opacity="0.333"/>
                <path id="Trazado_194612" data-name="Trazado 194612" d="M668.466,353.356c-.5.287-1.221,1.022-1.221,1.526,0,.552-.149,1.382.448,1.727-.341.2,4.295,3.347,4.689,3.574l3.9,2.308c.061.035,1.125.675,1.2.7a4.433,4.433,0,0,0,1.975.5,3.673,3.673,0,0,0,1.634-.313c.2-.005,2.961-1.909,3.106-1.992.5-.287,1.22-1.022,1.22-1.526,0-.552.15-1.382-.448-1.727.341-.2-4.279-3.338-4.672-3.566l-3.9-2.306c-.056-.033-1.027-.617-1.09-.641a4.414,4.414,0,0,0-1.977-.5,3.681,3.681,0,0,0-1.635.309C671.486,351.43,668.614,353.271,668.466,353.356Z" fill="#747ebc" opacity="0.381"/>
                <path id="Trazado_194613" data-name="Trazado 194613" d="M668.668,353.293c-.458.265-1.216,1-1.216,1.466,0,.509-.237,1.339.315,1.657-.384.222,3.9,3.2,4.347,3.455l3.734,2.193c.069.04,1.065.637,1.143.666a4.307,4.307,0,0,0,1.889.477,3.587,3.587,0,0,0,1.563-.285c.227-.006,2.812-1.772,2.975-1.866.458-.264,1.216-1,1.216-1.465,0-.51.237-1.34-.315-1.658.384-.222-3.889-3.191-4.332-3.446l-3.731-2.193c-.063-.036-.971-.582-1.043-.609a4.308,4.308,0,0,0-1.89-.482,3.6,3.6,0,0,0-1.565.282C671.525,351.489,668.834,353.2,668.668,353.293Z" fill="#6f7ab9" opacity="0.429"/>
                <path id="Trazado_194614" data-name="Trazado 194614" d="M668.87,353.23c-.42.243-1.21.979-1.21,1.4,0,.467-.325,1.3.18,1.589-.426.246,3.514,3.05,4.006,3.334l3.563,2.079c.077.045,1,.6,1.091.63a4.2,4.2,0,0,0,1.8.456,3.518,3.518,0,0,0,1.492-.258,30.537,30.537,0,0,0,2.845-1.74c.419-.242,1.21-.978,1.21-1.4,0-.468.325-1.3-.18-1.589.426-.246-3.5-3.043-3.993-3.327l-3.56-2.078c-.071-.041-.916-.547-.995-.577a4.19,4.19,0,0,0-1.8-.461,3.532,3.532,0,0,0-1.495.255A30.909,30.909,0,0,0,668.87,353.23Z" fill="#6b75b6" opacity="0.476"/>
                <path id="Trazado_194615" data-name="Trazado 194615" d="M669.072,353.167c-.381.221-1.205.957-1.205,1.345,0,.424-.413,1.254.047,1.519-.469.271,3.123,2.9,3.664,3.215l3.393,1.965c.084.049.943.559,1.038.594a4.092,4.092,0,0,0,1.716.434,3.472,3.472,0,0,0,1.422-.231,25.059,25.059,0,0,0,2.714-1.613c.382-.221,1.206-.957,1.206-1.344,0-.425.412-1.255-.047-1.52.469-.271-3.111-2.9-3.652-3.208l-3.39-1.964c-.078-.045-.861-.512-.948-.545a4.093,4.093,0,0,0-1.717-.439,3.474,3.474,0,0,0-1.425.227A25.321,25.321,0,0,0,669.072,353.167Z" fill="#6670b2" opacity="0.524"/>
                <path id="Trazado_194616" data-name="Trazado 194616" d="M669.275,353.1c-.344.2-1.2.935-1.2,1.284,0,.383-.5,1.212-.087,1.45-.511.3,2.732,2.754,3.323,3.1l3.222,1.851c.092.053.882.521.987.559a3.98,3.98,0,0,0,1.629.411,3.385,3.385,0,0,0,1.351-.2,20.417,20.417,0,0,0,2.583-1.487c.344-.2,1.2-.935,1.2-1.284,0-.382.5-1.211.087-1.45.511-.295-2.721-2.748-3.312-3.089l-3.219-1.85c-.085-.049-.806-.476-.9-.513a4.005,4.005,0,0,0-1.63-.417,3.421,3.421,0,0,0-1.355.2A20.586,20.586,0,0,0,669.275,353.1Z" fill="#616caf" opacity="0.571"/>
                <path id="Trazado_194617" data-name="Trazado 194617" d="M669.477,353.041c-.306.177-1.2.914-1.2,1.224,0,.34-.588,1.169-.221,1.381-.554.32,2.342,2.605,2.982,2.975l3.051,1.737c.1.057.822.482.935.523a3.888,3.888,0,0,0,1.542.389,3.339,3.339,0,0,0,1.281-.176,16.919,16.919,0,0,0,2.453-1.36c.3-.177,1.2-.914,1.2-1.224,0-.34.589-1.169.221-1.381.554-.32-2.332-2.6-2.972-2.969l-3.049-1.737c-.091-.053-.75-.441-.853-.48a3.873,3.873,0,0,0-1.544-.395,3.34,3.34,0,0,0-1.284.172A16.833,16.833,0,0,0,669.477,353.041Z" fill="#5d67ac" opacity="0.619"/>
                <path id="Trazado_194618" data-name="Trazado 194618" d="M669.679,352.978c-.267.154-1.19.892-1.19,1.163,0,.3-.677,1.126-.355,1.312-.6.345,1.951,2.457,2.64,2.855l2.881,1.623c.107.062.76.444.882.488a3.823,3.823,0,0,0,1.456.367,3.326,3.326,0,0,0,1.21-.149,13.83,13.83,0,0,0,2.322-1.234c.268-.154,1.191-.892,1.191-1.163,0-.3.676-1.126.354-1.312.6-.344-1.942-2.452-2.631-2.85l-2.879-1.622c-.1-.057-.694-.406-.806-.449a3.8,3.8,0,0,0-1.457-.373,3.334,3.334,0,0,0-1.214.144A13.9,13.9,0,0,0,669.679,352.978Z" fill="#5963a9" opacity="0.667"/>
                <path id="Trazado_194619" data-name="Trazado 194619" d="M669.881,352.915c-.229.132-1.185.87-1.185,1.1,0,.255-.764,1.083-.489,1.243-.639.369,1.561,2.308,2.3,2.735l2.71,1.508c.115.067.7.4.83.453a3.727,3.727,0,0,0,1.369.344,3.3,3.3,0,0,0,1.14-.121,11.289,11.289,0,0,0,2.192-1.107c.229-.133,1.185-.871,1.185-1.1,0-.255.764-1.084.489-1.243.639-.369-1.554-2.3-2.292-2.731l-2.708-1.508c-.106-.061-.639-.371-.758-.416a3.73,3.73,0,0,0-1.371-.352,3.3,3.3,0,0,0-1.144.117A11.332,11.332,0,0,0,669.881,352.915Z" fill="#545fa6" opacity="0.714"/>
                <path id="Trazado_194620" data-name="Trazado 194620" d="M670.083,352.852c-.191.11-1.18.849-1.18,1.042,0,.213-.852,1.041-.622,1.174-.682.394,1.17,2.161,1.957,2.615l2.539,1.395c.123.071.64.366.779.417a3.661,3.661,0,0,0,1.282.322,3.248,3.248,0,0,0,1.069-.1,9.135,9.135,0,0,0,2.061-.98c.191-.11,1.181-.848,1.181-1.042,0-.213.852-1.041.622-1.174.682-.393-1.164-2.157-1.952-2.612l-2.537-1.394c-.113-.065-.584-.336-.711-.384a3.669,3.669,0,0,0-1.284-.33,3.344,3.344,0,0,0-1.074.089A9.28,9.28,0,0,0,670.083,352.852Z" fill="#505ba3" opacity="0.762"/>
                <path id="Trazado_194621" data-name="Trazado 194621" d="M670.286,352.789c-.153.088-1.176.827-1.176.982,0,.17-.94,1-.756,1.1-.724.419.78,2.013,1.616,2.5l2.368,1.28c.131.075.579.328.727.382a3.646,3.646,0,0,0,1.2.3,3.328,3.328,0,0,0,1-.068,7.429,7.429,0,0,0,1.93-.854c.152-.088,1.175-.826,1.175-.981s.94-1,.756-1.1c.725-.418-.775-2.009-1.611-2.492l-2.367-1.28c-.12-.07-.529-.3-.664-.353a3.653,3.653,0,0,0-1.2-.308,3.358,3.358,0,0,0-1,.062A7.524,7.524,0,0,0,670.286,352.789Z" fill="#4c57a0" opacity="0.81"/>
                <path id="Trazado_194622" data-name="Trazado 194622" d="M670.488,352.726a6.707,6.707,0,0,0-1.17.921c0,.128-1.028.956-.89,1.036-.768.443.389,1.864,1.274,2.375l2.2,1.166a6.692,6.692,0,0,0,.674.347,3.651,3.651,0,0,0,1.109.277,3.384,3.384,0,0,0,.929-.04,5.981,5.981,0,0,0,1.8-.727,6.707,6.707,0,0,0,1.17-.921c0-.128,1.028-.956.89-1.036.767-.442-.385-1.862-1.271-2.373l-2.2-1.166a6.647,6.647,0,0,0-.617-.32,3.594,3.594,0,0,0-1.11-.286,3.421,3.421,0,0,0-.933.034A6.053,6.053,0,0,0,670.488,352.726Z" fill="#48539d" opacity="0.857"/>
                <path id="Trazado_194623" data-name="Trazado 194623" d="M670.69,352.663a9.766,9.766,0,0,0-1.165.861c0,.085-1.116.913-1.024.966-.81.467,0,1.716.933,2.256l2.027,1.052a5.488,5.488,0,0,0,.623.311,3.686,3.686,0,0,0,1.022.255,3.549,3.549,0,0,0,.858-.013,4.777,4.777,0,0,0,1.669-.6,9.657,9.657,0,0,0,1.165-.861c0-.085,1.115-.912,1.023-.966.81-.467.005-1.714-.93-2.254l-2.026-1.052a5.72,5.72,0,0,0-.569-.288,3.672,3.672,0,0,0-1.025-.264,3.592,3.592,0,0,0-.862.006A4.85,4.85,0,0,0,670.69,352.663Z" fill="#444f9a" opacity="0.905"/>
                <path id="Trazado_194624" data-name="Trazado 194624" d="M670.892,352.6c-.038.022-1.16.762-1.16.8s-1.2.87-1.158.9c-.852.492-.392,1.568.593,2.136l1.855.938a4.3,4.3,0,0,0,.571.276,3.826,3.826,0,0,0,3.261-.227c.038-.022,1.16-.762,1.16-.8s1.2-.87,1.158-.9c.852-.493.393-1.567-.591-2.136l-1.856-.937a4.062,4.062,0,0,0-.521-.256,3.8,3.8,0,0,0-.938-.243,3.911,3.911,0,0,0-.792-.021A3.868,3.868,0,0,0,670.892,352.6Z" fill="#404b97" opacity="0.952"/>
                <path id="Trazado_194625" data-name="Trazado 194625" d="M674.075,357.089l2.447-1.567c.9-.517.783-1.42-.251-2.016l-1.685-.824a3.88,3.88,0,0,0-3.492-.145l-2.446,1.568c-.9.516-.783,1.419.251,2.016l1.685.824A3.881,3.881,0,0,0,674.075,357.089Z" fill="#3c4794"/>
              </g>
              <path id="Trazado_194626" data-name="Trazado 194626" d="M728.566,357.659l7.571-4.326,35-29.025-7.571,4.326Z" fill="#005c8d"/>
              <path id="Trazado_194627" data-name="Trazado 194627" d="M673.7,360.154l7.571-4.327,31.776-22.863-7.571,4.327Z" fill="#0f3f8e"/>
              <path id="Trazado_194628" data-name="Trazado 194628" d="M705.931,325.077l7.571-4.326,22.835,20.15-7.571,4.327Z" fill="url(#linear-gradient-6)"/>
              <path id="Trazado_194629" data-name="Trazado 194629" d="M751.319,316.244l7.571-4.327,29.834-9.363-7.571,4.327Z" fill="#c9d263"/>
              <path id="Trazado_194630" data-name="Trazado 194630" d="M768.928,334.145l7.571-4.327,12.225-27.263-7.571,4.327Z" fill="#4f9232"/>
              <path id="Trazado_194631" data-name="Trazado 194631" d="M751.319,316.244l5.424,5.436.186.19-28.162,23.355-22.835-20.15-41.189,29.689,8.956,5.388,31.776-22.863,23.1,20.4,35-29.025.111.114,5.241,5.367,12.225-27.263Z" fill="url(#linear-gradient-7)"/>
              <path id="Trazado_194632" data-name="Trazado 194632" d="M780.94,307.342l7.35-4.506-7.641,4.2-29.33,9.2.55.551Z" fill="url(#radial-gradient-3)" style="mix-blend-mode: color-dodge;isolation: isolate"/>
              <path id="Trazado_194633" data-name="Trazado 194633" d="M705.931,325.8l22.835,20.15,28.162-23.356-.186-.19-.207-.207-27.769,23.03-22.835-20.15-41.189,29.689.548.33Z" fill="url(#radial-gradient-4)" style="mix-blend-mode: color-dodge;isolation: isolate"/>
            </g>
          </g>
        </g>
        <path id="Trazado_194634" data-name="Trazado 194634" d="M721.177,366.883c-14.17-8.18-25.656-27.993-25.656-44.252,0-6.532,1.854-11.494,4.991-14.567-5.972,1.943-9.807,8.1-9.807,17.491,0,16.259,11.486,36.072,25.656,44.252,8.477,4.895,15.993,4.515,20.665-.061C732.663,371.165,727.159,370.337,721.177,366.883Z" fill="url(#linear-gradient-8)"/>
        <ellipse id="Elipse_5053" data-name="Elipse 5053" cx="19.762" cy="34.231" rx="19.762" ry="34.231" transform="translate(683.257 319.906) rotate(-30.311)" opacity="0.5" fill="url(#radial-gradient-5)" style="mix-blend-mode: screen;isolation: isolate"/>
        <ellipse id="Elipse_5054" data-name="Elipse 5054" cx="19.762" cy="34.231" rx="19.762" ry="34.231" transform="translate(683.257 319.906) rotate(-30.311)" fill="url(#radial-gradient-6)" style="mix-blend-mode: multiply;isolation: isolate"/>
        <g id="Grupo_137226" data-name="Grupo 137226">
          <path id="Trazado_194635" data-name="Trazado 194635" d="M721.8,307.821c-6.967-4.022-13.286-4.483-17.91-1.98-.129.071-6.764,3.773-6.973,4.093,4.7-3.549,11.67-3.495,19.443.993,14.169,8.181,25.656,27.993,25.656,44.253,0,8.3-2.992,14.062-7.8,16.635a5.812,5.812,0,0,0,1.252-.55c.137-.077,4.661-2.818,4.795-2.9,4.455-2.723,7.2-8.349,7.2-16.291C747.457,335.815,735.971,316,721.8,307.821Z" fill="url(#linear-gradient-9)"/>
        </g>
        <path id="Trazado_194636" data-name="Trazado 194636" d="M716.361,310.927c-14.17-8.181-25.656-1.632-25.656,14.628s11.486,36.072,25.656,44.252,25.656,1.632,25.656-14.627S730.53,319.108,716.361,310.927Zm-.18,56.931C703.1,360.3,692.495,342.013,692.495,327s10.6-21.057,23.686-13.5,23.687,25.844,23.687,40.855S729.263,375.411,716.181,367.858Z" fill="url(#linear-gradient-10)"/>
        <path id="Trazado_194637" data-name="Trazado 194637" d="M717.592,310.311c-6.792-3.921-12.964-4.45-17.553-2.155,4.278-1.2,10.571-.549,16.322,2.771,14.169,8.181,25.656,27.993,25.656,44.253,0,8.465-4.1,14.536-9.088,17.029,6.264-1.752,10.319-7.984,10.319-17.645C743.248,338.3,731.761,318.492,717.592,310.311Z" fill="url(#radial-gradient-7)" style="mix-blend-mode: screen;isolation: isolate"/>
        <path id="Trazado_194638" data-name="Trazado 194638" d="M714.2,331.041a79.289,79.289,0,0,1,13.611-10.931,42.842,42.842,0,0,0-10.219-8.488c-13.409-7.742-24.28-1.544-24.28,13.843,0,7.739,2.751,16.327,7.191,23.939A77.877,77.877,0,0,1,714.2,331.041Z" opacity="0.5" fill="url(#radial-gradient-8)" style="mix-blend-mode: screen;isolation: isolate"/>
      </g>
    </g>
  </g>
</svg>
