<svg xmlns="http://www.w3.org/2000/svg" width="242" height="58" viewBox="0 0 242 58">
  <g id="Grupo_151994" data-name="Grupo 151994" transform="translate(9622 9154)">
    <path id="Trazado_199088" data-name="Trazado 199088" d="M0,0H242V58H0Z" transform="translate(-9622 -9154)" fill="#f3f9ff"/>
    <path id="Trazado_199089" data-name="Trazado 199089" d="M10.008,11.68a7.026,7.026,0,0,1-.523,2.84,4.388,4.388,0,0,1-1.469,1.863l2.031,1.594-1.023.945-2.4-1.906a4.88,4.88,0,0,1-1.187.141,4.348,4.348,0,0,1-2.383-.66,4.363,4.363,0,0,1-1.613-1.883,6.752,6.752,0,0,1-.59-2.832v-.82a6.953,6.953,0,0,1,.57-2.9A4.347,4.347,0,0,1,3.035,6.137a4.329,4.329,0,0,1,2.387-.668,4.4,4.4,0,0,1,2.418.664,4.284,4.284,0,0,1,1.605,1.91,7.016,7.016,0,0,1,.563,2.91Zm-1.5-.734a5.162,5.162,0,0,0-.8-3.1,2.666,2.666,0,0,0-2.285-1.09A2.643,2.643,0,0,0,3.191,7.84a5,5,0,0,0-.84,3v.836a5.147,5.147,0,0,0,.816,3.078,2.646,2.646,0,0,0,2.27,1.125,2.652,2.652,0,0,0,2.25-1.059,5.079,5.079,0,0,0,.82-3.035Zm4.269,7.327h.633a1.392,1.392,0,0,0,.939-.314,1.051,1.051,0,0,0,.342-.825,1.029,1.029,0,0,0-1.162-1.167,1.209,1.209,0,0,0-.873.312,1.092,1.092,0,0,0-.326.827h-.843a1.693,1.693,0,0,1,.576-1.31,2.1,2.1,0,0,1,1.465-.522,2.075,2.075,0,0,1,1.472.5,1.794,1.794,0,0,1,.533,1.381,1.456,1.456,0,0,1-.28.838,1.692,1.692,0,0,1-.763.606,1.631,1.631,0,0,1,.845.574,1.6,1.6,0,0,1,.3.98,1.81,1.81,0,0,1-.583,1.417,2.184,2.184,0,0,1-1.517.524,2.242,2.242,0,0,1-1.52-.506,1.678,1.678,0,0,1-.586-1.335h.848a1.084,1.084,0,0,0,.342.838,1.3,1.3,0,0,0,.916.314,1.276,1.276,0,0,0,.934-.319,1.229,1.229,0,0,0,.324-.916,1.116,1.116,0,0,0-.355-.889,1.549,1.549,0,0,0-1.025-.319h-.633ZM27.9,10.641H21.389V9.383H27.9Zm0,3.242H21.389v-1.25H27.9Z" transform="translate(-9601 -9132)" fill="#12263f"/>
    <path id="Trazado_199090" data-name="Trazado 199090" d="M7.7,10.641H1.188V9.383H7.7Zm0,3.242H1.188v-1.25H7.7Zm12.086-.7h1.578v1.18H19.789V17H18.336V14.359h-5.18v-.852L18.25,5.625h1.539Zm-4.992,0h3.539V7.6l-.172.313Zm8.055,3.063a.905.905,0,0,1,.223-.625.848.848,0,0,1,.668-.25.874.874,0,0,1,.676.25.887.887,0,0,1,.23.625.839.839,0,0,1-.23.6.89.89,0,0,1-.676.242.8.8,0,0,1-.891-.844Zm4.7-4.945.578-5.672h5.828V6.961h-4.6l-.344,3.1a3.671,3.671,0,0,1,1.9-.492A3.138,3.138,0,0,1,33.375,10.6a4.026,4.026,0,0,1,.914,2.777,3.886,3.886,0,0,1-.949,2.77,3.46,3.46,0,0,1-2.652,1.012,3.6,3.6,0,0,1-2.461-.836,3.337,3.337,0,0,1-1.086-2.312h1.367a2.3,2.3,0,0,0,.7,1.473,2.162,2.162,0,0,0,1.484.5,1.95,1.95,0,0,0,1.582-.687,2.874,2.874,0,0,0,.574-1.9,2.638,2.638,0,0,0-.621-1.832,2.113,2.113,0,0,0-1.652-.691,2.383,2.383,0,0,0-1.484.414l-.383.313Z" transform="translate(-9435 -9132)" fill="#12263f"/>
    <path id="Trazado_199091" data-name="Trazado 199091" d="M21.813,10.641H15.3V9.383h6.516Zm0,3.242H15.3v-1.25h6.516Z" transform="translate(-9505 -9131)" fill="#12263f"/>
    <path id="Trazado_199092" data-name="Trazado 199092" d="M2.68,10.609h.883a1.656,1.656,0,0,0,1.313-.523,2.088,2.088,0,0,0,.461-1.43q0-2-1.547-2A1.4,1.4,0,0,0,2.625,7.2,2.229,2.229,0,0,0,2.2,8.609H.828A3.163,3.163,0,0,1,1.66,6.355a2.79,2.79,0,0,1,2.129-.887,2.786,2.786,0,0,1,2.133.84,3.342,3.342,0,0,1,.789,2.379A2.813,2.813,0,0,1,6.3,10.16a2.529,2.529,0,0,1-1.066,1,2.521,2.521,0,0,1,1.609,2.664A3.4,3.4,0,0,1,6,16.254a2.9,2.9,0,0,1-2.215.9A2.909,2.909,0,0,1,1.6,16.3,3.159,3.159,0,0,1,.766,14H2.148a2.209,2.209,0,0,0,.438,1.441,1.461,1.461,0,0,0,1.2.535,1.551,1.551,0,0,0,1.23-.523,2.371,2.371,0,0,0,.457-1.594q0-2.07-1.961-2.07H2.68Zm12.359,1.023,1.445-3.086h1.6l-2.3,4.18L18.141,17H16.555l-1.492-3.164L13.563,17H11.969l2.352-4.273-2.289-4.18h1.586Zm8.219.75a13.042,13.042,0,0,1,.555-3.852,10.282,10.282,0,0,1,1.57-3.164,5.2,5.2,0,0,1,1.188-1.2l.273.953A6.564,6.564,0,0,0,25.3,7.824a13.775,13.775,0,0,0-.656,4.02l-.008.633a14.074,14.074,0,0,0,.773,4.859,6.917,6.917,0,0,0,1.43,2.453l-.273.883a5.752,5.752,0,0,1-1.461-1.594A11.828,11.828,0,0,1,23.258,12.383ZM32.414,11.3l.492-5.672h4.945V6.961H34.07l-.266,3.1A2.592,2.592,0,0,1,35.32,9.57,2.447,2.447,0,0,1,37.406,10.6a4.585,4.585,0,0,1,.758,2.773,4.258,4.258,0,0,1-.824,2.773,3.032,3.032,0,0,1-4.348.172,3.632,3.632,0,0,1-.922-2.312h1.3a2.65,2.65,0,0,0,.559,1.473,1.47,1.47,0,0,0,1.152.5,1.422,1.422,0,0,0,1.258-.7,3.434,3.434,0,0,0,.453-1.887,3.125,3.125,0,0,0-.488-1.82,1.525,1.525,0,0,0-1.316-.7,1.621,1.621,0,0,0-1.1.359l-.367.367Zm14.742-.4h2.57v1.367h-2.57v3.594H45.766V12.266H43.172V10.9h2.594V7.578h1.391ZM59.141,17H57.75V7.367l-2.391,1.07V7.125L58.922,5.57h.219Zm6.875-4.539a12.011,12.011,0,0,1-1.562,6.164,6.193,6.193,0,0,1-1.75,2.047l-.273-.883A6.686,6.686,0,0,0,64.016,16.9a14.655,14.655,0,0,0,.617-4.254v-.281a13.7,13.7,0,0,0-.977-5.312A6.662,6.662,0,0,0,62.43,5.047l.273-.883a6.012,6.012,0,0,1,1.664,1.9A12.1,12.1,0,0,1,66.016,12.461Z" transform="translate(-9565 -9143)" fill="#12263f"/>
    <path id="Trazado_199093" data-name="Trazado 199093" d="M2.68,10.609h.883a1.656,1.656,0,0,0,1.313-.523,2.088,2.088,0,0,0,.461-1.43q0-2-1.547-2A1.4,1.4,0,0,0,2.625,7.2,2.229,2.229,0,0,0,2.2,8.609H.828A3.163,3.163,0,0,1,1.66,6.355a2.79,2.79,0,0,1,2.129-.887,2.786,2.786,0,0,1,2.133.84,3.342,3.342,0,0,1,.789,2.379A2.813,2.813,0,0,1,6.3,10.16a2.529,2.529,0,0,1-1.066,1,2.521,2.521,0,0,1,1.609,2.664A3.4,3.4,0,0,1,6,16.254a2.9,2.9,0,0,1-2.215.9A2.909,2.909,0,0,1,1.6,16.3,3.159,3.159,0,0,1,.766,14H2.148a2.209,2.209,0,0,0,.438,1.441,1.461,1.461,0,0,0,1.2.535,1.551,1.551,0,0,0,1.23-.523,2.371,2.371,0,0,0,.457-1.594q0-2.07-1.961-2.07H2.68Zm12.359,1.023,1.445-3.086h1.6l-2.3,4.18L18.141,17H16.555l-1.492-3.164L13.563,17H11.969l2.352-4.273-2.289-4.18h1.586ZM27.977,5.617V6.844H27.75a2.8,2.8,0,0,0-2.164.934,4.521,4.521,0,0,0-.9,2.715,2.368,2.368,0,0,1,1.938-.953,2.328,2.328,0,0,1,2,1.035,4.575,4.575,0,0,1,.738,2.715,4.461,4.461,0,0,1-.816,2.828,2.643,2.643,0,0,1-2.191,1.039,2.587,2.587,0,0,1-2.227-1.227,5.649,5.649,0,0,1-.844-3.258v-.555a11.173,11.173,0,0,1,.508-3.734,4.114,4.114,0,0,1,1.5-2.066,4.382,4.382,0,0,1,2.457-.7Zm-1.586,5.125a1.522,1.522,0,0,0-1.039.43,2.429,2.429,0,0,0-.687,1.094v.57a4.582,4.582,0,0,0,.488,2.254,1.4,1.4,0,0,0,1.2.871,1.355,1.355,0,0,0,1.211-.715A3.581,3.581,0,0,0,28,13.359a3.633,3.633,0,0,0-.437-1.887A1.322,1.322,0,0,0,26.391,10.742Z" transform="translate(-9474 -9143)" fill="#12263f"/>
    <path id="Trazado_199094" data-name="Trazado 199094" d="M23.7,13.18h1.266v1.18H23.7V17H22.316V14.359h-4.3v-.852l4.227-7.883H23.7Zm-4.148,0h2.766V7.773Z" transform="translate(-9553 -9120)" fill="#12263f"/>
    <path id="Trazado_199095" data-name="Trazado 199095" d="M23.7,13.18h1.266v1.18H23.7V17H22.316V14.359h-4.3v-.852l4.227-7.883H23.7Zm-4.148,0h2.766V7.773Z" transform="translate(-9479 -9120)" fill="#12263f"/>
    <path id="Trazado_199096" data-name="Trazado 199096" d="M0,0H72" transform="translate(-9567.5 -9121.5)" fill="none" stroke="#12263f" stroke-width="1"/>
    <path id="Trazado_199097" data-name="Trazado 199097" d="M0,0H37.5" transform="translate(-9477 -9121.5)" fill="none" stroke="#12263f" stroke-width="1"/>
  </g>
</svg>
