<svg xmlns="http://www.w3.org/2000/svg" width="196" height="58" viewBox="0 0 196 58">
  <g id="Grupo_151994" data-name="Grupo 151994" transform="translate(9802 9964)">
    <rect id="Rectángulo_44235" data-name="Rectángulo 44235" width="196" height="58" transform="translate(-9802 -9964)" fill="#f3f9ff"/>
    <path id="Trazado_199086" data-name="Trazado 199086" d="M5.984,17.188a4.945,4.945,0,0,1-3.82-1.57,5.834,5.834,0,0,1-1.43-4.086A6.154,6.154,0,0,1,2.2,7.219,5.118,5.118,0,0,1,6.172,5.609,4.81,4.81,0,0,1,9.906,7.172a5.836,5.836,0,0,1,1.422,4.086,6.191,6.191,0,0,1-1.453,4.336,4.312,4.312,0,0,1-.734.656l3.148,2.258H9.906L7.8,16.93A6.073,6.073,0,0,1,5.984,17.188ZM6.078,6.8A3.612,3.612,0,0,0,3.211,8.07a4.93,4.93,0,0,0-1.1,3.344A5.011,5.011,0,0,0,3.18,14.75a3.519,3.519,0,0,0,2.8,1.258,3.678,3.678,0,0,0,2.906-1.2,4.917,4.917,0,0,0,1.063-3.367,5.119,5.119,0,0,0-1.031-3.43A3.536,3.536,0,0,0,6.078,6.8ZM15.362,22h-.747V16.354a1.73,1.73,0,0,1-.253.2,4.123,4.123,0,0,1-.374.221q-.207.109-.437.205a3.179,3.179,0,0,1-.449.15v-.756a4.345,4.345,0,0,0,.522-.185q.276-.116.542-.26t.5-.3a4,4,0,0,0,.41-.308h.283ZM30.633,11.188H23.289V10.156h7.344Zm0,3.328H23.289V13.484h7.344Z" transform="translate(-9766 -9945)" fill="#12263f"/>
    <path id="Trazado_199084" data-name="Trazado 199084" d="M15.68,11.188H8.336V10.156H15.68Zm0,3.328H8.336V13.484H15.68ZM29.3,13.828a3.266,3.266,0,0,1-.285,1.379,3.045,3.045,0,0,1-.8,1.063,3.714,3.714,0,0,1-1.246.684,5.04,5.04,0,0,1-1.6.242,4.654,4.654,0,0,1-2.547-.609V15.211a4.081,4.081,0,0,0,2.594.891,3.525,3.525,0,0,0,1.059-.148,2.374,2.374,0,0,0,.813-.43,1.909,1.909,0,0,0,.523-.68,2.123,2.123,0,0,0,.184-.9q0-2.2-3.125-2.2h-.93V10.664h.883q2.766,0,2.766-2.062,0-1.906-2.109-1.906a3.592,3.592,0,0,0-2.227.8V6.25a4.868,4.868,0,0,1,2.547-.641,3.913,3.913,0,0,1,1.273.2,2.918,2.918,0,0,1,.977.547,2.423,2.423,0,0,1,.629.844,2.6,2.6,0,0,1,.223,1.086,2.735,2.735,0,0,1-2.234,2.844v.031a3.534,3.534,0,0,1,1.055.277,2.814,2.814,0,0,1,.836.559,2.49,2.49,0,0,1,.551.809A2.582,2.582,0,0,1,29.3,13.828Z" transform="translate(-9678 -9945)" fill="#12263f"/>
    <path id="Trazado_199085" data-name="Trazado 199085" d="M4.656,19.547H3.516a9.984,9.984,0,0,1-2.422-6.82A10.362,10.362,0,0,1,3.516,5.8H4.672a10.529,10.529,0,0,0-2.453,6.914A10.345,10.345,0,0,0,4.656,19.547Zm12-5.719a3.266,3.266,0,0,1-.285,1.379,3.044,3.044,0,0,1-.8,1.063,3.714,3.714,0,0,1-1.246.684,5.04,5.04,0,0,1-1.6.242,4.654,4.654,0,0,1-2.547-.609V15.211a4.081,4.081,0,0,0,2.594.891,3.525,3.525,0,0,0,1.059-.148,2.374,2.374,0,0,0,.813-.43,1.909,1.909,0,0,0,.523-.68,2.123,2.123,0,0,0,.184-.9q0-2.2-3.125-2.2h-.93V10.664h.883q2.766,0,2.766-2.062,0-1.906-2.109-1.906a3.592,3.592,0,0,0-2.227.8V6.25a4.868,4.868,0,0,1,2.547-.641,3.913,3.913,0,0,1,1.273.2,2.918,2.918,0,0,1,.977.547,2.423,2.423,0,0,1,.629.844,2.6,2.6,0,0,1,.223,1.086,2.735,2.735,0,0,1-2.234,2.844v.031a3.534,3.534,0,0,1,1.055.277,2.814,2.814,0,0,1,.836.559,2.49,2.49,0,0,1,.551.809A2.582,2.582,0,0,1,16.656,13.828Zm14.719-.969H28.219v3.148H27.18V12.859H24.031V11.813H27.18V8.664h1.039v3.148h3.156Zm13.617.969a3.266,3.266,0,0,1-.285,1.379,3.045,3.045,0,0,1-.8,1.063,3.714,3.714,0,0,1-1.246.684,5.04,5.04,0,0,1-1.6.242,4.654,4.654,0,0,1-2.547-.609V15.211A4.081,4.081,0,0,0,41.1,16.1a3.525,3.525,0,0,0,1.059-.148,2.374,2.374,0,0,0,.813-.43,1.909,1.909,0,0,0,.523-.68,2.123,2.123,0,0,0,.184-.9q0-2.2-3.125-2.2h-.93V10.664h.883q2.766,0,2.766-2.062,0-1.906-2.109-1.906a3.592,3.592,0,0,0-2.227.8V6.25a4.868,4.868,0,0,1,2.547-.641,3.913,3.913,0,0,1,1.273.2,2.918,2.918,0,0,1,.977.547,2.423,2.423,0,0,1,.629.844,2.6,2.6,0,0,1,.223,1.086,2.735,2.735,0,0,1-2.234,2.844v.031a3.534,3.534,0,0,1,1.055.277,2.814,2.814,0,0,1,.836.559,2.49,2.49,0,0,1,.551.809A2.582,2.582,0,0,1,44.992,13.828ZM47.5,19.547H46.359A10.345,10.345,0,0,0,48.8,12.711,10.529,10.529,0,0,0,46.344,5.8H47.5a10.321,10.321,0,0,1,2.438,6.93A9.945,9.945,0,0,1,47.5,19.547Z" transform="translate(-9733 -9956)" fill="#12263f"/>
    <path id="Trazado_199087" data-name="Trazado 199087" d="M23.219,8.734a2.316,2.316,0,0,0-.16-.9,1.739,1.739,0,0,0-1.09-1.016,2.555,2.555,0,0,0-.812-.125,2.688,2.688,0,0,0-.734.1,3.57,3.57,0,0,0-.7.281,4.3,4.3,0,0,0-.656.43,4.74,4.74,0,0,0-.59.555V6.688a3.831,3.831,0,0,1,1.207-.8,4.25,4.25,0,0,1,1.629-.277,3.932,3.932,0,0,1,1.273.2,2.92,2.92,0,0,1,1.016.582,2.691,2.691,0,0,1,.676.945,3.188,3.188,0,0,1,.246,1.289,4.42,4.42,0,0,1-.152,1.2,3.721,3.721,0,0,1-.461,1.016,4.9,4.9,0,0,1-.777.914,11.011,11.011,0,0,1-1.1.891q-.789.563-1.3.961a5.75,5.75,0,0,0-.812.746,2.165,2.165,0,0,0-.422.7,2.431,2.431,0,0,0-.121.8h5.578V17H18.039v-.555A4.622,4.622,0,0,1,18.2,15.18a3.286,3.286,0,0,1,.516-1.039,5.767,5.767,0,0,1,.941-.984q.582-.492,1.426-1.109a9.014,9.014,0,0,0,1.02-.836,4.346,4.346,0,0,0,.66-.8,2.862,2.862,0,0,0,.355-.809A3.486,3.486,0,0,0,23.219,8.734Z" transform="translate(-9733 -9933)" fill="#12263f"/>
    <path id="Trazado_199083" data-name="Trazado 199083" d="M0,0H51" transform="translate(-9732.5 -9934.5)" fill="none" stroke="#12263f" stroke-width="1"/>
  </g>
</svg>
