<svg xmlns="http://www.w3.org/2000/svg" width="190" height="90.333" viewBox="0 0 190 90.333">
  <g id="Grupo_148481" data-name="Grupo 148481" transform="translate(-180 -381.667)">
    <rect id="Rect치ngulo_41430" data-name="Rect치ngulo 41430" width="85" height="28" rx="14" transform="translate(285 383)" fill="#feca2e" opacity="0.2"/>
    <rect id="Rect치ngulo_41431" data-name="Rect치ngulo 41431" width="85" height="28" rx="14" transform="translate(180 444)" fill="#4dd0e1" opacity="0.2"/>
    <g id="Grupo_148482" data-name="Grupo 148482" transform="translate(2571.599 -1383.259)">
      <path id="Trazado_194897" data-name="Trazado 194897" d="M-2335.869,1807.26a1.841,1.841,0,0,0,1.841-1.841V1770.9a2.3,2.3,0,0,1,2.294-2.294h91.122a2.3,2.3,0,0,1,2.294,2.294v2.57a1.841,1.841,0,0,0,1.841,1.841,1.841,1.841,0,0,0,1.841-1.841v-2.57a5.983,5.983,0,0,0-5.976-5.976h-91.122a5.983,5.983,0,0,0-5.976,5.976v34.517A1.841,1.841,0,0,0-2335.869,1807.26Z" transform="translate(-4.847)" fill="#0f2771"/>
      <path id="Trazado_194898" data-name="Trazado 194898" d="M-2236.477,1815.726a1.841,1.841,0,0,0-1.841,1.841v26.661h-90.959a1.841,1.841,0,0,0-1.841,1.841,1.841,1.841,0,0,0,1.841,1.841h90.959v3.15a2.3,2.3,0,0,1-2.294,2.294h-91.122a2.3,2.3,0,0,1-2.294-2.294v-3.947a1.841,1.841,0,0,0-1.841-1.841,1.841,1.841,0,0,0-1.841,1.841v3.947a5.983,5.983,0,0,0,5.976,5.976h33.258v8.879a7.271,7.271,0,0,1-7.263,7.263h-10.156a1.841,1.841,0,0,0-1.841,1.841,1.841,1.841,0,0,0,1.841,1.841h10.017c.056.005.11.017.168.017h39.032c.057,0,.112-.011.168-.017h9.963a1.841,1.841,0,0,0,1.841-1.841,1.841,1.841,0,0,0-1.841-1.841h-10.059a7.272,7.272,0,0,1-7.263-7.263v-8.879h33.258a5.983,5.983,0,0,0,5.976-5.976v-33.493A1.841,1.841,0,0,0-2236.477,1815.726Zm-38.28,57.469h-22.832a10.89,10.89,0,0,0,2.8-7.28v-8.879h17.241v8.879A10.888,10.888,0,0,0-2274.757,1873.2Z" transform="translate(-4.847 -21.619)" fill="#0f2771"/>
      <path id="Trazado_194899" data-name="Trazado 194899" d="M-2237.157,1787.972a6.015,6.015,0,0,0-6.008,6.008,5.973,5.973,0,0,0,.4,2.136l-25.133,19.26a5.994,5.994,0,0,0-4.57-2.117,6,6,0,0,0-4.931,2.586l-24.39-11.759c.007-.116.018-.232.018-.35a6.015,6.015,0,0,0-6.008-6.009,6.015,6.015,0,0,0-6.008,6.009,6.04,6.04,0,0,0,.082.943l-25.726,15.894a5.973,5.973,0,0,0-3.659-1.254,6.015,6.015,0,0,0-6.008,6.008,6.015,6.015,0,0,0,6.008,6.008,6.015,6.015,0,0,0,6.008-6.008,6.006,6.006,0,0,0-.254-1.72l25.3-15.634a5.987,5.987,0,0,0,4.254,1.77,6,6,0,0,0,4.653-2.214l24.658,11.887a6.011,6.011,0,0,0,6,5.858,6.015,6.015,0,0,0,6.008-6.008c0-.115-.01-.228-.017-.341l26.014-19.935a5.976,5.976,0,0,0,3.307,1,6.015,6.015,0,0,0,6.008-6.008A6.015,6.015,0,0,0-2237.157,1787.972Zm-105.934,39.681a2.329,2.329,0,0,1-2.326-2.326,2.329,2.329,0,0,1,2.326-2.326,2.328,2.328,0,0,1,2.326,2.326A2.328,2.328,0,0,1-2343.091,1827.653Zm35.312-21.592a2.328,2.328,0,0,1-2.326-2.325,2.328,2.328,0,0,1,2.326-2.326,2.328,2.328,0,0,1,2.326,2.326A2.328,2.328,0,0,1-2307.78,1806.061Zm35.311,15.531a2.328,2.328,0,0,1-2.325-2.326,2.328,2.328,0,0,1,2.325-2.326,2.328,2.328,0,0,1,2.326,2.326A2.328,2.328,0,0,1-2272.469,1821.593Zm35.312-25.287a2.329,2.329,0,0,1-2.326-2.326,2.329,2.329,0,0,1,2.326-2.326,2.328,2.328,0,0,1,2.325,2.326A2.328,2.328,0,0,1-2237.157,1796.306Z" transform="translate(0 -9.808)" fill="#0f2771"/>
    </g>
  </g>
</svg>
