<svg xmlns="http://www.w3.org/2000/svg" width="275" height="78" viewBox="0 0 275 78">
  <g id="Grupo_151993" data-name="Grupo 151993" transform="translate(-298 -3949)">
    <path id="Trazado_199082" data-name="Trazado 199082" d="M0,0H275V78H0Z" transform="translate(298 3949)" fill="#091743"/>
    <path id="Trazado_199080" data-name="Trazado 199080" d="M76.28,19.211a5.563,5.563,0,0,1-4.3-1.767,6.563,6.563,0,0,1-1.608-4.6A6.923,6.923,0,0,1,72.017,8a5.757,5.757,0,0,1,4.474-1.811,5.411,5.411,0,0,1,4.2,1.758,6.565,6.565,0,0,1,1.6,4.6,6.965,6.965,0,0,1-1.635,4.878,4.851,4.851,0,0,1-.826.738l3.542,2.54H80.692l-2.373-1.775A6.832,6.832,0,0,1,76.28,19.211Zm.105-11.689A4.063,4.063,0,0,0,73.16,8.954a5.546,5.546,0,0,0-1.239,3.762,5.637,5.637,0,0,0,1.2,3.753,3.959,3.959,0,0,0,3.155,1.415,4.138,4.138,0,0,0,3.27-1.354,5.532,5.532,0,0,0,1.2-3.788,5.759,5.759,0,0,0-1.16-3.858A3.978,3.978,0,0,0,76.385,7.521ZM89.2,25H88l-2.84-3.363a2.05,2.05,0,0,1-.195-.256h-.021V25h-.861V17.648h.861V21.1h.021a2.027,2.027,0,0,1,.195-.251l2.748-3.2h1.071l-3.153,3.527ZM104.44,12.461H96.178V11.3h8.262Zm0,3.744H96.178v-1.16h8.262Z" transform="translate(312 3979)" fill="#fff"/>
    <path id="Trazado_199081" data-name="Trazado 199081" d="M50.3,19H48.28l-3.973-4.324h-.035V19H42.831V5.676h1.441v8.446h.035L48.086,10h1.89L45.8,14.342Zm12.981-9-3.023,4.553L63.23,19H61.551l-1.767-2.918q-.167-.272-.4-.686h-.035q-.044.079-.413.686L57.139,19H55.478l3.067-4.412L55.61,10h1.679l1.74,3.076q.193.343.378.7h.035L61.692,10Zm14.089,9H75.93V13.867Q75.93,11,73.838,11a2.269,2.269,0,0,0-1.789.813,3.013,3.013,0,0,0-.708,2.052V19H69.9V10h1.441v1.494h.035a3.248,3.248,0,0,1,2.953-1.705,2.753,2.753,0,0,1,2.259.954,4.248,4.248,0,0,1,.782,2.755ZM62.619,31.4V39.72h1.617v1.318H62.619V44H61.2V41.038H55.271V39.79q.826-.932,1.67-1.991t1.613-2.149q.769-1.09,1.424-2.175a19.88,19.88,0,0,0,1.1-2.079ZM56.9,39.72h4.3V33.55q-.659,1.151-1.248,2.057T58.827,37.25q-.532.738-1.015,1.336T56.9,39.72Z" transform="translate(390 3968)" fill="#fff"/>
    <path id="Trazado_199079" data-name="Trazado 199079" d="M0,0H60" transform="translate(420.5 3991)" fill="none" stroke="#4dd0e1" stroke-width="1.578"/>
  </g>
</svg>

