<svg xmlns="http://www.w3.org/2000/svg" width="284" height="58" viewBox="0 0 284 58">
  <g id="Grupo_151995" data-name="Grupo 151995" transform="translate(9814 8786)">
    <g id="Grupo_148823" data-name="Grupo 148823" transform="translate(-10584 -9928)">
      <rect id="Rectángulo_44235" data-name="Rectángulo 44235" width="284" height="58" transform="translate(770 1142)" fill="#f3f9ff"/>
    </g>
    <path id="Trazado_199098" data-name="Trazado 199098" d="M10.008,11.68a7.026,7.026,0,0,1-.523,2.84,4.388,4.388,0,0,1-1.469,1.863l2.031,1.594-1.023.945-2.4-1.906a4.88,4.88,0,0,1-1.187.141,4.348,4.348,0,0,1-2.383-.66,4.363,4.363,0,0,1-1.613-1.883,6.752,6.752,0,0,1-.59-2.832v-.82a6.953,6.953,0,0,1,.57-2.9A4.347,4.347,0,0,1,3.035,6.137a4.329,4.329,0,0,1,2.387-.668,4.4,4.4,0,0,1,2.418.664,4.284,4.284,0,0,1,1.605,1.91,7.016,7.016,0,0,1,.563,2.91Zm-1.5-.734a5.162,5.162,0,0,0-.8-3.1,2.666,2.666,0,0,0-2.285-1.09A2.643,2.643,0,0,0,3.191,7.84a5,5,0,0,0-.84,3v.836a5.147,5.147,0,0,0,.816,3.078,2.646,2.646,0,0,0,2.27,1.125,2.652,2.652,0,0,0,2.25-1.059,5.079,5.079,0,0,0,.82-3.035Zm4.269,7.327h.633a1.392,1.392,0,0,0,.939-.314,1.051,1.051,0,0,0,.342-.825,1.029,1.029,0,0,0-1.162-1.167,1.209,1.209,0,0,0-.873.312,1.092,1.092,0,0,0-.326.827h-.843a1.693,1.693,0,0,1,.576-1.31,2.1,2.1,0,0,1,1.465-.522,2.075,2.075,0,0,1,1.472.5,1.794,1.794,0,0,1,.533,1.381,1.456,1.456,0,0,1-.28.838,1.692,1.692,0,0,1-.763.606,1.631,1.631,0,0,1,.845.574,1.6,1.6,0,0,1,.3.98,1.81,1.81,0,0,1-.583,1.417,2.184,2.184,0,0,1-1.517.524,2.242,2.242,0,0,1-1.52-.506,1.678,1.678,0,0,1-.586-1.335h.848a1.084,1.084,0,0,0,.342.838,1.3,1.3,0,0,0,.916.314,1.276,1.276,0,0,0,.934-.319,1.229,1.229,0,0,0,.324-.916,1.116,1.116,0,0,0-.355-.889,1.549,1.549,0,0,0-1.025-.319h-.633ZM27.9,10.641H21.389V9.383H27.9Zm0,3.242H21.389v-1.25H27.9Z" transform="translate(-9793 -8764)" fill="#12263f"/>
    <path id="Trazado_199099" data-name="Trazado 199099" d="M10.008,11.68a7.026,7.026,0,0,1-.523,2.84,4.388,4.388,0,0,1-1.469,1.863l2.031,1.594-1.023.945-2.4-1.906a4.88,4.88,0,0,1-1.187.141,4.348,4.348,0,0,1-2.383-.66,4.363,4.363,0,0,1-1.613-1.883,6.752,6.752,0,0,1-.59-2.832v-.82a6.953,6.953,0,0,1,.57-2.9A4.347,4.347,0,0,1,3.035,6.137a4.329,4.329,0,0,1,2.387-.668,4.4,4.4,0,0,1,2.418.664,4.284,4.284,0,0,1,1.605,1.91,7.016,7.016,0,0,1,.563,2.91Zm-1.5-.734a5.162,5.162,0,0,0-.8-3.1,2.666,2.666,0,0,0-2.285-1.09A2.643,2.643,0,0,0,3.191,7.84a5,5,0,0,0-.84,3v.836a5.147,5.147,0,0,0,.816,3.078,2.646,2.646,0,0,0,2.27,1.125,2.652,2.652,0,0,0,2.25-1.059,5.079,5.079,0,0,0,.82-3.035Zm4.269,7.327h.633a1.392,1.392,0,0,0,.939-.314,1.051,1.051,0,0,0,.342-.825,1.029,1.029,0,0,0-1.162-1.167,1.209,1.209,0,0,0-.873.312,1.092,1.092,0,0,0-.326.827h-.843a1.693,1.693,0,0,1,.576-1.31,2.1,2.1,0,0,1,1.465-.522,2.075,2.075,0,0,1,1.472.5,1.794,1.794,0,0,1,.533,1.381,1.456,1.456,0,0,1-.28.838,1.692,1.692,0,0,1-.763.606,1.631,1.631,0,0,1,.845.574,1.6,1.6,0,0,1,.3.98,1.81,1.81,0,0,1-.583,1.417,2.184,2.184,0,0,1-1.517.524,2.242,2.242,0,0,1-1.52-.506,1.678,1.678,0,0,1-.586-1.335h.848a1.084,1.084,0,0,0,.342.838,1.3,1.3,0,0,0,.916.314,1.276,1.276,0,0,0,.934-.319,1.229,1.229,0,0,0,.324-.916,1.116,1.116,0,0,0-.355-.889,1.549,1.549,0,0,0-1.025-.319h-.633ZM27.9,10.641H21.389V9.383H27.9Zm0,3.242H21.389v-1.25H27.9Z" transform="translate(-9681.5 -8764)" fill="#12263f"/>
    <path id="Trazado_199100" data-name="Trazado 199100" d="M7.7,10.641H1.188V9.383H7.7Zm0,3.242H1.188v-1.25H7.7ZM14.352,11.3l.578-5.672h5.828V6.961h-4.6l-.344,3.1a3.671,3.671,0,0,1,1.9-.492A3.138,3.138,0,0,1,20.18,10.6a4.026,4.026,0,0,1,.914,2.777,3.886,3.886,0,0,1-.949,2.77,3.46,3.46,0,0,1-2.652,1.012,3.6,3.6,0,0,1-2.461-.836,3.337,3.337,0,0,1-1.086-2.312h1.367a2.3,2.3,0,0,0,.7,1.473,2.162,2.162,0,0,0,1.484.5,1.95,1.95,0,0,0,1.582-.687,2.874,2.874,0,0,0,.574-1.9,2.638,2.638,0,0,0-.621-1.832,2.113,2.113,0,0,0-1.652-.691,2.383,2.383,0,0,0-1.484.414l-.383.313Zm8.5,4.945a.905.905,0,0,1,.223-.625.848.848,0,0,1,.668-.25.874.874,0,0,1,.676.25.887.887,0,0,1,.23.625.839.839,0,0,1-.23.6.89.89,0,0,1-.676.242.8.8,0,0,1-.891-.844Zm4.7-4.945.578-5.672h5.828V6.961h-4.6l-.344,3.1a3.671,3.671,0,0,1,1.9-.492A3.138,3.138,0,0,1,33.375,10.6a4.026,4.026,0,0,1,.914,2.777,3.886,3.886,0,0,1-.949,2.77,3.46,3.46,0,0,1-2.652,1.012,3.6,3.6,0,0,1-2.461-.836,3.337,3.337,0,0,1-1.086-2.312h1.367a2.3,2.3,0,0,0,.7,1.473,2.162,2.162,0,0,0,1.484.5,1.95,1.95,0,0,0,1.582-.687,2.874,2.874,0,0,0,.574-1.9,2.638,2.638,0,0,0-.621-1.832,2.113,2.113,0,0,0-1.652-.691,2.383,2.383,0,0,0-1.484.414l-.383.313Z" transform="translate(-9586 -8764)" fill="#12263f"/>
    <path id="Trazado_199101" data-name="Trazado 199101" d="M21.813,10.641H15.3V9.383h6.516Zm0,3.242H15.3v-1.25h6.516Z" transform="translate(-9713 -8763)" fill="#12263f"/>
    <path id="Trazado_199102" data-name="Trazado 199102" d="M1.008,12.383a13.042,13.042,0,0,1,.555-3.852,10.282,10.282,0,0,1,1.57-3.164,5.2,5.2,0,0,1,1.188-1.2l.273.953A6.564,6.564,0,0,0,3.055,7.824a13.775,13.775,0,0,0-.656,4.02l-.008.633a14.074,14.074,0,0,0,.773,4.859,6.917,6.917,0,0,0,1.43,2.453l-.273.883a5.752,5.752,0,0,1-1.461-1.594A11.828,11.828,0,0,1,1.008,12.383ZM10.164,11.3l.492-5.672H15.6V6.961H11.82l-.266,3.1A2.592,2.592,0,0,1,13.07,9.57,2.447,2.447,0,0,1,15.156,10.6a4.585,4.585,0,0,1,.758,2.773,4.258,4.258,0,0,1-.824,2.773,2.764,2.764,0,0,1-2.262,1.008,2.766,2.766,0,0,1-2.086-.836,3.632,3.632,0,0,1-.922-2.312h1.3a2.65,2.65,0,0,0,.559,1.473,1.47,1.47,0,0,0,1.152.5,1.422,1.422,0,0,0,1.258-.7,3.434,3.434,0,0,0,.453-1.887,3.125,3.125,0,0,0-.488-1.82,1.525,1.525,0,0,0-1.316-.7,1.621,1.621,0,0,0-1.1.359l-.367.367Zm14.742-.4h2.57v1.367h-2.57v3.594H23.516V12.266H20.922V10.9h2.594V7.578h1.391Zm12.68-5.281V6.844h-.227a2.8,2.8,0,0,0-2.164.934,4.521,4.521,0,0,0-.9,2.715,2.368,2.368,0,0,1,1.938-.953,2.328,2.328,0,0,1,2,1.035,4.575,4.575,0,0,1,.738,2.715,4.461,4.461,0,0,1-.816,2.828,2.643,2.643,0,0,1-2.191,1.039,2.587,2.587,0,0,1-2.227-1.227,5.649,5.649,0,0,1-.844-3.258v-.555A11.173,11.173,0,0,1,33.4,8.383a4.114,4.114,0,0,1,1.5-2.066,4.382,4.382,0,0,1,2.457-.7ZM36,10.742a1.522,1.522,0,0,0-1.039.43,2.429,2.429,0,0,0-.687,1.094v.57a4.582,4.582,0,0,0,.488,2.254,1.4,1.4,0,0,0,1.2.871,1.355,1.355,0,0,0,1.211-.715,3.581,3.581,0,0,0,.438-1.887,3.633,3.633,0,0,0-.437-1.887A1.322,1.322,0,0,0,36,10.742Zm7.766,1.719A12.011,12.011,0,0,1,42.2,18.625a6.193,6.193,0,0,1-1.75,2.047l-.273-.883A6.686,6.686,0,0,0,41.766,16.9a14.655,14.655,0,0,0,.617-4.254v-.281a13.7,13.7,0,0,0-.977-5.312A6.662,6.662,0,0,0,40.18,5.047l.273-.883a6.012,6.012,0,0,1,1.664,1.9A12.1,12.1,0,0,1,43.766,12.461Z" transform="translate(-9754 -8775)" fill="#12263f"/>
    <path id="Trazado_199103" data-name="Trazado 199103" d="M1.008,12.383a13.042,13.042,0,0,1,.555-3.852,10.282,10.282,0,0,1,1.57-3.164,5.2,5.2,0,0,1,1.188-1.2l.273.953A6.564,6.564,0,0,0,3.055,7.824a13.775,13.775,0,0,0-.656,4.02l-.008.633a14.074,14.074,0,0,0,.773,4.859,6.917,6.917,0,0,0,1.43,2.453l-.273.883a5.752,5.752,0,0,1-1.461-1.594A11.828,11.828,0,0,1,1.008,12.383ZM10.164,11.3l.492-5.672H15.6V6.961H11.82l-.266,3.1A2.592,2.592,0,0,1,13.07,9.57,2.447,2.447,0,0,1,15.156,10.6a4.585,4.585,0,0,1,.758,2.773,4.258,4.258,0,0,1-.824,2.773,2.764,2.764,0,0,1-2.262,1.008,2.766,2.766,0,0,1-2.086-.836,3.632,3.632,0,0,1-.922-2.312h1.3a2.65,2.65,0,0,0,.559,1.473,1.47,1.47,0,0,0,1.152.5,1.422,1.422,0,0,0,1.258-.7,3.434,3.434,0,0,0,.453-1.887,3.125,3.125,0,0,0-.488-1.82,1.525,1.525,0,0,0-1.316-.7,1.621,1.621,0,0,0-1.1.359l-.367.367Zm14.742-.4h2.57v1.367h-2.57v3.594H23.516V12.266H20.922V10.9h2.594V7.578h1.391Zm12.68-5.281V6.844h-.227a2.8,2.8,0,0,0-2.164.934,4.521,4.521,0,0,0-.9,2.715,2.368,2.368,0,0,1,1.938-.953,2.328,2.328,0,0,1,2,1.035,4.575,4.575,0,0,1,.738,2.715,4.461,4.461,0,0,1-.816,2.828,2.643,2.643,0,0,1-2.191,1.039,2.587,2.587,0,0,1-2.227-1.227,5.649,5.649,0,0,1-.844-3.258v-.555A11.173,11.173,0,0,1,33.4,8.383a4.114,4.114,0,0,1,1.5-2.066,4.382,4.382,0,0,1,2.457-.7ZM36,10.742a1.522,1.522,0,0,0-1.039.43,2.429,2.429,0,0,0-.687,1.094v.57a4.582,4.582,0,0,0,.488,2.254,1.4,1.4,0,0,0,1.2.871,1.355,1.355,0,0,0,1.211-.715,3.581,3.581,0,0,0,.438-1.887,3.633,3.633,0,0,0-.437-1.887A1.322,1.322,0,0,0,36,10.742Zm7.766,1.719A12.011,12.011,0,0,1,42.2,18.625a6.193,6.193,0,0,1-1.75,2.047l-.273-.883A6.686,6.686,0,0,0,41.766,16.9a14.655,14.655,0,0,0,.617-4.254v-.281a13.7,13.7,0,0,0-.977-5.312A6.662,6.662,0,0,0,40.18,5.047l.273-.883a6.012,6.012,0,0,1,1.664,1.9A12.1,12.1,0,0,1,43.766,12.461Z" transform="translate(-9642.5 -8775)" fill="#12263f"/>
    <path id="Trazado_199104" data-name="Trazado 199104" d="M24.824,17H18.465V15.961l3.242-4.3a9.443,9.443,0,0,0,1.02-1.629,3.26,3.26,0,0,0,.285-1.348,2.385,2.385,0,0,0-.422-1.469,1.322,1.322,0,0,0-1.109-.562,1.609,1.609,0,0,0-1.34.6,2.725,2.725,0,0,0-.473,1.723H18.285a3.684,3.684,0,0,1,.859-2.539,2.964,2.964,0,0,1,2.336-.969,2.794,2.794,0,0,1,2.141.832A3.1,3.1,0,0,1,24.4,8.516a7.023,7.023,0,0,1-1.758,3.992L20.113,15.82h4.711Z" transform="translate(-9752 -8752)" fill="#12263f"/>
    <path id="Trazado_199105" data-name="Trazado 199105" d="M24.824,17H18.465V15.961l3.242-4.3a9.443,9.443,0,0,0,1.02-1.629,3.26,3.26,0,0,0,.285-1.348,2.385,2.385,0,0,0-.422-1.469,1.322,1.322,0,0,0-1.109-.562,1.609,1.609,0,0,0-1.34.6,2.725,2.725,0,0,0-.473,1.723H18.285a3.684,3.684,0,0,1,.859-2.539,2.964,2.964,0,0,1,2.336-.969,2.794,2.794,0,0,1,2.141.832A3.1,3.1,0,0,1,24.4,8.516a7.023,7.023,0,0,1-1.758,3.992L20.113,15.82h4.711Z" transform="translate(-9640.5 -8752)" fill="#12263f"/>
    <path id="Trazado_199106" data-name="Trazado 199106" d="M0,0H54" transform="translate(-9757.5 -8753.5)" fill="none" stroke="#12263f" stroke-width="1"/>
    <path id="Trazado_199107" data-name="Trazado 199107" d="M0,0H54" transform="translate(-9646 -8753.5)" fill="none" stroke="#12263f" stroke-width="1"/>
  </g>
</svg>
