<svg xmlns="http://www.w3.org/2000/svg" width="107.302" height="88.481" viewBox="0 0 107.302 88.481">
  <g id="Grupo_151938" data-name="Grupo 151938" transform="translate(0 0)">
    <path id="Trazado_199023" data-name="Trazado 199023" d="M-268.622,2370.068c-.022-.027-.046-.052-.07-.078a53.741,53.741,0,0,0-4.447-4.383,1.62,1.62,0,0,0-2.287.152,1.621,1.621,0,0,0,.151,2.287q1.434,1.255,2.757,2.608c-1,.5-2.043.988-3.122,1.446a1.621,1.621,0,0,0-.859,2.125,1.621,1.621,0,0,0,1.492.988,1.608,1.608,0,0,0,.632-.129c1.439-.61,2.822-1.264,4.133-1.95a50.446,50.446,0,0,1,11.262,23.288h-22.069a94.961,94.961,0,0,0-1.515-10.342,1.621,1.621,0,0,0-1.912-1.262,1.621,1.621,0,0,0-1.262,1.913,91.519,91.519,0,0,1,1.437,9.691h-22.551V2386.4a1.621,1.621,0,0,0-1.62-1.621,1.621,1.621,0,0,0-1.62,1.621v10.016h-22.551a91.555,91.555,0,0,1,1.437-9.692,1.62,1.62,0,0,0-1.262-1.913,1.623,1.623,0,0,0-1.913,1.262,95.006,95.006,0,0,0-1.514,10.343h-22.072a50.387,50.387,0,0,1,11.264-23.289c1.326.694,2.727,1.356,4.185,1.972a1.612,1.612,0,0,0,.631.128,1.62,1.62,0,0,0,1.493-.989,1.62,1.62,0,0,0-.861-2.124c-1.1-.464-2.155-.957-3.174-1.468q1.445-1.47,3.019-2.832a1.621,1.621,0,0,0,.167-2.286,1.62,1.62,0,0,0-2.286-.166,53.916,53.916,0,0,0-4.728,4.626c-.021.023-.042.045-.062.069a53.618,53.618,0,0,0-13.8,35.918,1.62,1.62,0,0,0,1.62,1.621,1.62,1.62,0,0,0,1.62-1.621,50.494,50.494,0,0,1,.4-6.32h22.342c-.125,2.086-.2,4.193-.2,6.32a1.62,1.62,0,0,0,1.62,1.621,1.62,1.62,0,0,0,1.62-1.621c0-2.128.072-4.235.2-6.32h22.8v6.32a1.62,1.62,0,0,0,1.62,1.621,1.62,1.62,0,0,0,1.62-1.621v-6.32h22.8c.129,2.085.2,4.192.2,6.32a1.62,1.62,0,0,0,1.62,1.621,1.62,1.62,0,0,0,1.62-1.621c0-2.127-.07-4.233-.2-6.32h22.341a50.41,50.41,0,0,1,.4,6.32,1.62,1.62,0,0,0,1.62,1.621,1.62,1.62,0,0,0,1.62-1.621A53.665,53.665,0,0,0-268.622,2370.068Z" transform="translate(362.124 -2319.12)" fill="#4dd0e1"/>
    <path id="Trazado_199024" data-name="Trazado 199024" d="M-326.474,2338.219a1.62,1.62,0,0,0-1.62,1.621,1.62,1.62,0,0,0,1.62,1.62h67.464a1.62,1.62,0,0,0,1.62-1.62,1.621,1.621,0,0,0-1.62-1.621h-3.336v-40.753a1.62,1.62,0,0,0-1.62-1.621h-9.2a1.621,1.621,0,0,0-1.62,1.621v40.753h-3.431v-58.154a1.62,1.62,0,0,0-1.62-1.62h-9.2a1.62,1.62,0,0,0-1.62,1.62v58.154H-294.1v-38.593a1.62,1.62,0,0,0-1.62-1.621h-9.2a1.62,1.62,0,0,0-1.62,1.621v38.593h-3.432v-23.964a1.62,1.62,0,0,0-1.62-1.62h-9.2a1.62,1.62,0,0,0-1.62,1.62v23.964Zm54.925-39.133h5.963v39.133h-5.963Zm-15.876-17.4h5.963v56.533h-5.963Zm-15.876,19.561h5.963v36.972H-303.3Zm-15.876,14.629h5.963v22.343h-5.963Z" transform="translate(346.127 -2278.444)" fill="#4dd0e1"/>
  </g>
</svg>
