<svg xmlns="http://www.w3.org/2000/svg" width="190" height="89" viewBox="0 0 190 89">
  <g id="Grupo_148481" data-name="Grupo 148481" transform="translate(-180 -383)">
    <rect id="Rect치ngulo_41430" data-name="Rect치ngulo 41430" width="85" height="28" rx="14" transform="translate(285 383)" fill="#feca2e" opacity="0.2"/>
    <rect id="Rect치ngulo_41431" data-name="Rect치ngulo 41431" width="85" height="28" rx="14" transform="translate(180 444)" fill="#4dd0e1" opacity="0.2"/>
    <g id="Grupo_150995" data-name="Grupo 150995" transform="translate(-2528.349 -847.072)">
      <path id="Trazado_198709" data-name="Trazado 198709" d="M2831.565,1326.382a9.35,9.35,0,1,0,9.35-9.349A9.36,9.36,0,0,0,2831.565,1326.382Zm15.9,0a6.55,6.55,0,1,1-6.55-6.549A6.557,6.557,0,0,1,2847.465,1326.382Z" transform="translate(-41.567 -47.427)" fill="#0f2771"/>
      <path id="Trazado_198710" data-name="Trazado 198710" d="M2848.51,1374.657a1.4,1.4,0,0,0,1.1-1.647,14.053,14.053,0,0,0-27.518-.2,1.4,1.4,0,1,0,2.737.589,11.253,11.253,0,0,1,22.036.16,1.4,1.4,0,0,0,1.372,1.126A1.415,1.415,0,0,0,2848.51,1374.657Z" transform="translate(-36.382 -71.795)" fill="#0f2771"/>
      <path id="Trazado_198711" data-name="Trazado 198711" d="M2892.4,1339.7a9.35,9.35,0,1,0,9.35-9.35A9.36,9.36,0,0,0,2892.4,1339.7Zm15.9,0a6.55,6.55,0,1,1-6.55-6.55A6.557,6.557,0,0,1,2908.3,1339.7Z" transform="translate(-74.744 -54.692)" fill="#0f2771"/>
      <path id="Trazado_198712" data-name="Trazado 198712" d="M2907.81,1386.331a14.053,14.053,0,0,0-27.519-.2l-2.193,10.306a1.4,1.4,0,0,0,1.078,1.661,1.419,1.419,0,0,0,.293.031,1.4,1.4,0,0,0,1.368-1.109l2.192-10.3a11.253,11.253,0,0,1,22.035.156l2,10.126a1.4,1.4,0,1,0,2.747-.542Z" transform="translate(-66.928 -79.06)" fill="#0f2771"/>
      <path id="Trazado_198713" data-name="Trazado 198713" d="M2780.936,1349.053a9.349,9.349,0,1,0-9.35-9.349A9.36,9.36,0,0,0,2780.936,1349.053Zm0-15.9a6.55,6.55,0,1,1-6.55,6.55A6.557,6.557,0,0,1,2780.936,1333.154Z" transform="translate(-8.855 -54.692)" fill="#0f2771"/>
      <path id="Trazado_198714" data-name="Trazado 198714" d="M2787,1386.331a14.053,14.053,0,0,0-27.519-.2l-2.193,10.306a1.4,1.4,0,0,0,1.078,1.661,1.418,1.418,0,0,0,.293.031,1.4,1.4,0,0,0,1.368-1.109l2.192-10.3a11.253,11.253,0,0,1,22.035.156l2,10.126a1.4,1.4,0,0,0,2.747-.542Z" transform="translate(-1.04 -79.06)" fill="#0f2771"/>
      <path id="Trazado_198715" data-name="Trazado 198715" d="M2845.624,1230.072h-88.875a1.4,1.4,0,0,0-1.4,1.4v52.991a1.4,1.4,0,0,0,2.8,0v-51.591h86.075v51.591a1.4,1.4,0,0,0,2.8,0v-52.991A1.4,1.4,0,0,0,2845.624,1230.072Z" fill="#0f2771"/>
      <path id="Trazado_198716" data-name="Trazado 198716" d="M2774.93,1251.392h7.292a1.4,1.4,0,1,0,0-2.8h-7.292a1.4,1.4,0,0,0,0,2.8Z" transform="translate(-9.916 -10.101)" fill="#0f2771"/>
      <path id="Trazado_198717" data-name="Trazado 198717" d="M2774.93,1265.427h17.016a1.4,1.4,0,0,0,0-2.8H2774.93a1.4,1.4,0,0,0,0,2.8Z" transform="translate(-9.916 -17.755)" fill="#0f2771"/>
      <path id="Trazado_198718" data-name="Trazado 198718" d="M2774.93,1279.464h11.243a1.4,1.4,0,0,0,0-2.8H2774.93a1.4,1.4,0,0,0,0,2.8Z" transform="translate(-9.916 -25.41)" fill="#0f2771"/>
      <path id="Trazado_198719" data-name="Trazado 198719" d="M2857.2,1253.409a1.4,1.4,0,0,0-1.98,0l-14.421,14.443-6.881-5.061a1.4,1.4,0,0,0-1.731.057l-11.486,9.671-8.511-6.255a1.4,1.4,0,0,0-1.762.085l-17.675,15.8a1.4,1.4,0,0,0,1.866,2.088l16.828-15.044,8.484,6.234a1.4,1.4,0,0,0,1.731-.057l11.485-9.671,6.962,5.12a1.4,1.4,0,0,0,1.82-.138l15.272-15.295A1.4,1.4,0,0,0,2857.2,1253.409Z" transform="translate(-20.146 -12.505)" fill="#0f2771"/>
    </g>
  </g>
</svg>
