<svg xmlns="http://www.w3.org/2000/svg" width="190" height="89.688" viewBox="0 0 190 89.688">
  <g id="Grupo_148481" data-name="Grupo 148481" transform="translate(-180 -382.312)">
    <rect id="Rect치ngulo_41430" data-name="Rect치ngulo 41430" width="85" height="28" rx="14" transform="translate(285 383)" fill="#feca2e" opacity="0.2"/>
    <rect id="Rect치ngulo_41431" data-name="Rect치ngulo 41431" width="85" height="28" rx="14" transform="translate(180 444)" fill="#4dd0e1" opacity="0.2"/>
    <g id="Grupo_150774" data-name="Grupo 150774" transform="translate(299.796 -2923.719)">
      <path id="Trazado_197668" data-name="Trazado 197668" d="M77.1,3422.941a1.349,1.349,0,0,0-1.349,1.349v29.9H45.85a1.349,1.349,0,1,0,0,2.7H77.1a1.349,1.349,0,0,0,1.349-1.349V3424.29A1.349,1.349,0,0,0,77.1,3422.941Z" transform="translate(-61.166 -61.166)" fill="#0f2771"/>
      <path id="Trazado_197669" data-name="Trazado 197669" d="M45.85,3308.729h29.9v29.9a1.349,1.349,0,1,0,2.7,0V3307.38a1.349,1.349,0,0,0-1.349-1.349H45.85a1.349,1.349,0,1,0,0,2.7Z" transform="translate(-61.166)" fill="#0f2771"/>
      <path id="Trazado_197670" data-name="Trazado 197670" d="M-71.059,3339.975a1.349,1.349,0,0,0,1.349-1.349v-29.9h29.9a1.349,1.349,0,0,0,1.349-1.349,1.349,1.349,0,0,0-1.349-1.349H-71.059a1.349,1.349,0,0,0-1.349,1.349v31.245A1.349,1.349,0,0,0-71.059,3339.975Z" fill="#0f2771"/>
      <path id="Trazado_197671" data-name="Trazado 197671" d="M-39.813,3454.187h-29.9v-29.9a1.349,1.349,0,0,0-1.349-1.349,1.349,1.349,0,0,0-1.349,1.349v31.246a1.349,1.349,0,0,0,1.349,1.349h31.246a1.349,1.349,0,0,0,1.349-1.349A1.349,1.349,0,0,0-39.813,3454.187Z" transform="translate(0 -61.166)" fill="#0f2771"/>
      <path id="Trazado_197672" data-name="Trazado 197672" d="M14.565,3397.1l-.014-3.207a9.622,9.622,0,0,0,6.79-9.236c-.014-2.913-.882-7.127-8.214-10.077-3.882-1.584-3.884-2.2-3.886-2.69a1.059,1.059,0,0,1,.343-.821,2.761,2.761,0,0,1,1.834-.509h.047a8.017,8.017,0,0,1,4.211,1.132,2.4,2.4,0,0,0,3.422-1.248l1.066-2.856a2.392,2.392,0,0,0-1.053-2.909,13.6,13.6,0,0,0-4.448-1.576l-.011-3.169a2.34,2.34,0,0,0-2.373-2.345h-.012l-2.678.013a2.263,2.263,0,0,0-1.68.728,2.393,2.393,0,0,0-.612,1.638l.013,3.622a9.066,9.066,0,0,0-6.525,8.858c.027,5.569,4.392,8.005,8.645,9.649,3.38,1.351,3.385,2.361,3.388,2.9a1.486,1.486,0,0,1-.6,1.245,3.524,3.524,0,0,1-2.137.606h-.041a9.026,9.026,0,0,1-4.858-1.43,2.412,2.412,0,0,0-2.085-.271,2.382,2.382,0,0,0-1.5,1.474l-1.023,2.9a2.36,2.36,0,0,0,.814,2.752,13.7,13.7,0,0,0,5.552,2.1l.011,2.761A2.341,2.341,0,0,0,7.8,3398.9a2.624,2.624,0,0,0,1.672.623h.011l2.721-.013A2.387,2.387,0,0,0,14.565,3397.1Zm-4.916-.28-.015-3.643a1.348,1.348,0,0,0-1.235-1.338,12.1,12.1,0,0,1-5.213-1.607l.831-2.353a11.91,11.91,0,0,0,6.075,1.672,6.113,6.113,0,0,0,3.79-1.181,4.19,4.19,0,0,0,1.636-3.382c-.011-2.361-1.532-3.975-5.1-5.4-4.149-1.6-6.916-3.433-6.934-7.151-.016-3.249,2.039-5.687,5.5-6.521a1.349,1.349,0,0,0,1.032-1.316L10,3360.3l1.958-.01.014,4a1.348,1.348,0,0,0,1.22,1.338,11.485,11.485,0,0,1,4.355,1.269l-.85,2.276a10.631,10.631,0,0,0-5.229-1.308H11.4a5.253,5.253,0,0,0-3.643,1.218,3.752,3.752,0,0,0-1.218,2.823c.012,2.474,1.805,3.641,5.568,5.176l.007,0c5.73,2.3,6.515,5.129,6.527,7.589.016,3.313-2.25,6.025-5.774,6.912a1.348,1.348,0,0,0-1.02,1.313l.017,3.913Z" transform="translate(-38.106 -26.977)" fill="#0f2771"/>
      <path id="Trazado_197673" data-name="Trazado 197673" d="M-34.5,3325.467a33.054,33.054,0,0,0-11.308,18.875,1.349,1.349,0,0,0,1.057,1.589,1.349,1.349,0,0,0,.267.027,1.35,1.35,0,0,0,1.321-1.083,30.344,30.344,0,0,1,28.507-24.247v4.649a1.349,1.349,0,0,0,1.349,1.349,1.349,1.349,0,0,0,1.349-1.349v-17.9a1.349,1.349,0,0,0-1.349-1.349,1.349,1.349,0,0,0-1.349,1.349v10.549A33.015,33.015,0,0,0-34.5,3325.467Z" transform="translate(-13.902)" fill="#0f2771"/>
      <path id="Trazado_197674" data-name="Trazado 197674" d="M-32.789,3428.322a30.471,30.471,0,0,1-17.477-10.255,29.962,29.962,0,0,1-6.981-18.118h4.826a1.349,1.349,0,0,0,1.349-1.348,1.349,1.349,0,0,0-1.349-1.35h-17.9a1.349,1.349,0,0,0-1.349,1.35,1.349,1.349,0,0,0,1.349,1.348h10.371a32.669,32.669,0,0,0,7.615,19.855A33.177,33.177,0,0,0-33.3,3430.969a1.374,1.374,0,0,0,.258.025,1.35,1.35,0,0,0,1.323-1.093A1.348,1.348,0,0,0-32.789,3428.322Z" transform="translate(-0.388 -47.726)" fill="#0f2771"/>
      <path id="Trazado_197675" data-name="Trazado 197675" d="M41.9,3431.027a33.33,33.33,0,0,0,11.126-18.791,1.349,1.349,0,1,0-2.643-.541,30.622,30.622,0,0,1-10.218,17.266,29.2,29.2,0,0,1-17.914,6.881v-4.651a1.349,1.349,0,0,0-2.7,0v17.9a1.349,1.349,0,0,0,2.7,0V3438.54A31.862,31.862,0,0,0,41.9,3431.027Z" transform="translate(-48.114 -54.718)" fill="#0f2771"/>
      <path id="Trazado_197676" data-name="Trazado 197676" d="M33.166,3334.855a30.324,30.324,0,0,1,24.356,28.352H53.054a1.349,1.349,0,1,0,0,2.7h17.9a1.349,1.349,0,0,0,0-2.7H60.22a33.027,33.027,0,0,0-26.532-31,1.349,1.349,0,0,0-.522,2.647Z" transform="translate(-54.666 -13.682)" fill="#0f2771"/>
    </g>
  </g>
</svg>
