<svg xmlns="http://www.w3.org/2000/svg" width="497" height="273" viewBox="0 0 497 273">
  <g id="Grupo_151992" data-name="Grupo 151992" transform="translate(6531.5 12192)">
    <path id="Rectángulo_41485" data-name="Rectángulo 41485" d="M0,0H497V273H0Z" transform="translate(-6531.5 -12192)" fill="#091743"/>
    <path id="Trazado_193496" data-name="Trazado 193496" d="M944.985,1387.452l3.26-11.5h1.967l-4.435,14.254h-1.566l-4.426-14.254h1.958Z" transform="translate(-7334.786 -13531.852)" fill="#fff"/>
    <path id="Trazado_193497" data-name="Trazado 193497" d="M957.883,1390.5a3.8,3.8,0,0,1-.225-1.155,2.754,2.754,0,0,1-2.35,1.351,3.037,3.037,0,0,1-2.246-.808,3.077,3.077,0,0,1-.808-2.277,3.215,3.215,0,0,1,1.1-2.564,4.512,4.512,0,0,1,3.005-.97h1.273v-1.126a1.486,1.486,0,0,0-1.7-1.752,1.777,1.777,0,0,0-1.273.465,1.559,1.559,0,0,0-.489,1.18H952.43a2.8,2.8,0,0,1,.48-1.551,3.333,3.333,0,0,1,1.292-1.161,3.872,3.872,0,0,1,1.811-.421,3.447,3.447,0,0,1,2.472.808,3.162,3.162,0,0,1,.867,2.354v5.345a6.447,6.447,0,0,0,.332,2.125v.157Zm-2.311-1.381a2.3,2.3,0,0,0,1.215-.352,2.181,2.181,0,0,0,.842-.881v-2.526h-.979a3.278,3.278,0,0,0-1.948.553,1.757,1.757,0,0,0-.715,1.493,1.937,1.937,0,0,0,.362,1.307A1.573,1.573,0,0,0,955.572,1389.12Z" transform="translate(-7335.771 -13532.148)" fill="#fff"/>
    <path id="Trazado_193498" data-name="Trazado 193498" d="M967.248,1381.532a4.359,4.359,0,0,0-.784-.068,1.9,1.9,0,0,0-1.86,1.459v7.578h-1.732v-10.592h1.684l.029,1.077a2.158,2.158,0,0,1,1.968-1.273,1.538,1.538,0,0,1,.685.136Z" transform="translate(-7336.608 -13532.148)" fill="#fff"/>
    <path id="Trazado_193499" data-name="Trazado 193499" d="M971.5,1376.784a1.111,1.111,0,0,1-.245.734.912.912,0,0,1-.743.294.9.9,0,0,1-.735-.294,1.111,1.111,0,0,1-.245-.734,1.149,1.149,0,0,1,.245-.744,1.038,1.038,0,0,1,1.473,0A1.141,1.141,0,0,1,971.5,1376.784Zm-.137,13.4h-1.732v-10.592h1.732Z" transform="translate(-7337.135 -13531.835)" fill="#fff"/>
    <path id="Trazado_193500" data-name="Trazado 193500" d="M979.917,1390.5a3.805,3.805,0,0,1-.225-1.155,2.753,2.753,0,0,1-2.35,1.351,3.037,3.037,0,0,1-2.246-.808,3.077,3.077,0,0,1-.808-2.277,3.216,3.216,0,0,1,1.1-2.564,4.507,4.507,0,0,1,3-.97h1.273v-1.126a1.486,1.486,0,0,0-1.7-1.752,1.773,1.773,0,0,0-1.272.465,1.556,1.556,0,0,0-.49,1.18h-1.732a2.8,2.8,0,0,1,.48-1.551,3.339,3.339,0,0,1,1.292-1.161,3.873,3.873,0,0,1,1.811-.421,3.447,3.447,0,0,1,2.472.808,3.162,3.162,0,0,1,.867,2.354v5.345a6.445,6.445,0,0,0,.332,2.125v.157Zm-2.31-1.381a2.294,2.294,0,0,0,1.214-.352,2.176,2.176,0,0,0,.842-.881v-2.526h-.978a3.279,3.279,0,0,0-1.949.553,1.757,1.757,0,0,0-.715,1.493,1.937,1.937,0,0,0,.362,1.307A1.575,1.575,0,0,0,977.607,1389.12Z" transform="translate(-7337.51 -13532.148)" fill="#fff"/>
    <path id="Trazado_193501" data-name="Trazado 193501" d="M986.541,1379.908l.049,1.145a3.091,3.091,0,0,1,2.574-1.341q2.81,0,2.849,3.749v7.04H990.29v-6.961a2.881,2.881,0,0,0-.416-1.766,1.5,1.5,0,0,0-1.248-.523,1.753,1.753,0,0,0-1.16.431,3.088,3.088,0,0,0-.828,1.125v7.7h-1.732v-10.592Z" transform="translate(-7338.348 -13532.148)" fill="#fff"/>
    <path id="Trazado_193502" data-name="Trazado 193502" d="M997.013,1389.039h5.109v1.478h-7.088v-1.332l4.857-7.763h-4.817v-1.5h6.853v1.281Z" transform="translate(-7339.147 -13532.165)" fill="#fff"/>
    <path id="Trazado_193503" data-name="Trazado 193503" d="M1010.432,1390.5a3.806,3.806,0,0,1-.225-1.155,2.755,2.755,0,0,1-2.35,1.351,3.037,3.037,0,0,1-2.246-.808,3.077,3.077,0,0,1-.808-2.277,3.215,3.215,0,0,1,1.1-2.564,4.512,4.512,0,0,1,3.005-.97h1.273v-1.126a1.486,1.486,0,0,0-1.7-1.752,1.777,1.777,0,0,0-1.273.465,1.559,1.559,0,0,0-.489,1.18h-1.733a2.8,2.8,0,0,1,.48-1.551,3.332,3.332,0,0,1,1.292-1.161,3.872,3.872,0,0,1,1.811-.421,3.443,3.443,0,0,1,2.471.808,3.159,3.159,0,0,1,.868,2.354v5.345a6.45,6.45,0,0,0,.333,2.125v.157Zm-2.311-1.381a2.3,2.3,0,0,0,1.215-.352,2.182,2.182,0,0,0,.842-.881v-2.526h-.979a3.278,3.278,0,0,0-1.948.553,1.755,1.755,0,0,0-.715,1.493,1.932,1.932,0,0,0,.362,1.307A1.573,1.573,0,0,0,1008.122,1389.12Z" transform="translate(-7339.919 -13532.148)" fill="#fff"/>
    <path id="Trazado_193504" data-name="Trazado 193504" d="M1027.44,1382.637h-6.863v-1.575h6.863Zm0,4.064h-6.863v-1.567h6.863Z" transform="translate(-7341.164 -13532.255)" fill="#fff"/>
    <path id="Trazado_193505" data-name="Trazado 193505" d="M1042.119,1384.554l-4.886,6.794h7.324v1.489h-9.291v-1.4l5.032-7.01-5.032-7.068v-1.409h8.625v1.488h-6.667l4.895,6.873Z" transform="translate(-7342.324 -13531.852)" fill="#fff"/>
    <path id="Trazado_199081" data-name="Trazado 199081" d="M0,0H125.008" transform="translate(-6292.3 -12147.054)" fill="none" stroke="#4dd0e1" stroke-width="1"/>
    <path id="Trazado_193506" data-name="Trazado 193506" d="M1059.248,1370.718a14.267,14.267,0,0,1,.606-4.213,11.263,11.263,0,0,1,1.718-3.461,5.66,5.66,0,0,1,1.3-1.314l.3,1.041a7.191,7.191,0,0,0-1.684,2.961,15.106,15.106,0,0,0-.719,4.4l-.007.693a15.352,15.352,0,0,0,.846,5.314,7.544,7.544,0,0,0,1.563,2.684l-.3.965a6.3,6.3,0,0,1-1.6-1.744A12.933,12.933,0,0,1,1059.248,1370.718Z" transform="translate(-7344.217 -13530.729)" fill="#fff"/>
    <path id="Trazado_193507" data-name="Trazado 193507" d="M1071.347,1368.574a3.606,3.606,0,0,1,.634.889,12,12,0,0,1,.5,1.615l.752-1.128a4.693,4.693,0,0,1,.727-.781,2.95,2.95,0,0,1,.752-.508,1.149,1.149,0,0,1,.453-.087.843.843,0,0,1,.585.2.623.623,0,0,1,.218.479.6.6,0,0,1-.128.444.8.8,0,0,1-.547.213,1.092,1.092,0,0,1-.385-.076,2.178,2.178,0,0,0-.538-.136.819.819,0,0,0-.487.24,6.756,6.756,0,0,0-1.265,1.717l.7,2.939a2.613,2.613,0,0,0,.274.808.3.3,0,0,0,.222.133.7.7,0,0,0,.419-.2,3.321,3.321,0,0,0,.8-1.025l.3.154a5.356,5.356,0,0,1-1.367,1.674,1.384,1.384,0,0,1-.795.376.851.851,0,0,1-.761-.538,21.058,21.058,0,0,1-.742-2.871,12.106,12.106,0,0,1-2.138,2.982,1.608,1.608,0,0,1-1.007.427.921.921,0,0,1-.624-.248.649.649,0,0,1-.205-.5.641.641,0,0,1,.188-.47.625.625,0,0,1,.462-.189.907.907,0,0,1,.581.274.628.628,0,0,0,.342.2.466.466,0,0,0,.264-.137,6.441,6.441,0,0,0,1.094-1.4,13.641,13.641,0,0,0,.906-1.556q-.531-2.075-.573-2.2a1.612,1.612,0,0,0-.512-.786,1.578,1.578,0,0,0-.931-.23q-.2,0-.453.017v-.308Z" transform="translate(-7344.885 -13531.27)" fill="#fff"/>
    <path id="Trazado_193508" data-name="Trazado 193508" d="M1079.185,1378.233l-.987,3.492a2.62,2.62,0,0,0-.1.424.182.182,0,0,0,.048.13.148.148,0,0,0,.112.05.323.323,0,0,0,.18-.079,3,3,0,0,0,.573-.638l.175.114a3.544,3.544,0,0,1-.8.872,1.069,1.069,0,0,1-.647.264.465.465,0,0,1-.333-.122.4.4,0,0,1-.13-.306,2.57,2.57,0,0,1,.125-.613l.648-2.232a3.609,3.609,0,0,0,.159-.687.231.231,0,0,0-.077-.18.306.306,0,0,0-.211-.07,3.678,3.678,0,0,0-.454.055v-.194Zm-.066-1.977a.492.492,0,1,1-.354.144A.481.481,0,0,1,1079.12,1376.256Z" transform="translate(-7345.641 -13531.876)" fill="#fff"/>
    <path id="Trazado_193509" data-name="Trazado 193509" d="M1086.613,1371.823h-3.53v-1.291h3.53Z" transform="translate(-7346.099 -13531.424)" fill="#fff"/>
    <path id="Trazado_193510" data-name="Trazado 193510" d="M1099.618,1371.985a5.533,5.533,0,0,1-.79,3.273,2.608,2.608,0,0,1-2.234,1.077,2.481,2.481,0,0,1-2.144-1.05v4.434h-1.5v-12.8h1.368l.076,1.025a2.433,2.433,0,0,1,2.179-1.2,2.6,2.6,0,0,1,2.272,1.059,5.6,5.6,0,0,1,.777,3.171Zm-1.5-.863a4.3,4.3,0,0,0-.479-2.294,1.7,1.7,0,0,0-1.538-.74,1.781,1.781,0,0,0-1.649,1.086v4.811a1.783,1.783,0,0,0,1.666,1.06,1.672,1.672,0,0,0,1.508-.74,4.246,4.246,0,0,0,.492-2.26Z" transform="translate(-7346.877 -13531.125)" fill="#fff"/>
    <path id="Trazado_193511" data-name="Trazado 193511" d="M1106.125,1368.337a3.69,3.69,0,0,0-.683-.06,1.658,1.658,0,0,0-1.623,1.273v6.614h-1.512v-9.245h1.469l.026.939a1.882,1.882,0,0,1,1.718-1.111,1.323,1.323,0,0,1,.6.12Z" transform="translate(-7347.617 -13531.125)" fill="#fff"/>
    <path id="Trazado_193512" data-name="Trazado 193512" d="M1107.557,1371.114a4.838,4.838,0,0,1,.978-3.192,3.461,3.461,0,0,1,5.17-.029,4.743,4.743,0,0,1,1,3.12v.974a4.816,4.816,0,0,1-.974,3.179,3.478,3.478,0,0,1-5.175.034,4.718,4.718,0,0,1-1-3.076Zm1.512.871a3.908,3.908,0,0,0,.56,2.243,1.742,1.742,0,0,0,1.508.817q2,0,2.06-2.889v-1.042a3.911,3.911,0,0,0-.564-2.243,1.748,1.748,0,0,0-1.512-.825,1.723,1.723,0,0,0-1.491.825,3.916,3.916,0,0,0-.56,2.234Z" transform="translate(-7348.031 -13531.125)" fill="#fff"/>
    <path id="Trazado_193513" data-name="Trazado 193513" d="M1118.865,1366.918l.034.854a2.752,2.752,0,0,1,2.231-1.025,2.189,2.189,0,0,1,2.163,1.341,2.743,2.743,0,0,1,2.427-1.341q2.553,0,2.614,3.187v6.23h-1.5v-6.084a2.547,2.547,0,0,0-.358-1.5,1.405,1.405,0,0,0-1.214-.492,1.36,1.36,0,0,0-1.11.531,2.4,2.4,0,0,0-.5,1.349v6.2h-1.521v-6.153q-.026-1.923-1.564-1.923a1.644,1.644,0,0,0-1.615,1.146v6.93h-1.5v-9.245Z" transform="translate(-7348.812 -13531.125)" fill="#fff"/>
    <path id="Trazado_193514" data-name="Trazado 193514" d="M1135.015,1376.334a3.369,3.369,0,0,1-2.648-1.03,4.447,4.447,0,0,1-.94-3.02v-1.12a5.212,5.212,0,0,1,.9-3.243,3,3,0,0,1,2.516-1.174,2.881,2.881,0,0,1,2.426,1.034,5.311,5.311,0,0,1,.821,3.222v.991h-5.161v.215a3.369,3.369,0,0,0,.56,2.161,1.971,1.971,0,0,0,1.611.676,2.607,2.607,0,0,0,1.174-.253,2.906,2.906,0,0,0,.953-.8l.785.957A3.431,3.431,0,0,1,1135.015,1376.334Zm-.17-8.289a1.587,1.587,0,0,0-1.393.645,3.828,3.828,0,0,0-.513,2h3.64v-.2a3.519,3.519,0,0,0-.473-1.88A1.461,1.461,0,0,0,1134.845,1368.046Z" transform="translate(-7349.916 -13531.125)" fill="#fff"/>
    <path id="Trazado_193515" data-name="Trazado 193515" d="M1140.287,1370.8a5.561,5.561,0,0,1,.8-3.255,2.645,2.645,0,0,1,2.294-1.12,2.374,2.374,0,0,1,2.068,1.077v-4.785h1.512v13.125h-1.384l-.076-.991a2.383,2.383,0,0,1-2.128,1.161,2.635,2.635,0,0,1-2.252-1.115,5.342,5.342,0,0,1-.834-3.148Zm1.513.859a4.379,4.379,0,0,0,.461,2.282,1.641,1.641,0,0,0,1.5.729,1.789,1.789,0,0,0,1.684-1.134v-4.661a1.819,1.819,0,0,0-1.675-1.11,1.645,1.645,0,0,0-1.5.73,4.325,4.325,0,0,0-.469,2.24Z" transform="translate(-7350.615 -13530.808)" fill="#fff"/>
    <path id="Trazado_193516" data-name="Trazado 193516" d="M1151.812,1364.192a.971.971,0,0,1-.214.641.8.8,0,0,1-.65.256.785.785,0,0,1-.64-.256.965.965,0,0,1-.214-.641,1,1,0,0,1,.214-.65.774.774,0,0,1,.64-.264.784.784,0,0,1,.646.269A1,1,0,0,1,1151.812,1364.192Zm-.121,11.7h-1.511v-9.245h1.511Z" transform="translate(-7351.389 -13530.852)" fill="#fff"/>
    <path id="Trazado_193517" data-name="Trazado 193517" d="M1154.063,1371.114a4.837,4.837,0,0,1,.979-3.192,3.461,3.461,0,0,1,5.17-.029,4.741,4.741,0,0,1,1,3.12v.974a4.811,4.811,0,0,1-.974,3.179,3.477,3.477,0,0,1-5.174.034,4.723,4.723,0,0,1-1-3.076Zm1.513.871a3.916,3.916,0,0,0,.559,2.243,1.744,1.744,0,0,0,1.509.817q2,0,2.059-2.889v-1.042a3.918,3.918,0,0,0-.564-2.243,1.748,1.748,0,0,0-1.512-.825,1.725,1.725,0,0,0-1.492.825,3.924,3.924,0,0,0-.559,2.234Z" transform="translate(-7351.703 -13531.125)" fill="#fff"/>
    <path id="Trazado_193518" data-name="Trazado 193518" d="M1171.495,1370.8a13.143,13.143,0,0,1-1.709,6.742,6.777,6.777,0,0,1-1.915,2.239l-.3-.965a7.314,7.314,0,0,0,1.735-3.158,16.016,16.016,0,0,0,.674-4.652v-.308a14.975,14.975,0,0,0-1.068-5.811,7.272,7.272,0,0,0-1.341-2.2l.3-.964a6.578,6.578,0,0,1,1.82,2.075A13.239,13.239,0,0,1,1171.495,1370.8Z" transform="translate(-7352.769 -13530.729)" fill="#fff"/>
    <path id="Trazado_193519" data-name="Trazado 193519" d="M1178.291,1370.2h-4.375v-.923l2.188-2.461a2.4,2.4,0,0,0,.7-1.416,1.076,1.076,0,0,0-.2-.682.706.706,0,0,0-.59-.261.819.819,0,0,0-.722.324,1.39,1.39,0,0,0-.226.813h-1.274a2.209,2.209,0,0,1,.611-1.6,2.1,2.1,0,0,1,1.577-.63,2.125,2.125,0,0,1,1.547.542,1.981,1.981,0,0,1,.554,1.483,2.9,2.9,0,0,1-.828,1.872l-1.718,1.846h2.759Z" transform="translate(-7353.26 -13530.857)" fill="#fff"/>
    <path id="Trazado_193520" data-name="Trazado 193520" d="M1117.768,1393.691l-1.256,4.3a20.036,20.036,0,0,1,2.706-3.465,2.788,2.788,0,0,1,1.808-.832,1.05,1.05,0,0,1,.779.311,1.11,1.11,0,0,1,.307.812,5.761,5.761,0,0,1-.274,1.511l-1.152,3.976a4.843,4.843,0,0,0-.2.84.331.331,0,0,0,.075.222.211.211,0,0,0,.16.089.484.484,0,0,0,.274-.123,6.292,6.292,0,0,0,1.1-1.208l.292.18a7.06,7.06,0,0,1-1.661,1.793,1.814,1.814,0,0,1-.983.369.74.74,0,0,1-.556-.213.779.779,0,0,1-.208-.572,6.587,6.587,0,0,1,.321-1.557l1.1-3.8a4.215,4.215,0,0,0,.208-1.105.409.409,0,0,0-.122-.307.424.424,0,0,0-.3-.118,1.268,1.268,0,0,0-.634.227,5.668,5.668,0,0,0-1.454,1.4,19.8,19.8,0,0,0-1.6,2.5,9.2,9.2,0,0,0-.736,1.757l-.473,1.558h-1.416l1.718-5.912a7.793,7.793,0,0,0,.3-1.285.485.485,0,0,0-.165-.363.573.573,0,0,0-.411-.156,3.39,3.39,0,0,0-.4.038l-.359.055-.056-.34Z" transform="translate(-7348.529 -13533.253)" fill="#fff"/>
    <path id="Trazado_199082" data-name="Trazado 199082" d="M0,0H437" transform="translate(-6496.5 -12083.853)" fill="none" stroke="#4dd0e1" stroke-width="1.578"/>
    <path id="Trazado_199083" data-name="Trazado 199083" d="M1.26-5.771a16.3,16.3,0,0,1,.693-4.814,12.852,12.852,0,0,1,1.963-3.955,6.5,6.5,0,0,1,1.484-1.5l.342,1.191A8.2,8.2,0,0,0,3.818-11.47,17.218,17.218,0,0,0,3-6.445l-.01.791A17.592,17.592,0,0,0,3.955.42,8.646,8.646,0,0,0,5.742,3.486L5.4,4.59A7.19,7.19,0,0,1,3.574,2.6,14.784,14.784,0,0,1,1.26-5.771ZM14.209-7.988h1.1a2.07,2.07,0,0,0,1.641-.654,2.61,2.61,0,0,0,.576-1.787q0-2.5-1.934-2.5a1.745,1.745,0,0,0-1.455.674,2.786,2.786,0,0,0-.527,1.768H11.895a3.954,3.954,0,0,1,1.04-2.817A3.488,3.488,0,0,1,15.6-14.414a3.483,3.483,0,0,1,2.666,1.05,4.177,4.177,0,0,1,.986,2.974,3.516,3.516,0,0,1-.513,1.841A3.161,3.161,0,0,1,17.4-7.295a3.152,3.152,0,0,1,2.012,3.33,4.249,4.249,0,0,1-1.06,3.032A3.624,3.624,0,0,1,15.586.2,3.636,3.636,0,0,1,12.856-.874a3.949,3.949,0,0,1-1.04-2.876h1.729a2.762,2.762,0,0,0,.547,1.8,1.826,1.826,0,0,0,1.494.669,1.938,1.938,0,0,0,1.538-.654A2.964,2.964,0,0,0,17.7-3.926q0-2.588-2.451-2.588H14.209ZM29.8-5.3H25.771V-6.777H29.8Zm8.4-2.686h1.1a2.07,2.07,0,0,0,1.641-.654,2.61,2.61,0,0,0,.576-1.787q0-2.5-1.934-2.5a1.745,1.745,0,0,0-1.455.674,2.786,2.786,0,0,0-.527,1.768H35.889a3.954,3.954,0,0,1,1.04-2.817,3.488,3.488,0,0,1,2.661-1.108,3.483,3.483,0,0,1,2.666,1.05,4.177,4.177,0,0,1,.986,2.974,3.516,3.516,0,0,1-.513,1.841A3.161,3.161,0,0,1,41.4-7.295a3.152,3.152,0,0,1,2.012,3.33,4.249,4.249,0,0,1-1.06,3.032A3.624,3.624,0,0,1,39.58.2,3.636,3.636,0,0,1,36.851-.874a3.949,3.949,0,0,1-1.04-2.876h1.729a2.762,2.762,0,0,0,.547,1.8,1.826,1.826,0,0,0,1.494.669,1.938,1.938,0,0,0,1.538-.654,2.964,2.964,0,0,0,.571-1.992q0-2.588-2.451-2.588H38.2Zm7.93,7.041a1.131,1.131,0,0,1,.278-.781,1.061,1.061,0,0,1,.835-.312,1.092,1.092,0,0,1,.845.313,1.109,1.109,0,0,1,.288.781,1.048,1.048,0,0,1-.288.752,1.112,1.112,0,0,1-.845.3,1.079,1.079,0,0,1-.835-.3A1.069,1.069,0,0,1,46.133-.947ZM57.148-14.229V-12.7h-.283a3.5,3.5,0,0,0-2.705,1.167,5.651,5.651,0,0,0-1.123,3.394,2.96,2.96,0,0,1,2.422-1.191,2.909,2.909,0,0,1,2.5,1.294,5.719,5.719,0,0,1,.923,3.394A5.576,5.576,0,0,1,57.856-1.1,3.3,3.3,0,0,1,55.117.2a3.234,3.234,0,0,1-2.783-1.533A7.061,7.061,0,0,1,51.279-5.41V-6.1a13.966,13.966,0,0,1,.635-4.668,5.142,5.142,0,0,1,1.87-2.583,5.477,5.477,0,0,1,3.071-.874ZM55.166-7.822a1.9,1.9,0,0,0-1.3.537,3.037,3.037,0,0,0-.859,1.367v.713a5.728,5.728,0,0,0,.61,2.817,1.756,1.756,0,0,0,1.5,1.089,1.694,1.694,0,0,0,1.514-.894,4.477,4.477,0,0,0,.547-2.358,4.541,4.541,0,0,0-.547-2.358A1.652,1.652,0,0,0,55.166-7.822Zm9.707,2.148A15.013,15.013,0,0,1,62.92,2.031,7.741,7.741,0,0,1,60.732,4.59l-.342-1.1A8.357,8.357,0,0,0,62.373-.122a18.318,18.318,0,0,0,.771-5.317v-.352a17.128,17.128,0,0,0-1.221-6.641,8.327,8.327,0,0,0-1.533-2.51l.342-1.1a7.515,7.515,0,0,1,2.08,2.373A15.126,15.126,0,0,1,64.873-5.674ZM71.534-7H66.9v-.758l2.364-3.133A6.884,6.884,0,0,0,70-12.078a2.377,2.377,0,0,0,.208-.983,1.739,1.739,0,0,0-.308-1.071.964.964,0,0,0-.809-.41,1.173,1.173,0,0,0-.977.436,1.987,1.987,0,0,0-.345,1.256H66.766a2.686,2.686,0,0,1,.627-1.851,2.161,2.161,0,0,1,1.7-.706,2.037,2.037,0,0,1,1.561.607,2.263,2.263,0,0,1,.57,1.615,5.121,5.121,0,0,1-1.282,2.911L68.1-7.86h3.435ZM82.39-7.627H85.6v1.709H82.39v4.492H80.652V-5.918H77.409V-7.627h3.242v-4.15H82.39Zm9.951,1.855a16.3,16.3,0,0,1,.693-4.814A12.852,12.852,0,0,1,95-14.541a6.5,6.5,0,0,1,1.484-1.5l.342,1.191A8.205,8.205,0,0,0,94.9-11.47a17.218,17.218,0,0,0-.82,5.024l-.01.791A17.592,17.592,0,0,0,95.036.42a8.646,8.646,0,0,0,1.787,3.066l-.342,1.1A7.19,7.19,0,0,1,94.655,2.6,14.784,14.784,0,0,1,92.341-5.771Zm17.285,1h1.582V-3.3h-1.582V0H107.9V-3.3h-5.371V-4.365l5.283-9.854h1.816Zm-5.186,0H107.9v-6.758ZM120.886-5.3h-4.033V-6.777h4.033Zm8.4-2.686h1.1a2.07,2.07,0,0,0,1.641-.654,2.61,2.61,0,0,0,.576-1.787q0-2.5-1.934-2.5a1.745,1.745,0,0,0-1.455.674,2.786,2.786,0,0,0-.527,1.768H126.97a3.954,3.954,0,0,1,1.04-2.817,3.488,3.488,0,0,1,2.661-1.108,3.483,3.483,0,0,1,2.666,1.05,4.177,4.177,0,0,1,.986,2.974,3.516,3.516,0,0,1-.513,1.841,3.161,3.161,0,0,1-1.333,1.255,3.152,3.152,0,0,1,2.012,3.33,4.249,4.249,0,0,1-1.06,3.032A3.624,3.624,0,0,1,130.661.2a3.636,3.636,0,0,1-2.729-1.069,3.949,3.949,0,0,1-1.04-2.876h1.729a2.762,2.762,0,0,0,.547,1.8,1.826,1.826,0,0,0,1.494.669,1.938,1.938,0,0,0,1.538-.654,2.964,2.964,0,0,0,.571-1.992q0-2.588-2.451-2.588h-1.035Zm7.93,7.041a1.131,1.131,0,0,1,.278-.781,1.061,1.061,0,0,1,.835-.312,1.092,1.092,0,0,1,.845.313,1.109,1.109,0,0,1,.288.781,1.048,1.048,0,0,1-.288.752,1.112,1.112,0,0,1-.845.3,1.079,1.079,0,0,1-.835-.3A1.069,1.069,0,0,1,137.214-.947ZM148.23-14.229V-12.7h-.283a3.5,3.5,0,0,0-2.705,1.167,5.651,5.651,0,0,0-1.123,3.394,2.96,2.96,0,0,1,2.422-1.191,2.909,2.909,0,0,1,2.5,1.294,5.719,5.719,0,0,1,.923,3.394A5.576,5.576,0,0,1,148.938-1.1,3.3,3.3,0,0,1,146.2.2a3.234,3.234,0,0,1-2.783-1.533,7.061,7.061,0,0,1-1.055-4.072V-6.1A13.966,13.966,0,0,1,143-10.771a5.142,5.142,0,0,1,1.87-2.583,5.477,5.477,0,0,1,3.071-.874Zm-1.982,6.406a1.9,1.9,0,0,0-1.3.537,3.037,3.037,0,0,0-.859,1.367v.713a5.728,5.728,0,0,0,.61,2.817A1.756,1.756,0,0,0,146.2-1.3a1.694,1.694,0,0,0,1.514-.894,4.477,4.477,0,0,0,.547-2.358,4.541,4.541,0,0,0-.547-2.358A1.652,1.652,0,0,0,146.247-7.822Zm9.707,2.148A15.013,15.013,0,0,1,154,2.031a7.741,7.741,0,0,1-2.187,2.559l-.342-1.1a8.357,8.357,0,0,0,1.982-3.608,18.318,18.318,0,0,0,.771-5.317v-.352a17.128,17.128,0,0,0-1.221-6.641,8.327,8.327,0,0,0-1.533-2.51l.342-1.1a7.515,7.515,0,0,1,2.08,2.373A15.126,15.126,0,0,1,155.954-5.674ZM162.615-7h-4.637v-.758l2.364-3.133a6.885,6.885,0,0,0,.743-1.188,2.377,2.377,0,0,0,.208-.983,1.739,1.739,0,0,0-.308-1.071.964.964,0,0,0-.809-.41,1.173,1.173,0,0,0-.977.436,1.987,1.987,0,0,0-.345,1.256h-1.008a2.686,2.686,0,0,1,.627-1.851,2.161,2.161,0,0,1,1.7-.706,2.037,2.037,0,0,1,1.561.607,2.263,2.263,0,0,1,.57,1.615,5.121,5.121,0,0,1-1.282,2.911L159.18-7.86h3.435Zm10.856-.627h3.213v1.709h-3.213v4.492h-1.738V-5.918h-3.242V-7.627h3.242v-4.15h1.738Zm9.951,1.855a16.3,16.3,0,0,1,.693-4.814,12.852,12.852,0,0,1,1.963-3.955,6.5,6.5,0,0,1,1.484-1.5l.342,1.191a8.2,8.2,0,0,0-1.924,3.384,17.219,17.219,0,0,0-.82,5.024l-.01.791A17.592,17.592,0,0,0,186.117.42,8.646,8.646,0,0,0,187.9,3.486l-.342,1.1A7.19,7.19,0,0,1,185.737,2.6,14.784,14.784,0,0,1,183.422-5.771Zm11.445-1.357.615-7.09h6.182v1.67h-4.727l-.332,3.877a3.24,3.24,0,0,1,1.895-.615A3.058,3.058,0,0,1,201.108-8a5.731,5.731,0,0,1,.947,3.467,5.323,5.323,0,0,1-1.03,3.467A3.455,3.455,0,0,1,198.2.2,3.457,3.457,0,0,1,195.59-.85a4.54,4.54,0,0,1-1.152-2.891h1.621a3.313,3.313,0,0,0,.7,1.841,1.837,1.837,0,0,0,1.44.62,1.777,1.777,0,0,0,1.572-.874,4.293,4.293,0,0,0,.566-2.358,3.906,3.906,0,0,0-.61-2.275,1.906,1.906,0,0,0-1.646-.879,2.027,2.027,0,0,0-1.377.449l-.459.459Zm17.1,1.826h-4.033V-6.777h4.033Zm8.4-2.686h1.1a2.07,2.07,0,0,0,1.641-.654,2.61,2.61,0,0,0,.576-1.787q0-2.5-1.934-2.5a1.745,1.745,0,0,0-1.455.674,2.786,2.786,0,0,0-.527,1.768h-1.719a3.954,3.954,0,0,1,1.04-2.817,3.488,3.488,0,0,1,2.661-1.108,3.483,3.483,0,0,1,2.666,1.05,4.177,4.177,0,0,1,.986,2.974,3.516,3.516,0,0,1-.513,1.841,3.161,3.161,0,0,1-1.333,1.255,3.152,3.152,0,0,1,2.012,3.33,4.249,4.249,0,0,1-1.06,3.032A3.624,3.624,0,0,1,221.742.2a3.636,3.636,0,0,1-2.729-1.069,3.949,3.949,0,0,1-1.04-2.876H219.7a2.762,2.762,0,0,0,.547,1.8,1.826,1.826,0,0,0,1.494.669,1.938,1.938,0,0,0,1.538-.654,2.964,2.964,0,0,0,.571-1.992q0-2.588-2.451-2.588h-1.035ZM228.3-.947a1.131,1.131,0,0,1,.278-.781,1.061,1.061,0,0,1,.835-.312,1.092,1.092,0,0,1,.845.313,1.109,1.109,0,0,1,.288.781,1.048,1.048,0,0,1-.288.752,1.112,1.112,0,0,1-.845.3,1.079,1.079,0,0,1-.835-.3A1.069,1.069,0,0,1,228.3-.947Zm11.016-13.281V-12.7h-.283a3.5,3.5,0,0,0-2.705,1.167A5.651,5.651,0,0,0,235.2-8.135a2.96,2.96,0,0,1,2.422-1.191,2.909,2.909,0,0,1,2.5,1.294,5.719,5.719,0,0,1,.923,3.394A5.576,5.576,0,0,1,240.019-1.1,3.3,3.3,0,0,1,237.28.2,3.234,3.234,0,0,1,234.5-1.338a7.061,7.061,0,0,1-1.055-4.072V-6.1a13.966,13.966,0,0,1,.635-4.668,5.142,5.142,0,0,1,1.87-2.583,5.477,5.477,0,0,1,3.071-.874Zm-1.982,6.406a1.9,1.9,0,0,0-1.3.537,3.037,3.037,0,0,0-.859,1.367v.713a5.728,5.728,0,0,0,.61,2.817,1.756,1.756,0,0,0,1.5,1.089,1.694,1.694,0,0,0,1.514-.894,4.477,4.477,0,0,0,.547-2.358,4.541,4.541,0,0,0-.547-2.358A1.652,1.652,0,0,0,237.328-7.822Zm9.707,2.148a15.013,15.013,0,0,1-1.953,7.705,7.741,7.741,0,0,1-2.187,2.559l-.342-1.1a8.357,8.357,0,0,0,1.982-3.608,18.318,18.318,0,0,0,.771-5.317v-.352a17.128,17.128,0,0,0-1.221-6.641,8.327,8.327,0,0,0-1.533-2.51l.342-1.1a7.515,7.515,0,0,1,2.08,2.373A15.126,15.126,0,0,1,247.035-5.674ZM253.7-7h-4.637v-.758l2.364-3.133a6.885,6.885,0,0,0,.743-1.188,2.377,2.377,0,0,0,.208-.983,1.739,1.739,0,0,0-.308-1.071.964.964,0,0,0-.809-.41,1.173,1.173,0,0,0-.977.436,1.987,1.987,0,0,0-.345,1.256h-1.008a2.686,2.686,0,0,1,.627-1.851,2.161,2.161,0,0,1,1.7-.706,2.037,2.037,0,0,1,1.561.607,2.263,2.263,0,0,1,.57,1.615,5.121,5.121,0,0,1-1.282,2.911L250.261-7.86H253.7Zm10.856-.627h3.213v1.709h-3.213v4.492h-1.738V-5.918h-3.242V-7.627h3.242v-4.15h1.738ZM274.5-5.771a16.3,16.3,0,0,1,.693-4.814,12.853,12.853,0,0,1,1.963-3.955,6.5,6.5,0,0,1,1.484-1.5l.342,1.191a8.205,8.205,0,0,0-1.924,3.384,17.218,17.218,0,0,0-.82,5.024l-.01.791A17.592,17.592,0,0,0,277.2.42a8.646,8.646,0,0,0,1.787,3.066l-.342,1.1A7.19,7.19,0,0,1,276.818,2.6,14.784,14.784,0,0,1,274.5-5.771Zm12.178-8.457V-12.7H286.4a3.5,3.5,0,0,0-2.705,1.167,5.651,5.651,0,0,0-1.123,3.394,2.96,2.96,0,0,1,2.422-1.191,2.909,2.909,0,0,1,2.5,1.294,5.719,5.719,0,0,1,.923,3.394A5.576,5.576,0,0,1,287.389-1.1,3.3,3.3,0,0,1,284.65.2a3.234,3.234,0,0,1-2.783-1.533,7.061,7.061,0,0,1-1.055-4.072V-6.1a13.966,13.966,0,0,1,.635-4.668,5.142,5.142,0,0,1,1.87-2.583,5.477,5.477,0,0,1,3.071-.874ZM284.7-7.822a1.9,1.9,0,0,0-1.3.537,3.037,3.037,0,0,0-.859,1.367v.713a5.728,5.728,0,0,0,.61,2.817,1.756,1.756,0,0,0,1.5,1.089,1.694,1.694,0,0,0,1.514-.894,4.477,4.477,0,0,0,.547-2.358,4.541,4.541,0,0,0-.547-2.358A1.652,1.652,0,0,0,284.7-7.822Zm13.77,2.52h-4.033V-6.777h4.033Zm8.4-2.686h1.1a2.07,2.07,0,0,0,1.641-.654,2.61,2.61,0,0,0,.576-1.787q0-2.5-1.934-2.5a1.745,1.745,0,0,0-1.455.674,2.786,2.786,0,0,0-.527,1.768h-1.719a3.954,3.954,0,0,1,1.04-2.817,3.488,3.488,0,0,1,2.661-1.108,3.483,3.483,0,0,1,2.666,1.05,4.177,4.177,0,0,1,.986,2.974,3.516,3.516,0,0,1-.513,1.841,3.161,3.161,0,0,1-1.333,1.255,3.152,3.152,0,0,1,2.012,3.33,4.249,4.249,0,0,1-1.06,3.032A3.624,3.624,0,0,1,308.244.2a3.636,3.636,0,0,1-2.729-1.069,3.949,3.949,0,0,1-1.04-2.876H306.2a2.762,2.762,0,0,0,.547,1.8,1.826,1.826,0,0,0,1.494.669,1.938,1.938,0,0,0,1.538-.654,2.964,2.964,0,0,0,.571-1.992q0-2.588-2.451-2.588h-1.035ZM314.8-.947a1.131,1.131,0,0,1,.278-.781,1.061,1.061,0,0,1,.835-.312,1.092,1.092,0,0,1,.845.313,1.109,1.109,0,0,1,.288.781,1.048,1.048,0,0,1-.288.752,1.112,1.112,0,0,1-.845.3,1.079,1.079,0,0,1-.835-.3A1.069,1.069,0,0,1,314.8-.947Zm11.016-13.281V-12.7h-.283a3.5,3.5,0,0,0-2.705,1.167A5.651,5.651,0,0,0,321.7-8.135a2.96,2.96,0,0,1,2.422-1.191,2.909,2.909,0,0,1,2.5,1.294,5.719,5.719,0,0,1,.923,3.394A5.576,5.576,0,0,1,326.52-1.1,3.3,3.3,0,0,1,323.781.2,3.234,3.234,0,0,1,321-1.338a7.061,7.061,0,0,1-1.055-4.072V-6.1a13.966,13.966,0,0,1,.635-4.668,5.142,5.142,0,0,1,1.87-2.583,5.477,5.477,0,0,1,3.071-.874ZM323.83-7.822a1.9,1.9,0,0,0-1.3.537,3.037,3.037,0,0,0-.859,1.367v.713a5.728,5.728,0,0,0,.61,2.817,1.756,1.756,0,0,0,1.5,1.089,1.694,1.694,0,0,0,1.514-.894,4.477,4.477,0,0,0,.547-2.358,4.541,4.541,0,0,0-.547-2.358A1.652,1.652,0,0,0,323.83-7.822Zm9.707,2.148a15.013,15.013,0,0,1-1.953,7.705A7.741,7.741,0,0,1,329.4,4.59l-.342-1.1a8.357,8.357,0,0,0,1.982-3.608,18.318,18.318,0,0,0,.771-5.317v-.352a17.127,17.127,0,0,0-1.221-6.641,8.327,8.327,0,0,0-1.533-2.51l.342-1.1a7.515,7.515,0,0,1,2.08,2.373A15.126,15.126,0,0,1,333.537-5.674ZM340.2-7H335.56v-.758l2.364-3.133a6.885,6.885,0,0,0,.743-1.188,2.377,2.377,0,0,0,.208-.983,1.739,1.739,0,0,0-.308-1.071.964.964,0,0,0-.809-.41,1.173,1.173,0,0,0-.977.436,1.987,1.987,0,0,0-.345,1.256h-1.008a2.686,2.686,0,0,1,.627-1.851,2.161,2.161,0,0,1,1.7-.706,2.037,2.037,0,0,1,1.561.607,2.264,2.264,0,0,1,.57,1.615,5.121,5.121,0,0,1-1.282,2.911L336.762-7.86H340.2Zm8.948-.627h3.213v1.709h-3.213v4.492h-1.738V-5.918h-3.242V-7.627h3.242v-4.15h1.738ZM359.1-5.771a16.3,16.3,0,0,1,.693-4.814,12.853,12.853,0,0,1,1.963-3.955,6.5,6.5,0,0,1,1.484-1.5l.342,1.191a8.205,8.205,0,0,0-1.924,3.384,17.218,17.218,0,0,0-.82,5.024l-.01.791A17.592,17.592,0,0,0,361.791.42a8.646,8.646,0,0,0,1.787,3.066l-.342,1.1A7.19,7.19,0,0,1,361.41,2.6,14.784,14.784,0,0,1,359.1-5.771Zm8.369-2.217h1.1a2.07,2.07,0,0,0,1.641-.654,2.61,2.61,0,0,0,.576-1.787q0-2.5-1.934-2.5a1.745,1.745,0,0,0-1.455.674,2.786,2.786,0,0,0-.527,1.768h-1.719a3.954,3.954,0,0,1,1.04-2.817,3.488,3.488,0,0,1,2.661-1.108,3.483,3.483,0,0,1,2.666,1.05,4.177,4.177,0,0,1,.986,2.974,3.516,3.516,0,0,1-.513,1.841,3.161,3.161,0,0,1-1.333,1.255,3.152,3.152,0,0,1,2.012,3.33,4.249,4.249,0,0,1-1.06,3.032A3.624,3.624,0,0,1,368.842.2a3.636,3.636,0,0,1-2.729-1.069,3.949,3.949,0,0,1-1.04-2.876H366.8a2.762,2.762,0,0,0,.547,1.8,1.826,1.826,0,0,0,1.494.669,1.938,1.938,0,0,0,1.538-.654,2.964,2.964,0,0,0,.571-1.992q0-2.588-2.451-2.588h-1.035Zm15.6,2.686h-4.033V-6.777h4.033Zm8.4-2.686h1.1a2.07,2.07,0,0,0,1.641-.654,2.61,2.61,0,0,0,.576-1.787q0-2.5-1.934-2.5a1.745,1.745,0,0,0-1.455.674,2.786,2.786,0,0,0-.527,1.768h-1.719a3.954,3.954,0,0,1,1.04-2.817,3.488,3.488,0,0,1,2.661-1.108,3.483,3.483,0,0,1,2.666,1.05,4.177,4.177,0,0,1,.986,2.974,3.516,3.516,0,0,1-.513,1.841,3.161,3.161,0,0,1-1.333,1.255,3.152,3.152,0,0,1,2.012,3.33A4.249,4.249,0,0,1,395.6-.933,3.624,3.624,0,0,1,392.836.2a3.636,3.636,0,0,1-2.729-1.069,3.949,3.949,0,0,1-1.04-2.876H390.8a2.762,2.762,0,0,0,.547,1.8,1.826,1.826,0,0,0,1.494.669,1.938,1.938,0,0,0,1.538-.654,2.964,2.964,0,0,0,.571-1.992q0-2.588-2.451-2.588h-1.035Zm7.93,7.041a1.131,1.131,0,0,1,.278-.781,1.061,1.061,0,0,1,.835-.312,1.092,1.092,0,0,1,.845.313,1.109,1.109,0,0,1,.288.781,1.048,1.048,0,0,1-.288.752,1.112,1.112,0,0,1-.845.3,1.079,1.079,0,0,1-.835-.3A1.069,1.069,0,0,1,399.389-.947ZM410.4-14.229V-12.7h-.283a3.5,3.5,0,0,0-2.705,1.167,5.651,5.651,0,0,0-1.123,3.394,2.96,2.96,0,0,1,2.422-1.191,2.909,2.909,0,0,1,2.5,1.294,5.719,5.719,0,0,1,.923,3.394A5.576,5.576,0,0,1,411.113-1.1,3.3,3.3,0,0,1,408.373.2a3.234,3.234,0,0,1-2.783-1.533,7.061,7.061,0,0,1-1.055-4.072V-6.1a13.966,13.966,0,0,1,.635-4.668,5.142,5.142,0,0,1,1.87-2.583,5.477,5.477,0,0,1,3.071-.874Zm-1.982,6.406a1.9,1.9,0,0,0-1.3.537,3.037,3.037,0,0,0-.859,1.367v.713a5.728,5.728,0,0,0,.61,2.817,1.756,1.756,0,0,0,1.5,1.089,1.694,1.694,0,0,0,1.514-.894,4.477,4.477,0,0,0,.547-2.358,4.541,4.541,0,0,0-.547-2.358A1.652,1.652,0,0,0,408.422-7.822Zm9.707,2.148a15.013,15.013,0,0,1-1.953,7.705,7.741,7.741,0,0,1-2.187,2.559l-.342-1.1a8.357,8.357,0,0,0,1.982-3.608,18.318,18.318,0,0,0,.771-5.317v-.352a17.127,17.127,0,0,0-1.221-6.641,8.327,8.327,0,0,0-1.533-2.51l.342-1.1a7.515,7.515,0,0,1,2.08,2.373A15.126,15.126,0,0,1,418.129-5.674ZM424.79-7h-4.637v-.758l2.364-3.133a6.885,6.885,0,0,0,.743-1.188,2.377,2.377,0,0,0,.208-.983,1.739,1.739,0,0,0-.308-1.071.964.964,0,0,0-.809-.41,1.173,1.173,0,0,0-.977.436,1.987,1.987,0,0,0-.345,1.256h-1.008a2.686,2.686,0,0,1,.627-1.851,2.161,2.161,0,0,1,1.7-.706,2.037,2.037,0,0,1,1.561.607,2.264,2.264,0,0,1,.57,1.615,5.121,5.121,0,0,1-1.282,2.911L421.355-7.86h3.435Z" transform="translate(-6493 -12095.353)" fill="#fff"/>
    <path id="Trazado_199084" data-name="Trazado 199084" d="M1.846-7.129l.615-7.09H8.643v1.67H3.916L3.584-8.672a3.24,3.24,0,0,1,1.895-.615A3.058,3.058,0,0,1,8.086-8a5.731,5.731,0,0,1,.947,3.467A5.323,5.323,0,0,1,8-1.064,3.455,3.455,0,0,1,5.176.2,3.457,3.457,0,0,1,2.568-.85,4.54,4.54,0,0,1,1.416-3.74H3.037a3.313,3.313,0,0,0,.7,1.841,1.837,1.837,0,0,0,1.44.62,1.777,1.777,0,0,0,1.572-.874,4.293,4.293,0,0,0,.566-2.358A3.906,3.906,0,0,0,6.7-6.787a1.906,1.906,0,0,0-1.646-.879,2.027,2.027,0,0,0-1.377.449l-.459.459Z" transform="translate(-6289 -12062.353)" fill="#fff"/>
    <path id="Trazado_199085" data-name="Trazado 199085" d="M9.629-7.949H1.484V-9.521H9.629Zm0,4.053H1.484V-5.459H9.629Z" transform="translate(-6059 -12077.353)" fill="#fff"/>
    <path id="Trazado_199086" data-name="Trazado 199086" d="M9.629-7.949H1.484V-9.521H9.629Zm0,4.053H1.484V-5.459H9.629Z" transform="translate(-6514 -12077.353)" fill="#fff"/>
    <path id="Trazado_199087" data-name="Trazado 199087" d="M0,0H257" transform="translate(-6426.5 -12010.853)" fill="none" stroke="#4dd0e1" stroke-width="1.578"/>
    <path id="Trazado_199088" data-name="Trazado 199088" d="M0,0H34" transform="translate(-6145.5 -12010.853)" fill="none" stroke="#4dd0e1" stroke-width="1.578"/>
    <path id="Trazado_199089" data-name="Trazado 199089" d="M8.74-6.064a9.483,9.483,0,0,1-.918,4.7A3.1,3.1,0,0,1,4.941.2,3.128,3.128,0,0,1,2.1-1.3a8.809,8.809,0,0,1-.977-4.492V-8.232a9.22,9.22,0,0,1,.923-4.648,3.118,3.118,0,0,1,2.876-1.533,3.134,3.134,0,0,1,2.847,1.455,8.634,8.634,0,0,1,.972,4.4ZM7.012-8.535a8.32,8.32,0,0,0-.5-3.325A1.659,1.659,0,0,0,4.922-12.93a1.64,1.64,0,0,0-1.562,1.05,7.9,7.9,0,0,0-.518,3.169v2.93a8.449,8.449,0,0,0,.518,3.374A1.678,1.678,0,0,0,4.941-1.279,1.633,1.633,0,0,0,6.494-2.344,8.232,8.232,0,0,0,7.012-5.6ZM11.279-.947a1.131,1.131,0,0,1,.278-.781,1.061,1.061,0,0,1,.835-.312,1.092,1.092,0,0,1,.845.313,1.109,1.109,0,0,1,.288.781,1.048,1.048,0,0,1-.288.752,1.112,1.112,0,0,1-.845.3,1.079,1.079,0,0,1-.835-.3A1.069,1.069,0,0,1,11.279-.947Zm7.207-7.041h1.1a2.07,2.07,0,0,0,1.641-.654,2.61,2.61,0,0,0,.576-1.787q0-2.5-1.934-2.5a1.745,1.745,0,0,0-1.455.674,2.786,2.786,0,0,0-.527,1.768H16.172a3.954,3.954,0,0,1,1.04-2.817,3.488,3.488,0,0,1,2.661-1.108,3.483,3.483,0,0,1,2.666,1.05,4.177,4.177,0,0,1,.986,2.974,3.516,3.516,0,0,1-.513,1.841A3.161,3.161,0,0,1,21.68-7.295a3.152,3.152,0,0,1,2.012,3.33,4.249,4.249,0,0,1-1.06,3.032A3.624,3.624,0,0,1,19.863.2,3.636,3.636,0,0,1,17.134-.874a3.949,3.949,0,0,1-1.04-2.876h1.729a2.762,2.762,0,0,0,.547,1.8,1.826,1.826,0,0,0,1.494.669A1.938,1.938,0,0,0,21.4-1.934a2.964,2.964,0,0,0,.571-1.992q0-2.588-2.451-2.588H18.486Zm13.682-6.24V-12.7h-.283a3.5,3.5,0,0,0-2.705,1.167,5.651,5.651,0,0,0-1.123,3.394,2.96,2.96,0,0,1,2.422-1.191,2.909,2.909,0,0,1,2.5,1.294A5.719,5.719,0,0,1,33.9-4.639,5.576,5.576,0,0,1,32.876-1.1,3.3,3.3,0,0,1,30.137.2a3.234,3.234,0,0,1-2.783-1.533A7.061,7.061,0,0,1,26.3-5.41V-6.1a13.966,13.966,0,0,1,.635-4.668,5.142,5.142,0,0,1,1.87-2.583,5.477,5.477,0,0,1,3.071-.874ZM30.186-7.822a1.9,1.9,0,0,0-1.3.537,3.037,3.037,0,0,0-.859,1.367v.713a5.728,5.728,0,0,0,.61,2.817,1.756,1.756,0,0,0,1.5,1.089,1.694,1.694,0,0,0,1.514-.894A4.477,4.477,0,0,0,32.2-4.551a4.541,4.541,0,0,0-.547-2.358A1.652,1.652,0,0,0,30.186-7.822Zm15.1.2H48.5v1.709H45.283v4.492H43.545V-5.918H40.3V-7.627h3.242v-4.15h1.738ZM58.135-6.064a9.483,9.483,0,0,1-.918,4.7A3.1,3.1,0,0,1,54.336.2,3.128,3.128,0,0,1,51.494-1.3a8.809,8.809,0,0,1-.977-4.492V-8.232a9.22,9.22,0,0,1,.923-4.648,3.118,3.118,0,0,1,2.876-1.533,3.134,3.134,0,0,1,2.847,1.455,8.634,8.634,0,0,1,.972,4.4ZM56.406-8.535a8.32,8.32,0,0,0-.5-3.325,1.659,1.659,0,0,0-1.592-1.069,1.64,1.64,0,0,0-1.562,1.05,7.9,7.9,0,0,0-.518,3.169v2.93a8.449,8.449,0,0,0,.518,3.374,1.678,1.678,0,0,0,1.582,1.128,1.633,1.633,0,0,0,1.553-1.064A8.232,8.232,0,0,0,56.406-5.6ZM60.674-.947a1.131,1.131,0,0,1,.278-.781,1.061,1.061,0,0,1,.835-.312,1.092,1.092,0,0,1,.845.313,1.109,1.109,0,0,1,.288.781,1.048,1.048,0,0,1-.288.752,1.112,1.112,0,0,1-.845.3,1.079,1.079,0,0,1-.835-.3A1.069,1.069,0,0,1,60.674-.947ZM70.82,0H69.082V-12.041L66.094-10.7v-1.641l4.453-1.943h.273ZM81.563-14.229V-12.7h-.283a3.5,3.5,0,0,0-2.705,1.167,5.651,5.651,0,0,0-1.123,3.394,2.96,2.96,0,0,1,2.422-1.191,2.909,2.909,0,0,1,2.5,1.294,5.719,5.719,0,0,1,.923,3.394A5.576,5.576,0,0,1,82.271-1.1,3.3,3.3,0,0,1,79.531.2a3.234,3.234,0,0,1-2.783-1.533A7.061,7.061,0,0,1,75.693-5.41V-6.1a13.966,13.966,0,0,1,.635-4.668,5.142,5.142,0,0,1,1.87-2.583,5.477,5.477,0,0,1,3.071-.874ZM79.58-7.822a1.9,1.9,0,0,0-1.3.537,3.037,3.037,0,0,0-.859,1.367v.713a5.728,5.728,0,0,0,.61,2.817,1.756,1.756,0,0,0,1.5,1.089,1.694,1.694,0,0,0,1.514-.894,4.477,4.477,0,0,0,.547-2.358,4.541,4.541,0,0,0-.547-2.358A1.652,1.652,0,0,0,79.58-7.822Zm15.1.2h3.213v1.709H94.678v4.492H92.939V-5.918H89.7V-7.627h3.242v-4.15h1.738ZM109.658,0H107.92V-12.041L104.932-10.7v-1.641l4.453-1.943h.273Zm4.99-.947a1.131,1.131,0,0,1,.278-.781,1.061,1.061,0,0,1,.835-.312,1.092,1.092,0,0,1,.845.313,1.109,1.109,0,0,1,.288.781,1.048,1.048,0,0,1-.288.752,1.112,1.112,0,0,1-.845.3,1.079,1.079,0,0,1-.835-.3A1.069,1.069,0,0,1,114.648-.947Zm10.684-5.127a3.024,3.024,0,0,1-2.422,1.318,2.87,2.87,0,0,1-2.471-1.309,5.847,5.847,0,0,1-.918-3.428,5.853,5.853,0,0,1,1-3.574,3.218,3.218,0,0,1,2.729-1.348,3.174,3.174,0,0,1,2.808,1.558,7.874,7.874,0,0,1,1.011,4.312v.537a16.71,16.71,0,0,1-.356,3.828,6.251,6.251,0,0,1-1.05,2.363A4.39,4.39,0,0,1,123.9-.454a6.794,6.794,0,0,1-2.686.464V-1.523h.3A3.635,3.635,0,0,0,124.3-2.639,5.393,5.393,0,0,0,125.332-6.074ZM123.2-6.25a1.846,1.846,0,0,0,1.221-.522,3.46,3.46,0,0,0,.928-1.372v-.762a5.955,5.955,0,0,0-.615-2.886,1.759,1.759,0,0,0-1.484-1.118,1.675,1.675,0,0,0-1.489.923,4.626,4.626,0,0,0-.552,2.4,4.784,4.784,0,0,0,.537,2.407A1.628,1.628,0,0,0,123.2-6.25Zm12.334-7.979V-12.7h-.283a3.5,3.5,0,0,0-2.705,1.167,5.651,5.651,0,0,0-1.123,3.394,2.96,2.96,0,0,1,2.422-1.191,2.909,2.909,0,0,1,2.5,1.294,5.719,5.719,0,0,1,.923,3.394A5.576,5.576,0,0,1,136.245-1.1,3.3,3.3,0,0,1,133.506.2a3.234,3.234,0,0,1-2.783-1.533,7.061,7.061,0,0,1-1.055-4.072V-6.1a13.966,13.966,0,0,1,.635-4.668,5.142,5.142,0,0,1,1.87-2.583,5.477,5.477,0,0,1,3.071-.874Zm-1.982,6.406a1.9,1.9,0,0,0-1.3.537,3.037,3.037,0,0,0-.859,1.367v.713a5.728,5.728,0,0,0,.61,2.817,1.756,1.756,0,0,0,1.5,1.089,1.694,1.694,0,0,0,1.514-.894,4.477,4.477,0,0,0,.547-2.358,4.541,4.541,0,0,0-.547-2.358A1.652,1.652,0,0,0,133.555-7.822Zm15.1.2h3.213v1.709h-3.213v4.492h-1.738V-5.918h-3.242V-7.627h3.242v-4.15h1.738Zm10.537.5.615-7.09h6.182v1.67H161.26l-.332,3.877a3.24,3.24,0,0,1,1.895-.615A3.058,3.058,0,0,1,165.43-8a5.731,5.731,0,0,1,.947,3.467,5.323,5.323,0,0,1-1.03,3.467A3.455,3.455,0,0,1,162.52.2,3.457,3.457,0,0,1,159.912-.85,4.54,4.54,0,0,1,158.76-3.74h1.621a3.313,3.313,0,0,0,.7,1.841,1.837,1.837,0,0,0,1.44.62,1.777,1.777,0,0,0,1.572-.874,4.293,4.293,0,0,0,.566-2.358,3.906,3.906,0,0,0-.61-2.275,1.906,1.906,0,0,0-1.646-.879,2.027,2.027,0,0,0-1.377.449l-.459.459Zm9.434,6.182a1.131,1.131,0,0,1,.278-.781,1.061,1.061,0,0,1,.835-.312,1.092,1.092,0,0,1,.845.313,1.109,1.109,0,0,1,.288.781,1.048,1.048,0,0,1-.288.752,1.112,1.112,0,0,1-.845.3,1.079,1.079,0,0,1-.835-.3A1.069,1.069,0,0,1,168.623-.947ZM181.465-13.2,176.572,0h-1.807l4.883-12.734h-6.338v-1.484h8.154Zm8.047-1.025V-12.7h-.283a3.5,3.5,0,0,0-2.705,1.167A5.651,5.651,0,0,0,185.4-8.135a2.96,2.96,0,0,1,2.422-1.191,2.909,2.909,0,0,1,2.5,1.294,5.719,5.719,0,0,1,.923,3.394A5.576,5.576,0,0,1,190.22-1.1,3.3,3.3,0,0,1,187.48.2,3.234,3.234,0,0,1,184.7-1.338a7.061,7.061,0,0,1-1.055-4.072V-6.1a13.966,13.966,0,0,1,.635-4.668,5.142,5.142,0,0,1,1.87-2.583,5.477,5.477,0,0,1,3.071-.874Zm-1.982,6.406a1.9,1.9,0,0,0-1.3.537,3.037,3.037,0,0,0-.859,1.367v.713a5.728,5.728,0,0,0,.61,2.817,1.756,1.756,0,0,0,1.5,1.089,1.694,1.694,0,0,0,1.514-.894,4.477,4.477,0,0,0,.547-2.358,4.541,4.541,0,0,0-.547-2.358A1.652,1.652,0,0,0,187.529-7.822Zm15.1.2h3.213v1.709h-3.213v4.492h-1.738V-5.918h-3.242V-7.627h3.242v-4.15h1.738Zm17.432,1.563a9.483,9.483,0,0,1-.918,4.7A3.1,3.1,0,0,1,216.26.2,3.128,3.128,0,0,1,213.418-1.3a8.81,8.81,0,0,1-.977-4.492V-8.232a9.22,9.22,0,0,1,.923-4.648,3.118,3.118,0,0,1,2.876-1.533,3.134,3.134,0,0,1,2.847,1.455,8.634,8.634,0,0,1,.972,4.4ZM218.33-8.535a8.32,8.32,0,0,0-.5-3.325,1.659,1.659,0,0,0-1.592-1.069,1.64,1.64,0,0,0-1.562,1.05,7.9,7.9,0,0,0-.518,3.169v2.93a8.449,8.449,0,0,0,.518,3.374,1.678,1.678,0,0,0,1.582,1.128,1.633,1.633,0,0,0,1.553-1.064A8.232,8.232,0,0,0,218.33-5.6ZM222.6-.947a1.131,1.131,0,0,1,.278-.781,1.061,1.061,0,0,1,.835-.312,1.092,1.092,0,0,1,.845.313,1.109,1.109,0,0,1,.288.781,1.048,1.048,0,0,1-.288.752,1.112,1.112,0,0,1-.845.3,1.079,1.079,0,0,1-.835-.3A1.069,1.069,0,0,1,222.6-.947ZM229.8-7.988h1.1a2.07,2.07,0,0,0,1.641-.654,2.61,2.61,0,0,0,.576-1.787q0-2.5-1.934-2.5a1.745,1.745,0,0,0-1.455.674,2.786,2.786,0,0,0-.527,1.768H227.49a3.954,3.954,0,0,1,1.04-2.817,3.488,3.488,0,0,1,2.661-1.108,3.483,3.483,0,0,1,2.666,1.05,4.177,4.177,0,0,1,.986,2.974,3.516,3.516,0,0,1-.513,1.841A3.161,3.161,0,0,1,233-7.295a3.152,3.152,0,0,1,2.012,3.33,4.249,4.249,0,0,1-1.06,3.032A3.624,3.624,0,0,1,231.182.2a3.636,3.636,0,0,1-2.729-1.069,3.949,3.949,0,0,1-1.04-2.876h1.729a2.762,2.762,0,0,0,.547,1.8,1.826,1.826,0,0,0,1.494.669,1.938,1.938,0,0,0,1.538-.654,2.964,2.964,0,0,0,.571-1.992q0-2.588-2.451-2.588H229.8Zm13.682-6.24V-12.7H243.2a3.5,3.5,0,0,0-2.705,1.167,5.651,5.651,0,0,0-1.123,3.394A2.96,2.96,0,0,1,241.8-9.326a2.909,2.909,0,0,1,2.5,1.294,5.719,5.719,0,0,1,.923,3.394A5.576,5.576,0,0,1,244.194-1.1,3.3,3.3,0,0,1,241.455.2a3.234,3.234,0,0,1-2.783-1.533,7.061,7.061,0,0,1-1.055-4.072V-6.1a13.966,13.966,0,0,1,.635-4.668,5.142,5.142,0,0,1,1.87-2.583,5.477,5.477,0,0,1,3.071-.874ZM241.5-7.822a1.9,1.9,0,0,0-1.3.537,3.037,3.037,0,0,0-.859,1.367v.713a5.728,5.728,0,0,0,.61,2.817,1.756,1.756,0,0,0,1.5,1.089,1.694,1.694,0,0,0,1.514-.894,4.477,4.477,0,0,0,.547-2.358,4.541,4.541,0,0,0-.547-2.358A1.652,1.652,0,0,0,241.5-7.822Z" transform="translate(-6421 -12019.353)" fill="#fff"/>
    <path id="Trazado_199090" data-name="Trazado 199090" d="M8.457-10.508a3.755,3.755,0,0,1-.474,1.895,3.463,3.463,0,0,1-1.274,1.3,3.6,3.6,0,0,1,1.484,1.4A4.015,4.015,0,0,1,8.73-3.838,4.093,4.093,0,0,1,7.69-.9,3.621,3.621,0,0,1,4.932.2,3.621,3.621,0,0,1,2.173-.9a4.093,4.093,0,0,1-1.04-2.935,4.116,4.116,0,0,1,.532-2.095,3.47,3.47,0,0,1,1.45-1.392,3.366,3.366,0,0,1-1.26-1.294,3.822,3.822,0,0,1-.459-1.89,4.045,4.045,0,0,1,.972-2.852,3.32,3.32,0,0,1,2.563-1.055,3.324,3.324,0,0,1,2.554,1.045A4.037,4.037,0,0,1,8.457-10.508ZM7-3.877a3.093,3.093,0,0,0-.576-1.958,1.829,1.829,0,0,0-1.514-.737A1.779,1.779,0,0,0,3.4-5.83a3.194,3.194,0,0,0-.552,1.953,3.01,3.01,0,0,0,.542,1.914,1.849,1.849,0,0,0,1.538.684,1.836,1.836,0,0,0,1.533-.684A3.029,3.029,0,0,0,7-3.877Zm-.264-6.6a2.888,2.888,0,0,0-.508-1.768,1.553,1.553,0,0,0-1.3-.684,1.545,1.545,0,0,0-1.318.674,2.962,2.962,0,0,0-.488,1.777,2.849,2.849,0,0,0,.5,1.768,1.567,1.567,0,0,0,1.309.654A1.552,1.552,0,0,0,6.25-8.721,2.9,2.9,0,0,0,6.738-10.479ZM11.279-.947a1.131,1.131,0,0,1,.278-.781,1.061,1.061,0,0,1,.835-.312,1.092,1.092,0,0,1,.845.313,1.109,1.109,0,0,1,.288.781,1.048,1.048,0,0,1-.288.752,1.112,1.112,0,0,1-.845.3,1.079,1.079,0,0,1-.835-.3A1.069,1.069,0,0,1,11.279-.947ZM22.295-14.229V-12.7h-.283a3.5,3.5,0,0,0-2.705,1.167,5.651,5.651,0,0,0-1.123,3.394,2.96,2.96,0,0,1,2.422-1.191,2.909,2.909,0,0,1,2.5,1.294,5.719,5.719,0,0,1,.923,3.394A5.576,5.576,0,0,1,23-1.1,3.3,3.3,0,0,1,20.264.2,3.234,3.234,0,0,1,17.48-1.338,7.061,7.061,0,0,1,16.426-5.41V-6.1a13.966,13.966,0,0,1,.635-4.668,5.142,5.142,0,0,1,1.87-2.583A5.477,5.477,0,0,1,22-14.229ZM20.313-7.822a1.9,1.9,0,0,0-1.3.537,3.037,3.037,0,0,0-.859,1.367v.713a5.728,5.728,0,0,0,.61,2.817,1.756,1.756,0,0,0,1.5,1.089,1.694,1.694,0,0,0,1.514-.894,4.477,4.477,0,0,0,.547-2.358,4.541,4.541,0,0,0-.547-2.358A1.652,1.652,0,0,0,20.313-7.822Z" transform="translate(-6141 -12019.353)" fill="#fff"/>
    <path id="Trazado_199091" data-name="Trazado 199091" d="M1.846-7.129l.615-7.09H8.643v1.67H3.916L3.584-8.672a3.24,3.24,0,0,1,1.895-.615A3.058,3.058,0,0,1,8.086-8a5.731,5.731,0,0,1,.947,3.467A5.323,5.323,0,0,1,8-1.064,3.455,3.455,0,0,1,5.176.2,3.457,3.457,0,0,1,2.568-.85,4.54,4.54,0,0,1,1.416-3.74H3.037a3.313,3.313,0,0,0,.7,1.841,1.837,1.837,0,0,0,1.44.62,1.777,1.777,0,0,0,1.572-.874,4.293,4.293,0,0,0,.566-2.358A3.906,3.906,0,0,0,6.7-6.787a1.906,1.906,0,0,0-1.646-.879,2.027,2.027,0,0,0-1.377.449l-.459.459Z" transform="translate(-6303 -11989.353)" fill="#fff"/>
    <path id="Trazado_199092" data-name="Trazado 199092" d="M1.846-7.129l.615-7.09H8.643v1.67H3.916L3.584-8.672a3.24,3.24,0,0,1,1.895-.615A3.058,3.058,0,0,1,8.086-8a5.731,5.731,0,0,1,.947,3.467A5.323,5.323,0,0,1,8-1.064,3.455,3.455,0,0,1,5.176.2,3.457,3.457,0,0,1,2.568-.85,4.54,4.54,0,0,1,1.416-3.74H3.037a3.313,3.313,0,0,0,.7,1.841,1.837,1.837,0,0,0,1.44.62,1.777,1.777,0,0,0,1.572-.874,4.293,4.293,0,0,0,.566-2.358A3.906,3.906,0,0,0,6.7-6.787a1.906,1.906,0,0,0-1.646-.879,2.027,2.027,0,0,0-1.377.449l-.459.459Z" transform="translate(-6133 -11989.353)" fill="#fff"/>
    <path id="Trazado_199093" data-name="Trazado 199093" d="M9.629-7.949H1.484V-9.521H9.629Zm0,4.053H1.484V-5.459H9.629Z" transform="translate(-6162 -12004.353)" fill="#fff"/>
    <path id="Trazado_199094" data-name="Trazado 199094" d="M8.291-7.949H1.445V-9.521H8.291Zm0,4.053H1.445V-5.459H8.291ZM20.449,0H18.711V-12.041L15.723-10.7v-1.641l4.453-1.943h.273Zm4.99-.947a1.131,1.131,0,0,1,.278-.781,1.061,1.061,0,0,1,.835-.312,1.092,1.092,0,0,1,.845.313,1.109,1.109,0,0,1,.288.781A1.048,1.048,0,0,1,27.4-.2a1.112,1.112,0,0,1-.845.3,1.079,1.079,0,0,1-.835-.3A1.069,1.069,0,0,1,25.439-.947ZM38.281-13.2,33.389,0H31.582l4.883-12.734H30.127v-1.484h8.154ZM48.262,0H40.313V-1.3L44.365-6.67A11.8,11.8,0,0,0,45.64-8.706,4.075,4.075,0,0,0,46-10.391a2.981,2.981,0,0,0-.527-1.836,1.652,1.652,0,0,0-1.387-.7,2.012,2.012,0,0,0-1.675.747,3.406,3.406,0,0,0-.591,2.153H40.088A4.605,4.605,0,0,1,41.162-13.2a3.7,3.7,0,0,1,2.92-1.211,3.493,3.493,0,0,1,2.676,1.04,3.88,3.88,0,0,1,.977,2.769q0,2.109-2.2,4.99L42.373-1.475h5.889Z" transform="translate(-6103 -12004.353)" fill="#fff"/>
    <path id="Trazado_199095" data-name="Trazado 199095" d="M4.287-2.627l2-7.939H8.047L4.912,0H3.623L.449-10.566H2.207ZM15.137,0a3.8,3.8,0,0,1-.225-1.152A2.745,2.745,0,0,1,12.568.2,3.029,3.029,0,0,1,10.327-.61a3.07,3.07,0,0,1-.806-2.271,3.212,3.212,0,0,1,1.094-2.559,4.5,4.5,0,0,1,3-.967h1.27V-7.529a1.806,1.806,0,0,0-.42-1.348,1.794,1.794,0,0,0-1.279-.4,1.768,1.768,0,0,0-1.27.464,1.553,1.553,0,0,0-.488,1.177H9.7a2.8,2.8,0,0,1,.479-1.548,3.333,3.333,0,0,1,1.289-1.157,3.868,3.868,0,0,1,1.807-.42,3.44,3.44,0,0,1,2.466.806A3.153,3.153,0,0,1,16.6-7.607v5.332a6.435,6.435,0,0,0,.332,2.119V0Zm-2.3-1.377a2.29,2.29,0,0,0,1.211-.352,2.168,2.168,0,0,0,.84-.879v-2.52h-.977a3.271,3.271,0,0,0-1.943.552,1.752,1.752,0,0,0-.713,1.489,1.932,1.932,0,0,0,.361,1.3A1.57,1.57,0,0,0,12.832-1.377ZM23.643-8.945a4.205,4.205,0,0,0-.781-.068,1.9,1.9,0,0,0-1.855,1.455V0H19.277V-10.566h1.68l.029,1.074a2.151,2.151,0,0,1,1.963-1.27,1.522,1.522,0,0,1,.684.137ZM27.227,0H25.5V-10.566h1.729Zm.137-13.369a1.105,1.105,0,0,1-.244.732.911.911,0,0,1-.742.293.9.9,0,0,1-.732-.293,1.105,1.105,0,0,1-.244-.732,1.144,1.144,0,0,1,.244-.742.885.885,0,0,1,.732-.3.893.893,0,0,1,.737.308A1.135,1.135,0,0,1,27.363-13.369ZM35.381,0a3.8,3.8,0,0,1-.225-1.152A2.745,2.745,0,0,1,32.813.2,3.029,3.029,0,0,1,30.571-.61a3.07,3.07,0,0,1-.806-2.271,3.212,3.212,0,0,1,1.094-2.559,4.5,4.5,0,0,1,3-.967h1.27V-7.529a1.806,1.806,0,0,0-.42-1.348,1.794,1.794,0,0,0-1.279-.4,1.768,1.768,0,0,0-1.27.464,1.553,1.553,0,0,0-.488,1.177H29.941a2.8,2.8,0,0,1,.479-1.548,3.333,3.333,0,0,1,1.289-1.157,3.868,3.868,0,0,1,1.807-.42,3.44,3.44,0,0,1,2.466.806,3.153,3.153,0,0,1,.864,2.349v5.332a6.435,6.435,0,0,0,.332,2.119V0Zm-2.3-1.377a2.29,2.29,0,0,0,1.211-.352,2.168,2.168,0,0,0,.84-.879v-2.52H34.15a3.271,3.271,0,0,0-1.943.552,1.752,1.752,0,0,0-.713,1.489,1.932,1.932,0,0,0,.361,1.3A1.57,1.57,0,0,0,33.076-1.377Zm8.076-9.189L41.2-9.424a3.084,3.084,0,0,1,2.568-1.338q2.8,0,2.842,3.74V0H44.893V-6.943a2.879,2.879,0,0,0-.415-1.763,1.494,1.494,0,0,0-1.245-.522,1.754,1.754,0,0,0-1.157.43,3.1,3.1,0,0,0-.825,1.123V0H39.521V-10.566ZM50.8-1.475h5.1V0h-7.07V-1.328l4.844-7.744h-4.8v-1.494H55.7v1.279ZM63.418,0a3.8,3.8,0,0,1-.225-1.152A2.745,2.745,0,0,1,60.85.2,3.029,3.029,0,0,1,58.608-.61,3.07,3.07,0,0,1,57.8-2.881,3.212,3.212,0,0,1,58.9-5.439a4.5,4.5,0,0,1,3-.967h1.27V-7.529a1.806,1.806,0,0,0-.42-1.348,1.794,1.794,0,0,0-1.279-.4,1.768,1.768,0,0,0-1.27.464,1.553,1.553,0,0,0-.488,1.177H57.979a2.8,2.8,0,0,1,.479-1.548,3.333,3.333,0,0,1,1.289-1.157,3.868,3.868,0,0,1,1.807-.42,3.44,3.44,0,0,1,2.466.806,3.153,3.153,0,0,1,.864,2.349v5.332a6.435,6.435,0,0,0,.332,2.119V0Zm-2.3-1.377a2.29,2.29,0,0,0,1.211-.352,2.168,2.168,0,0,0,.84-.879v-2.52h-.977a3.271,3.271,0,0,0-1.943.552,1.752,1.752,0,0,0-.713,1.489,1.932,1.932,0,0,0,.361,1.3A1.57,1.57,0,0,0,61.113-1.377ZM79.141-7.949H72.295V-9.521h6.846Zm0,4.053H72.295V-5.459h6.846Z" transform="translate(-6512 -12004.353)" fill="#fff"/>
    <path id="Trazado_199096" data-name="Trazado 199096" d="M9.648-9.072H7.383a5.312,5.312,0,0,1,1.582,4.1v.176a6.23,6.23,0,0,1-.513,2.534A4.272,4.272,0,0,1,7.036-.449,3.451,3.451,0,0,1,4.98.2a3.421,3.421,0,0,1-2.9-1.479A6.517,6.517,0,0,1,1-5.234v-.146A6.065,6.065,0,0,1,2.08-9.126a3.456,3.456,0,0,1,2.91-1.44H9.648ZM2.725-5.166a5.758,5.758,0,0,0,.6,2.832A1.834,1.834,0,0,0,4.98-1.279a1.836,1.836,0,0,0,1.66-1.045,6.287,6.287,0,0,0,.6-3.057,5.245,5.245,0,0,0-.6-2.686,1.859,1.859,0,0,0-1.68-1.006,1.823,1.823,0,0,0-1.65,1.006A5.837,5.837,0,0,0,2.725-5.166ZM22.842-7.949H16V-9.521h6.846Zm0,4.053H16V-5.459h6.846Zm6.8-1.865a6.366,6.366,0,0,1,.913-3.721,3.025,3.025,0,0,1,2.622-1.279,2.714,2.714,0,0,1,2.363,1.23V-15h1.729V0H35.684L35.6-1.133A2.72,2.72,0,0,1,33.164.2a3.013,3.013,0,0,1-2.573-1.274,6.1,6.1,0,0,1-.952-3.6Zm1.729.981a5.01,5.01,0,0,0,.527,2.609,1.879,1.879,0,0,0,1.719.834,2.045,2.045,0,0,0,1.924-1.3V-7.961a2.078,2.078,0,0,0-1.914-1.268,1.879,1.879,0,0,0-1.719.834,4.944,4.944,0,0,0-.537,2.56ZM43.7.2A3.854,3.854,0,0,1,40.674-.981,5.086,5.086,0,0,1,39.6-4.434V-5.713a5.955,5.955,0,0,1,1.03-3.706,3.419,3.419,0,0,1,2.876-1.343A3.294,3.294,0,0,1,46.279-9.58,6.073,6.073,0,0,1,47.217-5.9v1.133h-5.9v.244a3.855,3.855,0,0,0,.64,2.471,2.255,2.255,0,0,0,1.841.771,2.986,2.986,0,0,0,1.343-.288A3.336,3.336,0,0,0,46.23-2.48l.9,1.094A3.921,3.921,0,0,1,43.7.2Zm-.2-9.473a1.812,1.812,0,0,0-1.592.737,4.376,4.376,0,0,0-.586,2.29h4.16v-.234a4.038,4.038,0,0,0-.542-2.148A1.67,1.67,0,0,0,43.506-9.277ZM54.424-2.705A1.277,1.277,0,0,0,54-3.662,6.211,6.211,0,0,0,52.383-4.6a10.6,10.6,0,0,1-1.968-.986,2.806,2.806,0,0,1-.854-.933,2.577,2.577,0,0,1-.283-1.245,2.772,2.772,0,0,1,.942-2.144,3.446,3.446,0,0,1,2.407-.854,3.435,3.435,0,0,1,2.48.9,3.052,3.052,0,0,1,.938,2.3H54.326a1.7,1.7,0,0,0-.479-1.216,1.611,1.611,0,0,0-1.221-.5,1.715,1.715,0,0,0-1.2.394A1.356,1.356,0,0,0,51-7.827a1.153,1.153,0,0,0,.317.847,5.657,5.657,0,0,0,1.528.847,7.682,7.682,0,0,1,2.617,1.472,2.52,2.52,0,0,1,.693,1.824,2.781,2.781,0,0,1-.947,2.206A3.726,3.726,0,0,1,52.666.2,3.787,3.787,0,0,1,49.99-.752a3.128,3.128,0,0,1-1.025-2.4H50.7a1.936,1.936,0,0,0,.537,1.377,1.95,1.95,0,0,0,1.426.5,1.956,1.956,0,0,0,1.309-.386A1.3,1.3,0,0,0,54.424-2.705Zm6.973.078,2-7.939h1.758L62.021,0H60.732L57.559-10.566h1.758ZM68.818,0H67.09V-10.566h1.729Zm.137-13.369a1.105,1.105,0,0,1-.244.732.911.911,0,0,1-.742.293.9.9,0,0,1-.732-.293,1.105,1.105,0,0,1-.244-.732,1.144,1.144,0,0,1,.244-.742.885.885,0,0,1,.732-.3.893.893,0,0,1,.737.308A1.135,1.135,0,0,1,68.955-13.369ZM76.973,0a3.8,3.8,0,0,1-.225-1.152A2.745,2.745,0,0,1,74.4.2,3.029,3.029,0,0,1,72.163-.61a3.07,3.07,0,0,1-.806-2.271,3.212,3.212,0,0,1,1.094-2.559,4.5,4.5,0,0,1,3-.967h1.27V-7.529a1.806,1.806,0,0,0-.42-1.348,1.794,1.794,0,0,0-1.279-.4,1.768,1.768,0,0,0-1.27.464,1.553,1.553,0,0,0-.488,1.177H71.533a2.8,2.8,0,0,1,.479-1.548A3.333,3.333,0,0,1,73.3-10.342a3.868,3.868,0,0,1,1.807-.42,3.44,3.44,0,0,1,2.466.806,3.153,3.153,0,0,1,.864,2.349v5.332A6.435,6.435,0,0,0,78.77-.156V0Zm-2.3-1.377a2.29,2.29,0,0,0,1.211-.352,2.168,2.168,0,0,0,.84-.879v-2.52h-.977a3.271,3.271,0,0,0-1.943.552,1.752,1.752,0,0,0-.713,1.489,1.932,1.932,0,0,0,.361,1.3A1.57,1.57,0,0,0,74.668-1.377Zm10.117.1a1.833,1.833,0,0,0,1.377-.532,2.258,2.258,0,0,0,.566-1.519h1.631A3.593,3.593,0,0,1,87.28-.806a3.428,3.428,0,0,1-2.5,1A3.676,3.676,0,0,1,81.792-1.04a5.628,5.628,0,0,1-1.03-3.677V-5.879a5.6,5.6,0,0,1,1.025-3.638,3.648,3.648,0,0,1,2.988-1.245,3.341,3.341,0,0,1,2.573,1.025,4.17,4.17,0,0,1,1.011,2.8H86.729a2.87,2.87,0,0,0-.562-1.758,1.736,1.736,0,0,0-1.392-.586,1.982,1.982,0,0,0-1.709.757,4.365,4.365,0,0,0-.576,2.485v1.348a4.7,4.7,0,0,0,.552,2.637A2,2,0,0,0,84.785-1.279ZM92.217,0H90.488V-10.566h1.729Zm.137-13.369a1.105,1.105,0,0,1-.244.732.911.911,0,0,1-.742.293.9.9,0,0,1-.732-.293,1.105,1.105,0,0,1-.244-.732,1.144,1.144,0,0,1,.244-.742.885.885,0,0,1,.732-.3.893.893,0,0,1,.737.308A1.135,1.135,0,0,1,92.354-13.369Zm2.217,7.6a5.525,5.525,0,0,1,1.118-3.647,3.654,3.654,0,0,1,2.954-1.343A3.694,3.694,0,0,1,101.6-9.453a5.422,5.422,0,0,1,1.147,3.564v1.113a5.505,5.505,0,0,1-1.113,3.633A3.667,3.667,0,0,1,98.662.2a3.678,3.678,0,0,1-2.944-1.3A5.391,5.391,0,0,1,94.57-4.619Zm1.729,1a4.477,4.477,0,0,0,.64,2.563,1.99,1.99,0,0,0,1.724.933q2.285,0,2.354-3.3V-5.771a4.48,4.48,0,0,0-.645-2.563,2,2,0,0,0-1.729-.942,1.968,1.968,0,0,0-1.7.942,4.486,4.486,0,0,0-.64,2.554ZM99.453-15h2.188l-2.617,2.871-1.455,0Zm7.148,4.434.049,1.143a3.084,3.084,0,0,1,2.568-1.338q2.8,0,2.842,3.74V0h-1.719V-6.943a2.879,2.879,0,0,0-.415-1.763,1.494,1.494,0,0,0-1.245-.522,1.754,1.754,0,0,0-1.157.43,3.1,3.1,0,0,0-.825,1.123V0h-1.729V-10.566ZM126.23-7.949h-6.846V-9.521h6.846Zm0,4.053h-6.846V-5.459h6.846Z" transform="translate(-6457 -11947.353)" fill="#fff"/>
    <path id="Trazado_199097" data-name="Trazado 199097" d="M8.291-7.949H1.445V-9.521H8.291Zm0,4.053H1.445V-5.459H8.291Z" transform="translate(-6229 -11947.353)" fill="#fff"/>
    <path id="Trazado_193487" data-name="Trazado 193487" d="M1369.837,1928.419l5.152-16.4h76.09v1.943h-74.127l-6.121,19h-1.9l-3.051-9.035h-2.3v-2.215h4.158Z" transform="translate(-7689.079 -13879.935)" fill="#fff"/>
    <path id="Trazado_193488" data-name="Trazado 193488" d="M1380.227,1926.66l2.016-8h1.773l-3.159,10.651h-1.3l-3.2-10.651h1.773Z" transform="translate(-7682.041 -13876.277)" fill="#fff"/>
    <path id="Trazado_193489" data-name="Trazado 193489" d="M1387.913,1929.377a3.844,3.844,0,0,1-.225-1.162,2.766,2.766,0,0,1-2.364,1.358,3.056,3.056,0,0,1-2.259-.811,3.107,3.107,0,0,1-.811-2.291,3.236,3.236,0,0,1,1.1-2.578,4.535,4.535,0,0,1,3.021-.975h1.281v-1.132a1.5,1.5,0,0,0-1.714-1.762,1.777,1.777,0,0,0-1.278.468,1.565,1.565,0,0,0-.495,1.187h-1.741a2.821,2.821,0,0,1,.482-1.56,3.364,3.364,0,0,1,1.3-1.168,3.9,3.9,0,0,1,1.821-.423,3.468,3.468,0,0,1,2.486.813,3.175,3.175,0,0,1,.872,2.367v5.377a6.544,6.544,0,0,0,.333,2.135v.157Zm-2.323-1.387a2.294,2.294,0,0,0,1.22-.355,2.19,2.19,0,0,0,.848-.887v-2.539h-.985a3.284,3.284,0,0,0-1.959.557,1.764,1.764,0,0,0-.718,1.5,1.952,1.952,0,0,0,.363,1.314A1.58,1.58,0,0,0,1385.59,1927.991Z" transform="translate(-7678.792 -13876.348)" fill="#fff"/>
    <path id="Trazado_193490" data-name="Trazado 193490" d="M1393,1920.361a4.368,4.368,0,0,0-.788-.07,1.911,1.911,0,0,0-1.872,1.467v7.619H1388.6v-10.651h1.694l.03,1.083a2.169,2.169,0,0,1,1.977-1.28,1.542,1.542,0,0,1,.69.138Z" transform="translate(-7675.299 -13876.348)" fill="#fff"/>
    <path id="Trazado_193491" data-name="Trazado 193491" d="M1394.554,1917.209a1.119,1.119,0,0,1-.247.739,1.086,1.086,0,0,1-1.487,0,1.126,1.126,0,0,1-.245-.739,1.153,1.153,0,0,1,.245-.747,1.044,1.044,0,0,1,1.482,0A1.143,1.143,0,0,1,1394.554,1917.209Zm-.136,13.476h-1.743v-10.651h1.743Z" transform="translate(-7673.107 -13877.655)" fill="#fff"/>
    <path id="Trazado_193492" data-name="Trazado 193492" d="M1401.074,1929.377a3.784,3.784,0,0,1-.226-1.162,2.764,2.764,0,0,1-2.362,1.358,3.052,3.052,0,0,1-2.26-.811,3.1,3.1,0,0,1-.813-2.291,3.236,3.236,0,0,1,1.1-2.578,4.538,4.538,0,0,1,3.021-.975h1.281v-1.132a1.5,1.5,0,0,0-1.714-1.762,1.777,1.777,0,0,0-1.278.468,1.565,1.565,0,0,0-.495,1.187h-1.742a2.82,2.82,0,0,1,.482-1.56,3.364,3.364,0,0,1,1.3-1.168,3.9,3.9,0,0,1,1.822-.423,3.466,3.466,0,0,1,2.484.813,3.183,3.183,0,0,1,.873,2.367v5.377a6.556,6.556,0,0,0,.332,2.135v.157Zm-2.325-1.387a2.3,2.3,0,0,0,1.222-.355,2.185,2.185,0,0,0,.847-.887v-2.539h-.983a3.288,3.288,0,0,0-1.96.557,1.764,1.764,0,0,0-.718,1.5,1.953,1.953,0,0,0,.363,1.314A1.582,1.582,0,0,0,1398.749,1927.991Z" transform="translate(-7671.543 -13876.348)" fill="#fff"/>
    <path id="Trazado_193493" data-name="Trazado 193493" d="M1403.4,1918.726l.05,1.152a3.106,3.106,0,0,1,2.59-1.349q2.822,0,2.863,3.77v7.078h-1.733v-7a2.916,2.916,0,0,0-.417-1.777,1.511,1.511,0,0,0-1.256-.526,1.762,1.762,0,0,0-1.166.434,3.086,3.086,0,0,0-.833,1.131v7.737h-1.742v-10.651Z" transform="translate(-7668.051 -13876.348)" fill="#fff"/>
    <path id="Trazado_193494" data-name="Trazado 193494" d="M1409.792,1927.82h5.138v1.488H1407.8v-1.338l4.882-7.805h-4.843v-1.508h6.89v1.289Z" transform="translate(-7664.718 -13876.277)" fill="#fff"/>
    <path id="Trazado_193495" data-name="Trazado 193495" d="M1419.3,1929.377a3.838,3.838,0,0,1-.225-1.162,2.768,2.768,0,0,1-2.364,1.358,3.057,3.057,0,0,1-2.26-.811,3.108,3.108,0,0,1-.811-2.291,3.236,3.236,0,0,1,1.1-2.578,4.535,4.535,0,0,1,3.021-.975h1.281v-1.132a1.5,1.5,0,0,0-1.714-1.762,1.78,1.78,0,0,0-1.279.468,1.564,1.564,0,0,0-.493,1.187h-1.742a2.807,2.807,0,0,1,.482-1.56,3.37,3.37,0,0,1,1.3-1.168,3.907,3.907,0,0,1,1.822-.423,3.47,3.47,0,0,1,2.486.813,3.181,3.181,0,0,1,.872,2.367v5.377a6.512,6.512,0,0,0,.333,2.135v.157Zm-2.323-1.387a2.3,2.3,0,0,0,1.22-.355,2.19,2.19,0,0,0,.848-.887v-2.539h-.984a3.283,3.283,0,0,0-1.959.557,1.764,1.764,0,0,0-.718,1.5,1.953,1.953,0,0,0,.363,1.314A1.579,1.579,0,0,0,1416.973,1927.991Z" transform="translate(-7661.505 -13876.348)" fill="#fff"/>
    <path id="Trazado_193487-2" data-name="Trazado 193487" d="M1369.837,1928.419l5.152-16.4h41.757v1.943h-39.794l-6.121,19h-1.9l-3.051-9.035h-2.3v-2.215h4.158Z" transform="translate(-7575.079 -13879.935)" fill="#fff"/>
    <path id="Trazado_199098" data-name="Trazado 199098" d="M6.289,0H4.551V-12.041L1.563-10.7v-1.641l4.453-1.943h.273Zm4.99-.947a1.131,1.131,0,0,1,.278-.781,1.061,1.061,0,0,1,.835-.312,1.092,1.092,0,0,1,.845.313,1.109,1.109,0,0,1,.288.781,1.048,1.048,0,0,1-.288.752,1.112,1.112,0,0,1-.845.3,1.079,1.079,0,0,1-.835-.3A1.069,1.069,0,0,1,11.279-.947ZM24.121-13.2,19.229,0H17.422L22.3-12.734H15.967v-1.484h8.154ZM34.1,0H26.152V-1.3L30.205-6.67a11.8,11.8,0,0,0,1.274-2.036,4.075,4.075,0,0,0,.356-1.685,2.981,2.981,0,0,0-.527-1.836,1.652,1.652,0,0,0-1.387-.7,2.012,2.012,0,0,0-1.675.747,3.406,3.406,0,0,0-.591,2.153H25.928A4.6,4.6,0,0,1,27-13.2a3.7,3.7,0,0,1,2.92-1.211,3.493,3.493,0,0,1,2.676,1.04,3.88,3.88,0,0,1,.977,2.769q0,2.109-2.2,4.99L28.213-1.475H34.1ZM52.334-7.949H45.488V-9.521h6.846Zm0,4.053H45.488V-5.459h6.846ZM64.492,0H62.754V-12.041L59.766-10.7v-1.641l4.453-1.943h.273Zm4.99-.947a1.131,1.131,0,0,1,.278-.781,1.061,1.061,0,0,1,.835-.312,1.092,1.092,0,0,1,.845.313,1.109,1.109,0,0,1,.288.781A1.048,1.048,0,0,1,71.44-.2a1.112,1.112,0,0,1-.845.3,1.079,1.079,0,0,1-.835-.3A1.069,1.069,0,0,1,69.482-.947Zm7.207-7.041h1.1a2.07,2.07,0,0,0,1.641-.654,2.61,2.61,0,0,0,.576-1.787q0-2.5-1.934-2.5a1.745,1.745,0,0,0-1.455.674,2.786,2.786,0,0,0-.527,1.768H74.375a3.954,3.954,0,0,1,1.04-2.817,3.488,3.488,0,0,1,2.661-1.108,3.483,3.483,0,0,1,2.666,1.05,4.177,4.177,0,0,1,.986,2.974,3.516,3.516,0,0,1-.513,1.841,3.161,3.161,0,0,1-1.333,1.255,3.152,3.152,0,0,1,2.012,3.33,4.249,4.249,0,0,1-1.06,3.032A3.624,3.624,0,0,1,78.066.2,3.636,3.636,0,0,1,75.337-.874,3.949,3.949,0,0,1,74.3-3.75h1.729a2.762,2.762,0,0,0,.547,1.8,1.826,1.826,0,0,0,1.494.669A1.938,1.938,0,0,0,79.6-1.934a2.964,2.964,0,0,0,.571-1.992q0-2.588-2.451-2.588H76.689ZM89.5,0H87.764V-12.041L84.775-10.7v-1.641l4.453-1.943H89.5Z" transform="translate(-6198 -11946.353)" fill="#fff"/>
  </g>
</svg>
