<svg id="Grupo_151937" data-name="Grupo 151937" xmlns="http://www.w3.org/2000/svg" width="97.221" height="103.819" viewBox="0 0 97.221 103.819">
  <path id="Trazado_199001" data-name="Trazado 199001" d="M-2507.731,3417.9a21.423,21.423,0,0,0-15.572,25.948,21.257,21.257,0,0,0,9.749,13.16,21.258,21.258,0,0,0,10.973,3.06,21.552,21.552,0,0,0,5.226-.647,21.261,21.261,0,0,0,13.16-9.749,21.26,21.26,0,0,0,2.412-16.2A21.423,21.423,0,0,0-2507.731,3417.9Zm20.965,30.229a18.281,18.281,0,0,1-11.316,8.382,18.276,18.276,0,0,1-13.929-2.074,18.28,18.28,0,0,1-8.383-11.316,18.422,18.422,0,0,1,13.39-22.312,18.384,18.384,0,0,1,4.459-.55,18.433,18.433,0,0,1,17.853,13.94A18.28,18.28,0,0,1-2486.766,3448.125Z" transform="translate(2574.308 -3356.245)" fill="#4dd0e1"/>
  <path id="Trazado_199002" data-name="Trazado 199002" d="M-2488.974,3444.392c-2.91-.432-3.5-.911-3.73-1.82-.211-.845.171-1.9,1.876-2.325a6.346,6.346,0,0,1,3.44.065.7.7,0,0,0,.583-.093.7.7,0,0,0,.308-.5l.24-2.043a.708.708,0,0,0-.509-.758,8.578,8.578,0,0,0-3.6-.205l-.525-2.1a.672.672,0,0,0-.835-.492l-1.753.438a.634.634,0,0,0-.459.816l.574,2.3a5.3,5.3,0,0,0-3.022,6.186c.775,3.1,3.558,3.881,6.458,4.257,2.679.378,3.234,1.2,3.442,2.04.312,1.248-.56,2.356-2.162,2.757a7.032,7.032,0,0,1-3.969-.177.707.707,0,0,0-.616.068.7.7,0,0,0-.325.526l-.205,2.064a.689.689,0,0,0,.4.737,8.744,8.744,0,0,0,4.332.336l.552,2.208a.781.781,0,0,0,.937.493l1.781-.445a.694.694,0,0,0,.5-.852l-.6-2.383a5.689,5.689,0,0,0,3.133-6.482C-2483.172,3447.208-2484.281,3445.064-2488.974,3444.392Z" transform="translate(2561.437 -3364.161)" fill="#4dd0e1"/>
  <path id="Trazado_199003" data-name="Trazado 199003" d="M-2557.352,3400.2h-33.556v-7.37h27.56a1.5,1.5,0,0,0,1.5-1.5,1.5,1.5,0,0,0-1.5-1.5h-27.56v-7.207h26.637a1.5,1.5,0,0,0,1.5-1.5,1.5,1.5,0,0,0-1.5-1.5h-31.711v-7.207h35.862a1.5,1.5,0,0,0,1.5-1.5,1.5,1.5,0,0,0-1.5-1.5h-15.648V3365.6a1.071,1.071,0,0,0-1.071-1.071,1.071,1.071,0,0,0-1.071,1.071v3.819h-13v-7.128h2.172v3.309a1.071,1.071,0,0,0,1.071,1.071,1.071,1.071,0,0,0,1.071-1.071v-3.309h3.481v3.309a1.071,1.071,0,0,0,1.071,1.071,1.071,1.071,0,0,0,1.071-1.071v-3.309h31.136a1.5,1.5,0,0,0,1.5-1.5,1.5,1.5,0,0,0-1.5-1.5h-8.8v-22.1a27.4,27.4,0,0,1,.741-6.313,19.032,19.032,0,0,0,2.357.148c.505,0,1.042-.021,1.6-.072a12.455,12.455,0,0,0,9.433-5.124c6.074-8.624,2.71-22.015,2.564-22.581a1.5,1.5,0,0,0-1.786-1.086,43.854,43.854,0,0,0-11.093,4.453c-7.358,4.309-10.605,10-9.391,16.467a1.5,1.5,0,0,0,1.751,1.2,1.5,1.5,0,0,0,1.2-1.75c-.97-5.163,1.689-9.636,7.906-13.294a41.073,41.073,0,0,1,8.825-3.748,39.189,39.189,0,0,1,.627,5.861c.108,3.69-.335,8.9-3.052,12.756a9.406,9.406,0,0,1-7.166,3.856,15.554,15.554,0,0,1-2.914,0,30.227,30.227,0,0,1,7.582-11.765,1.5,1.5,0,0,0,.165-2.114,1.5,1.5,0,0,0-2.114-.165,32.491,32.491,0,0,0-8.995,14.62,1.555,1.555,0,0,0-.1.268,1.591,1.591,0,0,0-.024.169,30.807,30.807,0,0,0-1.115,8.223v7.295a43.167,43.167,0,0,0-3.126-4.016c.415-1.584,1.675-7.867-3.171-11.772-6.438-5.188-20.032-3.743-20.608-3.679a1.5,1.5,0,0,0-1.088.668,1.5,1.5,0,0,0-.18,1.263c.249.807,6.005,19.1,17.334,19.1a10.74,10.74,0,0,0,1.305-.08,1.5,1.5,0,0,0,1.307-1.669,1.5,1.5,0,0,0-1.669-1.307c-3.951.48-7.716-2.12-11.183-7.731a44.724,44.724,0,0,1-3.595-7.4,50.333,50.333,0,0,1,5.341,0c5.079.286,8.936,1.382,11.154,3.17a7.572,7.572,0,0,1,2.479,6.77,26.651,26.651,0,0,0-5.456-4.115,1.5,1.5,0,0,0-2.02.646,1.5,1.5,0,0,0,.646,2.02c.071.036,7.028,3.711,12.529,13.876v9.065h-30.77a1.5,1.5,0,0,0-1.5,1.5v8.627h-3.575a1.5,1.5,0,0,0-1.5,1.5v10.205a1.5,1.5,0,0,0,1.5,1.5h3.575V3401.7a1.5,1.5,0,0,0,1.5,1.5h35.055a1.5,1.5,0,0,0,1.5-1.5A1.5,1.5,0,0,0-2557.352,3400.2Z" transform="translate(2609.582 -3302.122)" fill="#4dd0e1"/>
  <path id="Trazado_199004" data-name="Trazado 199004" d="M-2449.6,3335.613a1.5,1.5,0,0,0,1.5-1.5v-1.339a1.5,1.5,0,0,0-1.5-1.5,1.5,1.5,0,0,0-1.5,1.5v1.339A1.5,1.5,0,0,0-2449.6,3335.613Z" transform="translate(2540.066 -3315.827)" fill="#4dd0e1"/>
  <path id="Trazado_199005" data-name="Trazado 199005" d="M-2449.6,3352.935a1.5,1.5,0,0,0,1.5-1.5V3350.1a1.5,1.5,0,0,0-1.5-1.5,1.5,1.5,0,0,0-1.5,1.5v1.339A1.5,1.5,0,0,0-2449.6,3352.935Z" transform="translate(2540.066 -3323.969)" fill="#4dd0e1"/>
  <path id="Trazado_199006" data-name="Trazado 199006" d="M-2459.527,3344.2h1.339a1.5,1.5,0,0,0,1.5-1.5,1.5,1.5,0,0,0-1.5-1.5h-1.339a1.5,1.5,0,0,0-1.5,1.5A1.5,1.5,0,0,0-2459.527,3344.2Z" transform="translate(2544.731 -3320.492)" fill="#4dd0e1"/>
  <path id="Trazado_199007" data-name="Trazado 199007" d="M-2442.205,3344.2h1.339a1.5,1.5,0,0,0,1.5-1.5,1.5,1.5,0,0,0-1.5-1.5h-1.339a1.5,1.5,0,0,0-1.5,1.5A1.5,1.5,0,0,0-2442.205,3344.2Z" transform="translate(2536.588 -3320.492)" fill="#4dd0e1"/>
  <path id="Trazado_199008" data-name="Trazado 199008" d="M-2478.548,3382.752a1.5,1.5,0,0,0,1.5-1.5v-1.339a1.5,1.5,0,0,0-1.5-1.5,1.5,1.5,0,0,0-1.5,1.5v1.339A1.5,1.5,0,0,0-2478.548,3382.752Z" transform="translate(2553.673 -3337.987)" fill="#4dd0e1"/>
  <path id="Trazado_199009" data-name="Trazado 199009" d="M-2478.548,3400.074a1.5,1.5,0,0,0,1.5-1.5v-1.339a1.5,1.5,0,0,0-1.5-1.5,1.5,1.5,0,0,0-1.5,1.5v1.339A1.5,1.5,0,0,0-2478.548,3400.074Z" transform="translate(2553.673 -3346.129)" fill="#4dd0e1"/>
  <path id="Trazado_199010" data-name="Trazado 199010" d="M-2488.472,3391.337h1.339a1.5,1.5,0,0,0,1.5-1.5,1.5,1.5,0,0,0-1.5-1.5h-1.339a1.5,1.5,0,0,0-1.5,1.5A1.5,1.5,0,0,0-2488.472,3391.337Z" transform="translate(2558.338 -3342.652)" fill="#4dd0e1"/>
  <path id="Trazado_199011" data-name="Trazado 199011" d="M-2471.15,3391.337h1.339a1.5,1.5,0,0,0,1.5-1.5,1.5,1.5,0,0,0-1.5-1.5h-1.339a1.5,1.5,0,0,0-1.5,1.5A1.5,1.5,0,0,0-2471.15,3391.337Z" transform="translate(2550.195 -3342.652)" fill="#4dd0e1"/>
  <path id="Trazado_199012" data-name="Trazado 199012" d="M-2607.562,3375.521a1.5,1.5,0,0,0-1.5,1.5v1.338a1.5,1.5,0,0,0,1.5,1.5,1.5,1.5,0,0,0,1.5-1.5v-1.338A1.5,1.5,0,0,0-2607.562,3375.521Z" transform="translate(2614.321 -3336.626)" fill="#4dd0e1"/>
  <path id="Trazado_199013" data-name="Trazado 199013" d="M-2607.562,3392.843a1.5,1.5,0,0,0-1.5,1.5v1.339a1.5,1.5,0,0,0,1.5,1.5,1.5,1.5,0,0,0,1.5-1.5v-1.339A1.5,1.5,0,0,0-2607.562,3392.843Z" transform="translate(2614.321 -3344.769)" fill="#4dd0e1"/>
  <path id="Trazado_199014" data-name="Trazado 199014" d="M-2616.148,3385.445h-1.339a1.5,1.5,0,0,0-1.5,1.5,1.5,1.5,0,0,0,1.5,1.5h1.339a1.5,1.5,0,0,0,1.5-1.5A1.5,1.5,0,0,0-2616.148,3385.445Z" transform="translate(2618.986 -3341.292)" fill="#4dd0e1"/>
  <path id="Trazado_199015" data-name="Trazado 199015" d="M-2598.826,3388.443a1.5,1.5,0,0,0,1.5-1.5,1.5,1.5,0,0,0-1.5-1.5h-1.339a1.5,1.5,0,0,0-1.5,1.5,1.5,1.5,0,0,0,1.5,1.5Z" transform="translate(2610.843 -3341.292)" fill="#4dd0e1"/>
  <path id="Trazado_199016" data-name="Trazado 199016" d="M-2442.014,3387.56a1.917,1.917,0,0,0,1.917-1.918,1.917,1.917,0,0,0-1.917-1.917,1.917,1.917,0,0,0-1.917,1.917A1.917,1.917,0,0,0-2442.014,3387.56Z" transform="translate(2536.695 -3340.483)" fill="#4dd0e1"/>
  <path id="Trazado_199017" data-name="Trazado 199017" d="M-2441.187,3417.633a1.917,1.917,0,0,0-1.917,1.917,1.917,1.917,0,0,0,1.917,1.917,1.917,1.917,0,0,0,1.917-1.917A1.917,1.917,0,0,0-2441.187,3417.633Z" transform="translate(2536.306 -3356.422)" fill="#4dd0e1"/>
  <path id="Trazado_199018" data-name="Trazado 199018" d="M-2607.83,3344.03a1.917,1.917,0,0,0-1.917,1.917,1.917,1.917,0,0,0,1.917,1.917,1.918,1.918,0,0,0,1.917-1.917A1.917,1.917,0,0,0-2607.83,3344.03Z" transform="translate(2614.643 -3321.823)" fill="#4dd0e1"/>
  <path id="Trazado_199019" data-name="Trazado 199019" d="M-2548.818,3418.848v1.12a1.071,1.071,0,0,0,1.071,1.071,1.071,1.071,0,0,0,1.071-1.071v-1.12a1.071,1.071,0,0,0-1.071-1.071A1.071,1.071,0,0,0-2548.818,3418.848Z" transform="translate(2586.001 -3356.49)" fill="#4dd0e1"/>
  <path id="Trazado_199020" data-name="Trazado 199020" d="M-2575.861,3439.269v1.58a1.07,1.07,0,0,0,1.071,1.07,1.07,1.07,0,0,0,1.07-1.07v-1.58a1.071,1.071,0,0,0-1.07-1.071A1.071,1.071,0,0,0-2575.861,3439.269Z" transform="translate(2598.714 -3366.09)" fill="#4dd0e1"/>
  <path id="Trazado_199021" data-name="Trazado 199021" d="M-2585.653,3439.269v1.58a1.071,1.071,0,0,0,1.071,1.07,1.071,1.071,0,0,0,1.071-1.07v-1.58a1.071,1.071,0,0,0-1.071-1.071A1.071,1.071,0,0,0-2585.653,3439.269Z" transform="translate(2603.317 -3366.09)" fill="#4dd0e1"/>
  <path id="Trazado_199022" data-name="Trazado 199022" d="M-2565.25,3439.269v.5a1.071,1.071,0,0,0,1.071,1.071,1.071,1.071,0,0,0,1.071-1.071v-.5a1.071,1.071,0,0,0-1.071-1.071A1.071,1.071,0,0,0-2565.25,3439.269Z" transform="translate(2593.725 -3366.09)" fill="#4dd0e1"/>
</svg>
