<svg xmlns="http://www.w3.org/2000/svg" width="106.135" height="105.706" viewBox="0 0 106.135 105.706">
  <g id="Grupo_151939" data-name="Grupo 151939" transform="translate(0 0)">
    <path id="Trazado_199025" data-name="Trazado 199025" d="M-2532.981,2290.08a22.339,22.339,0,0,1,7.737,12.3,1.762,1.762,0,0,0,1.714,1.364,1.8,1.8,0,0,0,.4-.046,1.761,1.761,0,0,0,1.318-2.113,25.872,25.872,0,0,0-8.96-14.246,25.829,25.829,0,0,0-14.488-5.623v-7.157a32.888,32.888,0,0,1,19.85,7.952,32.909,32.909,0,0,1,11.013,19.812,1.761,1.761,0,0,0,1.738,1.49,1.788,1.788,0,0,0,.273-.021,1.761,1.761,0,0,0,1.469-2.011,36.436,36.436,0,0,0-12.191-21.935,36.418,36.418,0,0,0-22.153-8.816v-7.075a1.761,1.761,0,0,0-1.761-1.761,1.761,1.761,0,0,0-1.761,1.761v24.89a1.76,1.76,0,0,0,1.761,1.761,1.761,1.761,0,0,0,1.761-1.761v-3.6A21.958,21.958,0,0,1-2532.981,2290.08Z" transform="translate(2592.575 -2262.19)" fill="#4dd0e1"/>
    <path id="Trazado_199026" data-name="Trazado 199026" d="M-2513.621,2369.959a35.63,35.63,0,0,0,8.516-21.605h7.054a1.761,1.761,0,0,0,1.761-1.761,1.761,1.761,0,0,0-1.761-1.761h-24.889a1.761,1.761,0,0,0-1.761,1.761,1.761,1.761,0,0,0,1.761,1.761h3.622a21.686,21.686,0,0,1-16.625,19.462,1.761,1.761,0,0,0-1.267,2.144,1.761,1.761,0,0,0,1.7,1.323,1.776,1.776,0,0,0,.44-.056,26.263,26.263,0,0,0,13.819-8.792,24.588,24.588,0,0,0,5.458-14.081h7.157a31.625,31.625,0,0,1-7.663,19.313,33.293,33.293,0,0,1-19.211,10.97,1.761,1.761,0,0,0-1.413,2.05,1.763,1.763,0,0,0,1.73,1.443,1.729,1.729,0,0,0,.321-.03A36.821,36.821,0,0,0-2513.621,2369.959Z" transform="translate(2587.161 -2301.039)" fill="#4dd0e1"/>
    <path id="Trazado_199027" data-name="Trazado 199027" d="M-2464.967,2419.21l-25.195-25.195a1.762,1.762,0,0,0-2.49,0,1.761,1.761,0,0,0,0,2.49l25.2,25.195a2.562,2.562,0,0,1,.755,1.823,2.559,2.559,0,0,1-.756,1.823,2.559,2.559,0,0,1-1.823.755,2.561,2.561,0,0,1-1.823-.755l-25.195-25.195a1.761,1.761,0,0,0-2.49,0,1.762,1.762,0,0,0,0,2.491l25.2,25.195a6.06,6.06,0,0,0,4.313,1.787,6.061,6.061,0,0,0,4.313-1.787,6.06,6.06,0,0,0,1.787-4.313A6.061,6.061,0,0,0-2464.967,2419.21Z" transform="translate(2569.316 -2323.918)" fill="#4dd0e1"/>
    <path id="Trazado_199028" data-name="Trazado 199028" d="M-2577.346,2368.077a1.761,1.761,0,0,0-1.761,1.761v3.21a21.621,21.621,0,0,1-12.507-4.754,21.054,21.054,0,0,1-7.4-12.314,1.762,1.762,0,0,0-2.078-1.374,1.761,1.761,0,0,0-1.373,2.078,24.877,24.877,0,0,0,8.636,14.346,25.123,25.123,0,0,0,14.725,5.546v7.152a32.547,32.547,0,0,1-19.953-7.773,32.1,32.1,0,0,1-10.726-19.651,1.761,1.761,0,0,0-2-1.485,1.761,1.761,0,0,0-1.485,2,35.627,35.627,0,0,0,11.91,21.8,36.072,36.072,0,0,0,22.254,8.629v7.477a1.761,1.761,0,0,0,1.761,1.762,1.761,1.761,0,0,0,1.761-1.762v-24.889A1.761,1.761,0,0,0-2577.346,2368.077Z" transform="translate(2622.899 -2305.618)" fill="#4dd0e1"/>
    <path id="Trazado_199029" data-name="Trazado 199029" d="M-2603.011,2315.9a1.761,1.761,0,0,0-1.761-1.761h-3.19a21.735,21.735,0,0,1,17.206-20.347,1.761,1.761,0,0,0,1.369-2.081,1.761,1.761,0,0,0-2.081-1.369,25.235,25.235,0,0,0-20.022,23.8h-7.152a32.888,32.888,0,0,1,8.01-20.119,32.906,32.906,0,0,1,19.909-10.983,1.761,1.761,0,0,0,1.479-2,1.762,1.762,0,0,0-2-1.479,36.428,36.428,0,0,0-22.043,12.157,36.409,36.409,0,0,0-8.872,22.427h-7.5a1.761,1.761,0,0,0-1.761,1.761,1.761,1.761,0,0,0,1.761,1.761h24.89A1.76,1.76,0,0,0-2603.011,2315.9Z" transform="translate(2631.423 -2270.341)" fill="#4dd0e1"/>
  </g>
</svg>
